<svg width="549" height="774" viewBox="0 0 549 774" fill="none" xmlns="http://www.w3.org/2000/svg">
<rect x="142.845" y="6.97906" width="400" height="617.17" rx="10" transform="rotate(12 142.845 6.97906)" fill="#0008CB"/>
<rect x="162.77" width="400" height="617.17" rx="10" transform="rotate(15.29 162.77 0)" fill="#F0F0FC"/>
<path d="M86.8708 216.99H33.686C32.8101 216.996 31.9418 216.829 31.1309 216.498C30.32 216.167 29.5826 215.678 28.9612 215.061C28.3397 214.444 27.8466 213.71 27.51 212.901C27.1735 212.093 27.0002 211.225 27.0002 210.35V136.746C27.0002 134.981 27.7015 133.288 28.9496 132.04C30.1978 130.792 31.8907 130.091 33.6559 130.091H67.3857L93.5113 156.999V210.35C93.5133 211.222 93.3429 212.087 93.0099 212.893C92.6769 213.7 92.1878 214.433 91.5708 215.05C90.9537 215.667 90.2209 216.156 89.4143 216.489C88.6078 216.822 87.7434 216.992 86.8708 216.99Z" fill="#EBEBEB"/>
<path d="M27.0002 190.624H93.5113V208.377C93.5113 210.661 92.6039 212.852 90.9886 214.467C89.3733 216.083 87.1825 216.99 84.8981 216.99H35.6586C34.5237 216.996 33.3988 216.778 32.3486 216.348C31.2984 215.917 30.3435 215.284 29.5389 214.483C28.7343 213.683 28.0959 212.732 27.6602 211.684C27.2245 210.636 27.0002 209.512 27.0002 208.377V190.624Z" fill="#E0E0E0"/>
<path d="M50.5964 207.639L52.2679 205.637C52.5159 206.068 52.8673 206.432 53.2903 206.695C53.7134 206.958 54.1951 207.111 54.6922 207.142C55.8968 207.142 56.5293 206.404 56.5293 204.974V198.71H52.0119V196.301H59.5409V204.733C59.5409 207.955 57.9146 209.537 54.8578 209.537C54.0496 209.569 53.2448 209.414 52.5058 209.085C51.7668 208.756 51.1135 208.261 50.5964 207.639Z" fill="#FAFAFA"/>
<path d="M61.3176 208.377L62.2813 206.299C63.3355 206.921 64.5356 207.254 65.7597 207.263C67.0999 207.263 67.5968 206.916 67.5968 206.359C67.5968 204.718 61.5736 206.359 61.5736 202.399C61.5736 200.502 63.2902 199.162 66.2115 199.162C67.5433 199.137 68.8612 199.436 70.0512 200.035L69.0875 202.098C68.2097 201.605 67.2181 201.351 66.2115 201.36C64.9014 201.36 64.3443 201.767 64.3443 202.279C64.3443 203.995 70.3675 202.279 70.3675 206.284C70.3675 208.136 68.6358 209.461 65.6543 209.461C64.1382 209.491 62.6415 209.116 61.3176 208.377Z" fill="#FAFAFA"/>
<path d="M41.1248 176.785L43.2028 174.346C43.7537 175.25 44.5244 176.001 45.4432 176.527C46.3621 177.054 47.3991 177.34 48.458 177.358C51.2889 177.358 52.7646 175.626 52.7646 172.253V158.053H43.7298V155.042H56.3785V172.117C56.3785 177.719 53.653 180.49 48.5182 180.49C47.0762 180.528 45.6468 180.211 44.3571 179.564C43.0673 178.918 41.9571 177.964 41.1248 176.785Z" fill="#FAFAFA"/>
<path d="M60.7454 178.11L62.2512 175.385C64.2419 176.676 66.5644 177.361 68.9369 177.358C72.1292 177.358 73.4543 176.394 73.4543 174.768C73.4543 170.491 61.4079 174.195 61.4079 166.621C61.4079 163.203 64.4195 160.899 69.3435 160.899C71.7486 160.847 74.1258 161.423 76.24 162.571L74.7342 165.296C73.0888 164.268 71.1779 163.744 69.2381 163.79C66.2265 163.79 64.7207 164.905 64.7207 166.41C64.7207 170.928 76.7671 167.239 76.7671 174.647C76.7671 178.095 73.6049 180.279 68.5303 180.279C65.7765 180.354 63.0638 179.599 60.7454 178.11Z" fill="#FAFAFA"/>
<g opacity="0.3">
<path d="M67.416 130.091V150.81C67.4179 151.628 67.5819 152.438 67.8986 153.192C68.2152 153.946 68.6781 154.63 69.2606 155.204C69.8431 155.778 70.5335 156.231 71.2921 156.536C72.0507 156.842 72.8624 156.994 73.6801 156.984H93.5115L67.416 130.091Z" fill="white"/>
</g>
<path d="M67.6562 152.617C67.6666 154.186 68.2127 155.704 69.2041 156.92C70.1955 158.136 71.5726 158.977 73.1072 159.303C73.3249 159.363 73.5462 159.408 73.7698 159.439C76.3748 159.905 93.4807 162.947 93.4807 162.556V156.999H73.6794C73.6794 156.999 68.62 156.819 67.6562 152.617Z" fill="#E0E0E0"/>
<path d="M178.921 174.105H113.223C111.042 174.105 108.951 173.239 107.409 171.697C105.867 170.155 105.001 168.064 105.001 165.883V74.9483C105.001 72.7678 105.867 70.6766 107.409 69.1348C108.951 67.5929 111.042 66.7267 113.223 66.7267H154.888L187.127 99.9747V165.883C187.127 168.061 186.263 170.15 184.724 171.692C183.186 173.233 181.098 174.101 178.921 174.105Z" fill="#EBEBEB"/>
<path d="M106.808 141.49H185.215C185.71 141.49 186.185 141.686 186.535 142.036C186.886 142.387 187.082 142.862 187.082 143.357V164.317C187.082 165.599 186.83 166.868 186.339 168.051C185.849 169.235 185.13 170.311 184.224 171.217C183.318 172.123 182.243 172.842 181.059 173.332C179.875 173.823 178.606 174.075 177.325 174.075H114.759C113.477 174.075 112.209 173.823 111.025 173.332C109.841 172.842 108.765 172.123 107.859 171.217C106.953 170.311 106.234 169.235 105.744 168.051C105.254 166.868 105.001 165.599 105.001 164.317V143.387C104.993 142.897 105.178 142.423 105.516 142.068C105.854 141.713 106.318 141.505 106.808 141.49Z" fill="#E0E0E0"/>
<g opacity="0.2">
<path d="M154.888 66.7267V92.3252C154.888 94.3514 155.692 96.2948 157.123 97.7289C158.554 99.163 160.496 99.9707 162.522 99.9747H187.127L154.888 66.7267Z" fill="white"/>
</g>
<path d="M155.219 94.5689C155.232 96.5078 155.909 98.3836 157.136 99.8848C158.363 101.386 160.067 102.422 161.965 102.821C162.227 102.897 162.493 102.957 162.763 103.001C165.985 103.574 187.127 107.338 187.127 106.856V99.9747H162.522C162.522 99.9747 156.378 99.7639 155.219 94.5689Z" fill="#E0E0E0"/>
<path d="M128.506 155.719C128.589 154.342 129.075 153.019 129.904 151.916C130.734 150.813 131.869 149.978 133.169 149.515C134.47 149.053 135.877 148.984 137.217 149.316C138.557 149.648 139.769 150.366 140.703 151.383L138.806 153.129C138.418 152.654 137.928 152.272 137.373 152.012C136.818 151.751 136.211 151.618 135.598 151.624C135.04 151.59 134.482 151.67 133.956 151.86C133.431 152.051 132.95 152.346 132.543 152.729C132.136 153.112 131.812 153.574 131.59 154.087C131.368 154.6 131.254 155.153 131.254 155.712C131.254 156.271 131.368 156.823 131.59 157.336C131.812 157.849 132.136 158.311 132.543 158.694C132.95 159.077 133.431 159.373 133.956 159.563C134.482 159.753 135.04 159.834 135.598 159.8C136.211 159.805 136.818 159.673 137.373 159.412C137.928 159.151 138.418 158.769 138.806 158.294L140.703 160.041C139.773 161.063 138.562 161.789 137.221 162.125C135.881 162.462 134.471 162.396 133.168 161.934C131.865 161.472 130.728 160.636 129.898 159.531C129.069 158.425 128.585 157.099 128.506 155.719Z" fill="#FAFAFA"/>
<path d="M141.576 160.839L142.57 158.625C143.811 159.479 145.28 159.941 146.786 159.951C148.548 159.951 149.256 159.363 149.256 158.58C149.256 156.186 141.832 157.842 141.832 153.084C141.832 150.916 143.579 149.109 147.208 149.109C148.788 149.067 150.35 149.458 151.725 150.238L150.807 152.482C149.73 151.856 148.513 151.514 147.268 151.488C145.521 151.488 144.844 152.136 144.844 152.994C144.844 155.343 152.267 153.717 152.267 158.415C152.267 160.538 150.49 162.375 146.846 162.375C144.973 162.422 143.131 161.885 141.576 160.839Z" fill="#FAFAFA"/>
<path d="M153.201 160.839L154.21 158.625C155.451 159.479 156.92 159.941 158.426 159.951C160.173 159.951 160.896 159.363 160.896 158.58C160.896 156.186 153.457 157.842 153.457 153.084C153.457 150.916 155.219 149.109 158.848 149.109C160.398 149.079 161.928 149.469 163.275 150.238L162.371 152.482C161.295 151.856 160.078 151.514 158.833 151.488C157.071 151.488 156.393 152.136 156.393 152.994C156.393 155.343 163.832 153.717 163.832 158.415C163.832 160.538 162.055 162.375 158.411 162.375C156.558 162.409 154.739 161.873 153.201 160.839Z" fill="#FAFAFA"/>
<path d="M132.677 114.385C134.032 114.807 134.65 115.65 134.65 117.683V122.366C134.611 122.657 134.639 122.953 134.733 123.232C134.826 123.511 134.982 123.764 135.188 123.974C135.394 124.183 135.646 124.342 135.923 124.439C136.2 124.537 136.496 124.569 136.788 124.534H137.315V128.103H135.613C131.954 128.103 130.072 126.236 130.072 122.863V117.547C130.1 117.367 130.087 117.182 130.033 117.008C129.979 116.833 129.887 116.673 129.762 116.539C129.637 116.406 129.484 116.303 129.313 116.237C129.142 116.172 128.959 116.146 128.777 116.162H127.889V112.593H128.852C129.034 112.609 129.218 112.583 129.388 112.518C129.559 112.453 129.712 112.349 129.837 112.216C129.962 112.082 130.055 111.922 130.108 111.748C130.162 111.573 130.175 111.388 130.147 111.208V105.892C130.147 102.52 132.03 100.637 135.689 100.637H137.39V104.221H136.863C136.571 104.186 136.276 104.219 135.998 104.316C135.721 104.413 135.469 104.572 135.263 104.782C135.057 104.991 134.901 105.245 134.808 105.523C134.715 105.802 134.686 106.098 134.725 106.389V111.087C134.65 113.12 134.032 113.964 132.677 114.385Z" fill="#FAFAFA"/>
<path d="M164.314 112.593V116.162H163.35C163.168 116.146 162.985 116.172 162.815 116.237C162.644 116.303 162.49 116.406 162.366 116.539C162.241 116.673 162.148 116.833 162.094 117.008C162.041 117.182 162.027 117.367 162.055 117.547V122.863C162.055 126.236 160.188 128.103 156.514 128.103H154.812V124.534H155.34C155.631 124.569 155.927 124.537 156.205 124.439C156.482 124.342 156.733 124.183 156.94 123.974C157.146 123.764 157.302 123.511 157.395 123.232C157.488 122.953 157.517 122.657 157.478 122.366V117.668C157.478 115.635 158.095 114.792 159.45 114.37C158.095 113.964 157.478 113.12 157.478 111.087V106.389C157.517 106.098 157.488 105.802 157.395 105.523C157.302 105.245 157.146 104.991 156.94 104.782C156.733 104.572 156.482 104.413 156.205 104.316C155.927 104.219 155.631 104.186 155.34 104.221H154.812V100.637H156.499C160.173 100.637 162.04 102.52 162.04 105.892V111.208C162.012 111.388 162.026 111.573 162.079 111.748C162.133 111.922 162.226 112.082 162.351 112.216C162.475 112.349 162.629 112.453 162.799 112.518C162.97 112.583 163.153 112.609 163.335 112.593H164.314Z" fill="#FAFAFA"/>
<path d="M447.281 111H371.014C366.199 111 362.295 114.904 362.295 119.719V164.241C362.295 169.057 366.199 172.96 371.014 172.96H447.281C452.096 172.96 456 169.057 456 164.241V119.719C456 114.904 452.096 111 447.281 111Z" fill="#0008CB"/>
<g opacity="0.3">
<path d="M447.281 111H371.014C366.199 111 362.295 114.904 362.295 119.719V164.241C362.295 169.057 366.199 172.96 371.014 172.96H447.281C452.096 172.96 456 169.057 456 164.241V119.719C456 114.904 452.096 111 447.281 111Z" fill="black"/>
</g>
<path d="M440.986 111H364.719C359.904 111 356 114.904 356 119.719V164.241C356 169.057 359.904 172.96 364.719 172.96H440.986C445.801 172.96 449.705 169.057 449.705 164.241V119.719C449.705 114.904 445.801 111 440.986 111Z" fill="#0008CB"/>
<path d="M392.729 138.5L379.962 143.026L392.729 147.552V153.399L372.96 146.116V139.956L392.729 132.673V138.5Z" fill="white"/>
<path d="M406.817 123.33H413.58L400.366 161.036H393.603L406.817 123.33Z" fill="white"/>
<path d="M433.724 139.946V146.106L413.955 153.389V147.541L426.732 143.015L413.955 138.489V132.642L433.724 139.946Z" fill="white"/>
<path d="M136.373 514.875H391.25C395.525 514.875 398.99 518.34 398.99 522.615V765.595C398.99 769.87 395.525 773.335 391.25 773.335H136.373C132.099 773.335 128.633 769.87 128.633 765.595V522.615C128.633 518.34 132.099 514.875 136.373 514.875Z" fill="#E0E0E0"/>
<path d="M128.153 597.375C128.153 597.655 188.553 597.895 263.012 597.895C337.471 597.895 397.89 597.655 397.89 597.375C397.89 597.095 337.511 596.855 263.012 596.855C188.513 596.855 128.153 597.075 128.153 597.375Z" fill="#263238"/>
<path d="M128.153 680.415C128.153 680.695 188.553 680.935 263.012 680.935C337.471 680.935 397.89 680.695 397.89 680.415C397.89 680.135 337.511 679.895 263.012 679.895C188.513 679.895 128.153 680.055 128.153 680.415Z" fill="#263238"/>
<path d="M349.831 564.375C346.584 564.375 343.951 561.742 343.951 558.495C343.951 555.247 346.584 552.615 349.831 552.615C353.078 552.615 355.711 555.247 355.711 558.495C355.711 561.742 353.078 564.375 349.831 564.375Z" fill="white"/>
<path d="M328.751 564.375C325.504 564.375 322.871 561.742 322.871 558.495C322.871 555.247 325.504 552.615 328.751 552.615C331.998 552.615 334.631 555.247 334.631 558.495C334.631 561.742 331.998 564.375 328.751 564.375Z" fill="white"/>
<path d="M195.613 549.435H196.633C197.836 549.435 198.812 550.411 198.812 551.615V567.275C198.812 568.479 197.836 569.455 196.633 569.455H195.613C194.409 569.455 193.433 568.479 193.433 567.275V551.615C193.433 550.411 194.409 549.435 195.613 549.435Z" fill="#263238"/>
<path d="M182.052 549.435H183.072C184.276 549.435 185.252 550.411 185.252 551.615V567.275C185.252 568.479 184.276 569.455 183.072 569.455H182.052C180.849 569.455 179.872 568.479 179.872 567.275V551.615C179.872 550.411 180.849 549.435 182.052 549.435Z" fill="#263238"/>
<path d="M169.552 549.435H170.572C171.776 549.435 172.752 550.411 172.752 551.615V567.275C172.752 568.479 171.776 569.455 170.572 569.455H169.552C168.349 569.455 167.372 568.479 167.372 567.275V551.615C167.372 550.411 168.349 549.435 169.552 549.435Z" fill="white"/>
<path d="M209.333 549.435H210.353C211.557 549.435 212.533 550.411 212.533 551.615V567.275C212.533 568.479 211.557 569.455 210.353 569.455H209.333C208.129 569.455 207.153 568.479 207.153 567.275V551.615C207.153 550.411 208.129 549.435 209.333 549.435Z" fill="#0008CB"/>
<path d="M349.831 644.975C346.584 644.975 343.951 642.342 343.951 639.095C343.951 635.847 346.584 633.215 349.831 633.215C353.078 633.215 355.711 635.847 355.711 639.095C355.711 642.342 353.078 644.975 349.831 644.975Z" fill="white"/>
<path d="M329.891 644.975C326.644 644.975 324.011 642.342 324.011 639.095C324.011 635.847 326.644 633.215 329.891 633.215C333.138 633.215 335.771 635.847 335.771 639.095C335.771 642.342 333.138 644.975 329.891 644.975Z" fill="white"/>
<path d="M195.613 630.055H196.633C197.836 630.055 198.812 631.031 198.812 632.235V647.895C198.812 649.099 197.836 650.075 196.633 650.075H195.613C194.409 650.075 193.433 649.099 193.433 647.895V632.235C193.433 631.031 194.409 630.055 195.613 630.055Z" fill="#263238"/>
<path d="M182.052 630.055H183.072C184.276 630.055 185.252 631.031 185.252 632.235V647.895C185.252 649.099 184.276 650.075 183.072 650.075H182.052C180.849 650.075 179.872 649.099 179.872 647.895V632.235C179.872 631.031 180.849 630.055 182.052 630.055Z" fill="#263238"/>
<path d="M169.552 630.055H170.572C171.776 630.055 172.752 631.031 172.752 632.235V647.895C172.752 649.099 171.776 650.075 170.572 650.075H169.552C168.349 650.075 167.372 649.099 167.372 647.895V632.235C167.372 631.031 168.349 630.055 169.552 630.055Z" fill="white"/>
<path d="M209.333 630.055H210.353C211.557 630.055 212.533 631.031 212.533 632.235V647.895C212.533 649.099 211.557 650.075 210.353 650.075H209.333C208.129 650.075 207.153 649.099 207.153 647.895V632.235C207.153 631.031 208.129 630.055 209.333 630.055Z" fill="#0008CB"/>
<path d="M349.831 731.755C346.584 731.755 343.951 729.122 343.951 725.875C343.951 722.628 346.584 719.995 349.831 719.995C353.078 719.995 355.711 722.628 355.711 725.875C355.711 729.122 353.078 731.755 349.831 731.755Z" fill="white"/>
<path d="M328.191 731.755C324.944 731.755 322.311 729.122 322.311 725.875C322.311 722.628 324.944 719.995 328.191 719.995C331.439 719.995 334.071 722.628 334.071 725.875C334.071 729.122 331.439 731.755 328.191 731.755Z" fill="white"/>
<path d="M195.613 716.835H196.633C197.836 716.835 198.812 717.811 198.812 719.015V734.675C198.812 735.879 197.836 736.855 196.633 736.855H195.613C194.409 736.855 193.433 735.879 193.433 734.675V719.015C193.433 717.811 194.409 716.835 195.613 716.835Z" fill="#263238"/>
<path d="M182.052 716.835H183.072C184.276 716.835 185.252 717.811 185.252 719.015V734.675C185.252 735.879 184.276 736.855 183.072 736.855H182.052C180.849 736.855 179.872 735.879 179.872 734.675V719.015C179.872 717.811 180.849 716.835 182.052 716.835Z" fill="#263238"/>
<path d="M169.552 716.835H170.572C171.776 716.835 172.752 717.811 172.752 719.015V734.675C172.752 735.879 171.776 736.855 170.572 736.855H169.552C168.349 736.855 167.372 735.879 167.372 734.675V719.015C167.372 717.811 168.349 716.835 169.552 716.835Z" fill="white"/>
<path d="M209.333 716.835H210.353C211.557 716.835 212.533 717.811 212.533 719.015V734.675C212.533 735.879 211.557 736.855 210.353 736.855H209.333C208.129 736.855 207.153 735.879 207.153 734.675V719.015C207.153 717.811 208.129 716.835 209.333 716.835Z" fill="#0008CB"/>
<path d="M264.212 145.495C264.361 144.338 264.74 143.224 265.326 142.216C265.913 141.208 266.695 140.328 267.627 139.627C268.559 138.927 269.622 138.419 270.752 138.136C271.883 137.852 273.059 137.797 274.212 137.975C275.624 135.457 277.952 133.58 280.712 132.734C283.472 131.889 286.452 132.14 289.032 133.435C291.432 134.775 293.231 136.975 295.571 138.395C297.937 139.557 300.36 140.599 302.831 141.515C304.062 141.987 305.158 142.757 306.019 143.755C306.881 144.753 307.483 145.948 307.771 147.235C307.798 148.703 307.357 150.141 306.512 151.342C305.667 152.543 304.462 153.444 303.071 153.915C300.275 154.796 297.321 155.062 294.411 154.695C295.027 155.135 295.457 155.787 295.619 156.526C295.782 157.265 295.665 158.037 295.291 158.695C294.545 159.98 293.347 160.942 291.932 161.395C289.641 162.276 287.151 162.507 284.737 162.062C282.322 161.618 280.078 160.515 278.252 158.875L272.772 154.675C271.601 154.652 270.447 154.395 269.378 153.917C268.309 153.44 267.347 152.753 266.548 151.897C265.75 151.041 265.132 150.033 264.73 148.933C264.329 147.833 264.153 146.664 264.212 145.495Z" fill="#263238"/>
<path d="M277.892 163.775C278.423 164.249 279.11 164.51 279.822 164.51C280.534 164.51 281.221 164.249 281.752 163.775C282.252 163.253 282.602 162.606 282.764 161.902C282.926 161.198 282.894 160.462 282.672 159.775C282.218 158.409 281.288 157.252 280.052 156.515C278.806 155.771 277.459 155.211 276.052 154.855C273.953 154.199 271.785 153.79 269.592 153.635C268.814 153.556 268.028 153.652 267.292 153.915C266.929 154.055 266.61 154.288 266.364 154.589C266.119 154.891 265.956 155.251 265.892 155.635C265.892 156.735 266.772 157.635 267.652 158.255C270.936 160.675 274.43 162.796 278.092 164.595" fill="#0008CB"/>
<path d="M281.092 163.215C286.272 157.435 299.191 158.215 302.271 161.975C304.55 160.883 307.161 160.708 309.566 161.486C311.97 162.264 313.983 163.935 315.191 166.155L328.931 169.075C331.322 169.368 333.6 170.262 335.551 171.675C336.493 172.415 337.134 173.472 337.355 174.649C337.575 175.826 337.361 177.044 336.751 178.075C337.916 178.467 338.967 179.141 339.809 180.037C340.651 180.934 341.258 182.024 341.577 183.212C341.896 184.4 341.916 185.648 341.635 186.845C341.355 188.042 340.783 189.152 339.971 190.075C340.442 190.607 340.798 191.23 341.018 191.905C341.238 192.581 341.317 193.294 341.249 194.001C341.182 194.708 340.97 195.394 340.626 196.016C340.282 196.637 339.814 197.182 339.251 197.615C343.089 202.136 346.12 207.285 348.211 212.835C349.301 215.079 349.563 217.636 348.951 220.055C348.111 222.395 344.951 224.055 342.951 222.575C343.64 223.521 344.038 224.648 344.095 225.817C344.152 226.986 343.865 228.146 343.271 229.155C345.591 229.155 346.311 232.775 344.731 234.475C343.833 235.215 342.793 235.762 341.675 236.082C340.556 236.402 339.384 236.488 338.231 236.335C335.914 236.02 333.557 236.44 331.491 237.535C331.516 237.818 331.599 238.093 331.733 238.344C331.867 238.595 332.05 238.816 332.271 238.995C334.24 240.462 335.568 242.631 335.981 245.051C336.395 247.471 335.861 249.957 334.491 251.995C334.211 252.375 333.951 252.735 333.731 253.075C331.831 255.099 329.547 256.725 327.011 257.855C321.791 260.635 318.651 260.135 312.791 261.015C314.431 264.795 304.971 273.235 294.011 265.015C274.568 270.736 254.399 273.613 234.132 273.555C230.932 273.555 227.072 273.195 225.612 270.315C224.289 270.572 222.922 270.49 221.639 270.077C220.356 269.665 219.198 268.935 218.272 267.955C216.434 265.974 214.958 263.686 213.912 261.195C211.135 260.41 208.668 258.786 206.849 256.544C205.03 254.303 203.949 251.555 203.753 248.675C201.86 247.201 200.295 245.35 199.155 243.24C198.016 241.129 197.327 238.805 197.133 236.415C195.808 235.958 194.593 235.231 193.562 234.282C192.532 233.332 191.709 232.18 191.146 230.897C190.582 229.614 190.29 228.228 190.288 226.827C190.286 225.426 190.573 224.04 191.133 222.755C192.255 216.103 194.472 209.682 197.693 203.755C193.993 202.975 192.573 198.015 194.073 194.555C195.573 191.095 198.893 188.855 202.073 186.815C199.333 187.575 196.913 184.135 197.533 181.355C198.007 180.007 198.742 178.766 199.696 177.702C200.65 176.638 201.804 175.773 203.093 175.155C206.659 172.973 210.481 171.239 214.472 169.995C215.732 165.135 221.892 159.575 226.472 157.395C244.732 148.595 257.532 146.315 280.992 163.235" fill="#263238"/>
<path d="M295.191 192.595C295.431 188.735 296.071 184.935 292.271 184.355L253.352 172.615C240.812 170.715 231.732 185.855 230.352 198.475C228.832 212.475 227.532 229.655 228.712 240.215C229.334 246.24 231.647 251.966 235.384 256.733C239.121 261.5 244.129 265.113 249.832 267.155L249.332 280.035C250.952 290.035 253.472 301.095 257.492 305.075C271.251 302.495 293.771 272.235 293.771 272.235L295.191 192.595Z" fill="#AE7461"/>
<path d="M250.732 230.515C249.215 229.969 247.636 229.613 246.032 229.455C245.292 229.355 244.592 229.175 244.492 228.655C244.471 227.885 244.68 227.126 245.092 226.475L247.552 220.915C250.952 212.915 253.552 206.475 253.152 206.335C252.752 206.195 249.792 212.515 246.392 220.335C245.552 222.335 244.772 224.135 244.032 225.935C243.516 226.808 243.331 227.837 243.512 228.835C243.607 229.1 243.761 229.339 243.962 229.537C244.163 229.734 244.405 229.884 244.672 229.975C245.082 230.096 245.505 230.17 245.932 230.195C247.51 230.52 249.125 230.627 250.732 230.515Z" fill="#263238"/>
<path d="M249.832 267.155C258.977 266.053 267.814 263.15 275.832 258.615C275.832 258.615 270.952 271.915 249.832 273.535V267.155Z" fill="#6F4439"/>
<path d="M263.152 198.095C263.392 198.895 266.312 198.655 269.712 199.215C273.112 199.775 275.832 200.835 276.312 200.155C276.532 199.815 276.092 199.055 275.012 198.155C273.577 197.119 271.919 196.434 270.172 196.155C268.433 195.86 266.649 195.99 264.972 196.535C263.692 197.115 263.032 197.715 263.152 198.095Z" fill="#263238"/>
<path d="M235.152 197.615C235.632 198.295 237.672 197.615 240.092 197.775C242.512 197.935 244.512 198.435 245.012 197.775C245.252 197.455 245.012 196.775 244.092 196.115C242.925 195.293 241.538 194.842 240.111 194.821C238.684 194.799 237.283 195.208 236.092 195.995C235.252 196.615 234.952 197.275 235.152 197.615Z" fill="#263238"/>
<path d="M220.873 208.595C220.96 205.256 222.196 202.049 224.373 199.515C225.774 198.329 227.11 197.067 228.372 195.735C230.752 192.635 230.372 188.295 231.412 184.515C232.092 182.073 233.343 179.828 235.06 177.964C236.778 176.1 238.914 174.671 241.292 173.795C245.292 172.395 249.732 172.575 253.452 170.615C256.192 169.155 258.292 166.615 261.112 165.335C266.612 162.835 272.992 165.655 278.192 168.755C279.212 172.895 276.612 176.455 274.192 179.895C272.913 181.602 271.281 183.013 269.406 184.031C267.532 185.049 265.46 185.651 263.332 185.795C260.032 185.995 256.192 185.235 253.872 187.595C251.552 189.955 252.372 194.415 250.372 197.255C247.512 201.255 240.992 199.755 236.712 202.255C233.412 204.255 232.012 208.255 230.352 211.595C228.692 214.935 225.792 218.655 221.973 218.455C221.228 215.221 220.859 211.913 220.873 208.595Z" fill="#263238"/>
<path d="M269.892 176.275C279.546 176.139 289.135 177.871 298.131 181.375C300.904 182.203 303.341 183.891 305.091 186.195C306.27 188.444 306.777 190.985 306.551 193.515C306.551 201.415 303.271 211.075 300.251 218.375L290.391 224.375C282.792 222.575 286.391 209.455 286.651 202.875C284.01 201.669 281.76 199.746 280.158 197.324C278.556 194.901 277.667 192.078 277.592 189.175C275.413 187.75 273.587 185.849 272.253 183.613C270.919 181.378 270.111 178.869 269.892 176.275Z" fill="#263238"/>
<path d="M290.512 221.435C290.832 216.915 296.331 216.055 300.331 218.415C302.471 219.695 304.071 222.235 303.791 227.015C303.051 239.815 290.352 236.435 290.352 236.055C290.352 235.675 290.172 226.735 290.512 221.435Z" fill="#AE7461"/>
<path d="M294.471 231.395C294.471 231.395 294.671 231.575 295.051 231.775C295.569 232.027 296.163 232.069 296.711 231.895C297.567 231.417 298.28 230.721 298.779 229.878C299.278 229.035 299.545 228.075 299.551 227.095C299.647 226.002 299.497 224.902 299.111 223.875C299.014 223.466 298.82 223.088 298.545 222.771C298.27 222.454 297.922 222.208 297.531 222.055C297.277 221.982 297.005 221.996 296.759 222.094C296.513 222.191 296.307 222.367 296.171 222.595C295.991 222.955 296.051 223.215 295.991 223.215C295.931 223.215 295.731 222.995 295.851 222.475C295.949 222.161 296.145 221.887 296.411 221.695C296.779 221.46 297.222 221.375 297.651 221.455C298.158 221.578 298.627 221.825 299.014 222.174C299.402 222.523 299.696 222.963 299.871 223.455C300.347 224.599 300.539 225.841 300.431 227.075C300.432 228.217 300.094 229.334 299.46 230.284C298.827 231.235 297.926 231.976 296.871 232.415C296.525 232.491 296.165 232.489 295.82 232.409C295.474 232.33 295.15 232.175 294.871 231.955C294.471 231.715 294.331 231.415 294.471 231.395Z" fill="#6F4439"/>
<path d="M295.892 236.775C295.892 236.775 295.892 236.775 295.892 236.955C295.938 237.12 295.998 237.28 296.072 237.435C296.396 238.038 296.919 238.512 297.552 238.775C298.549 239.207 299.624 239.432 300.711 239.435C301.381 239.451 302.051 239.405 302.711 239.295C303.489 239.186 304.245 238.956 304.951 238.615H304.791C304.972 239.697 305.43 240.714 306.12 241.567C306.811 242.42 307.71 243.079 308.73 243.482C309.751 243.885 310.858 244.016 311.945 243.864C313.032 243.712 314.06 243.282 314.931 242.615H314.711C314.901 242.906 315.147 243.155 315.436 243.347C315.725 243.54 316.05 243.672 316.391 243.735C317.06 243.871 317.753 243.816 318.391 243.575C319.084 243.316 319.674 242.839 320.071 242.215C320.454 241.578 320.674 240.857 320.711 240.115C320.775 238.569 320.286 237.052 319.331 235.835C318.394 234.568 317.306 233.419 316.091 232.415V232.715C316.614 232.371 317.061 231.924 317.405 231.401C317.749 230.878 317.982 230.291 318.091 229.675C318.332 228.413 318.207 227.108 317.731 225.915C317.202 224.711 316.441 223.624 315.491 222.715C314.541 221.797 313.532 220.942 312.471 220.155V220.435C312.926 219.939 313.273 219.354 313.49 218.717C313.707 218.08 313.789 217.405 313.731 216.735C313.641 215.353 313.14 214.029 312.291 212.935C310.566 211.031 308.433 209.54 306.051 208.575L306.151 208.795C306.459 207.474 306.446 206.098 306.114 204.783C305.781 203.468 305.139 202.252 304.24 201.236C303.342 200.22 302.213 199.433 300.948 198.943C299.684 198.452 298.32 198.271 296.972 198.415L297.172 198.635C297.354 197.573 297.309 196.485 297.04 195.443C296.771 194.4 296.285 193.426 295.612 192.585C294.939 191.744 294.096 191.055 293.137 190.564C292.179 190.072 291.127 189.79 290.052 189.735L290.212 189.915C290.182 188.826 289.905 187.758 289.403 186.791C288.901 185.825 288.186 184.985 287.312 184.335C286.566 183.735 285.707 183.292 284.786 183.034C283.864 182.776 282.9 182.709 281.952 182.835L282.112 182.975C282.047 181.811 281.689 180.683 281.072 179.695C280.538 178.805 279.862 178.008 279.072 177.335C277.862 176.237 276.321 175.575 274.692 175.455H274.212H273.772C273.499 175.432 273.225 175.432 272.952 175.455C272.54 175.547 272.132 175.661 271.732 175.795L271.012 176.115H270.792C270.792 176.115 270.792 176.115 271.032 176.115L271.752 175.855C272.072 175.715 272.492 175.675 272.972 175.535C273.238 175.513 273.506 175.513 273.772 175.535H274.212H274.692C276.288 175.713 277.779 176.416 278.932 177.535C279.692 178.182 280.328 178.961 280.812 179.835C281.398 180.797 281.735 181.89 281.792 183.015V183.155H281.932C282.843 183.037 283.768 183.106 284.652 183.357C285.535 183.608 286.358 184.036 287.072 184.615C287.902 185.242 288.58 186.047 289.058 186.972C289.535 187.896 289.8 188.915 289.832 189.955V190.115H289.992C291.014 190.176 292.012 190.452 292.921 190.925C293.83 191.398 294.629 192.056 295.266 192.858C295.904 193.66 296.366 194.586 296.622 195.578C296.878 196.57 296.922 197.605 296.752 198.615V198.855H297.012C298.311 198.708 299.627 198.877 300.847 199.348C302.068 199.818 303.156 200.577 304.02 201.559C304.884 202.541 305.498 203.717 305.81 204.987C306.122 206.258 306.123 207.584 305.811 208.855V208.995H305.951C308.239 209.95 310.287 211.398 311.951 213.235C312.758 214.27 313.232 215.525 313.311 216.835C313.375 217.453 313.306 218.078 313.109 218.668C312.913 219.257 312.593 219.798 312.171 220.255L312.011 220.395L312.191 220.535C314.359 221.926 316.13 223.856 317.331 226.135C317.788 227.256 317.913 228.485 317.691 229.675C317.594 230.246 317.379 230.79 317.058 231.272C316.738 231.754 316.32 232.164 315.831 232.475L315.611 232.615L315.811 232.775C317.046 233.707 318.161 234.789 319.131 235.995C320.026 237.132 320.493 238.548 320.451 239.995C320.465 240.662 320.282 241.319 319.927 241.884C319.572 242.449 319.059 242.898 318.451 243.175C317.874 243.437 317.226 243.499 316.61 243.35C315.994 243.202 315.445 242.851 315.051 242.355V242.215L314.931 242.315C314.094 242.952 313.106 243.363 312.064 243.508C311.021 243.652 309.959 243.525 308.98 243.139C308 242.753 307.137 242.121 306.474 241.304C305.81 240.487 305.368 239.512 305.191 238.475V238.335H305.071C304.383 238.67 303.648 238.899 302.891 239.015C302.23 239.124 301.561 239.177 300.891 239.175C299.822 239.185 298.761 238.981 297.772 238.575C297.156 238.324 296.637 237.883 296.292 237.315C296.144 237.146 296.011 236.965 295.892 236.775Z" fill="#455A64"/>
<path d="M344.631 223.115C344.816 222.871 344.977 222.61 345.111 222.335C345.501 221.54 345.732 220.678 345.791 219.795C345.895 218.38 345.522 216.972 344.731 215.795C344.21 215.007 343.529 214.336 342.734 213.827C341.938 213.317 341.045 212.979 340.111 212.835V212.995C340.547 210.817 340.132 208.556 338.951 206.675C338.325 205.614 337.471 204.705 336.451 204.015C335.341 203.35 334.169 202.794 332.951 202.355C332.355 202.107 331.797 201.777 331.291 201.375C330.784 200.943 330.381 200.403 330.111 199.795C329.551 198.575 329.371 197.115 328.651 195.795C327.882 194.449 326.729 193.363 325.34 192.676C323.95 191.988 322.388 191.73 320.851 191.935L321.071 192.155C321.293 190.601 321.155 189.017 320.668 187.524C320.181 186.032 319.358 184.671 318.263 183.547C317.168 182.422 315.829 181.564 314.35 181.039C312.871 180.513 311.291 180.334 309.731 180.515L309.951 180.735C310.137 179.027 309.83 177.302 309.066 175.763C308.303 174.224 307.115 172.936 305.643 172.05C304.171 171.165 302.476 170.719 300.758 170.766C299.041 170.813 297.373 171.35 295.952 172.315H296.332C295.063 171.092 293.54 170.163 291.872 169.595C290.394 169.033 288.846 168.677 287.272 168.535C284.735 168.249 282.169 168.419 279.692 169.035C278.103 169.423 276.584 170.057 275.192 170.915C274.83 171.139 274.482 171.386 274.152 171.655L273.812 171.955C273.812 171.955 274.292 171.575 275.232 170.995C276.633 170.177 278.15 169.577 279.732 169.215C282.195 168.64 284.74 168.497 287.252 168.795C288.797 168.957 290.316 169.313 291.772 169.855C293.393 170.438 294.872 171.358 296.112 172.555H296.232C297.59 171.636 299.183 171.122 300.823 171.075C302.463 171.027 304.082 171.448 305.492 172.287C306.902 173.126 308.043 174.349 308.784 175.813C309.524 177.277 309.832 178.922 309.671 180.555V180.795H309.911C311.412 180.621 312.933 180.793 314.356 181.299C315.78 181.805 317.068 182.63 318.123 183.712C319.178 184.794 319.97 186.103 320.44 187.539C320.909 188.975 321.043 190.499 320.831 191.995V192.415H321.071C322.496 192.24 323.941 192.483 325.23 193.116C326.52 193.748 327.597 194.741 328.331 195.975C329.011 197.215 329.191 198.655 329.791 199.975C330.075 200.631 330.506 201.212 331.051 201.675C331.597 202.097 332.195 202.446 332.831 202.715C334.024 203.143 335.175 203.678 336.271 204.315C337.26 204.982 338.092 205.855 338.711 206.875C339.819 208.665 340.232 210.8 339.871 212.875V213.015H340.011C340.915 213.143 341.782 213.458 342.556 213.94C343.331 214.422 343.997 215.061 344.511 215.815C345.282 216.964 345.661 218.332 345.591 219.715C345.552 220.579 345.349 221.427 344.991 222.215C344.791 222.835 344.611 223.095 344.631 223.115Z" fill="#455A64"/>
<path d="M222.332 226.555C222.408 226.392 222.447 226.214 222.447 226.035C222.447 225.855 222.408 225.678 222.332 225.515C222.185 225.101 221.93 224.735 221.592 224.455C221.126 224.083 220.588 223.811 220.012 223.655C219.308 223.475 218.634 223.192 218.012 222.815C217.334 222.316 216.83 221.616 216.572 220.815C216.279 219.864 216.17 218.866 216.252 217.875C216.252 216.815 216.452 215.715 216.452 214.515C216.208 211.941 215.664 209.403 214.832 206.955C214.498 205.573 214.444 204.138 214.672 202.735C214.771 202.001 215.03 201.298 215.431 200.676C215.832 200.054 216.365 199.528 216.992 199.135C218.417 198.444 219.922 197.933 221.472 197.615C222.287 197.395 223.059 197.036 223.752 196.555C224.458 196.042 225.017 195.352 225.372 194.555C226.005 192.928 226.461 191.239 226.732 189.515C226.893 188.666 227.19 187.849 227.612 187.095C228.045 186.354 228.704 185.772 229.492 185.435C230.646 185.121 231.836 184.96 233.032 184.955C233.653 184.911 234.261 184.762 234.832 184.515C235.393 184.232 235.88 183.821 236.252 183.315C236.844 182.287 237.295 181.183 237.592 180.035C237.92 178.974 238.465 177.993 239.192 177.155C239.887 176.349 240.742 175.697 241.703 175.239C242.663 174.781 243.708 174.527 244.772 174.495C246.767 174.449 248.705 175.164 250.192 176.495L250.372 176.655V176.435C251.102 174.868 252.157 173.474 253.468 172.347C254.778 171.219 256.314 170.383 257.972 169.895C259.36 169.489 260.814 169.359 262.252 169.515C263.474 169.63 264.666 169.962 265.772 170.495C267.317 171.267 268.614 172.459 269.512 173.935C269.753 174.316 269.96 174.718 270.132 175.135L270.292 175.455V175.555C270.3 175.515 270.3 175.474 270.292 175.435L270.172 175.115C270.011 174.684 269.81 174.268 269.572 173.875C268.702 172.346 267.401 171.108 265.832 170.315C264.707 169.765 263.496 169.413 262.252 169.275C260.79 169.115 259.311 169.231 257.892 169.615C256.183 170.108 254.6 170.962 253.248 172.117C251.895 173.273 250.806 174.704 250.052 176.315H250.312C248.743 174.962 246.723 174.248 244.652 174.315C242.954 174.38 241.319 174.972 239.972 176.007C238.625 177.043 237.632 178.471 237.132 180.095C236.849 181.21 236.411 182.28 235.832 183.275C235.486 183.728 235.042 184.097 234.533 184.354C234.023 184.61 233.462 184.747 232.892 184.755C231.662 184.758 230.438 184.926 229.252 185.255C228.411 185.637 227.711 186.273 227.252 187.075C226.823 187.872 226.513 188.728 226.332 189.615C226.068 191.31 225.625 192.973 225.012 194.575C224.681 195.319 224.164 195.966 223.512 196.455C222.845 196.91 222.109 197.254 221.332 197.475C219.751 197.795 218.218 198.32 216.772 199.035C216.086 199.452 215.509 200.028 215.092 200.715C214.71 201.384 214.446 202.115 214.312 202.875C214.089 204.319 214.15 205.794 214.492 207.215C215.327 209.645 215.891 212.161 216.172 214.715C216.172 215.875 216.012 216.995 215.992 218.075C215.914 219.089 216.036 220.108 216.352 221.075C216.609 221.942 217.152 222.696 217.892 223.215C218.514 223.586 219.189 223.863 219.892 224.035C220.447 224.183 220.97 224.434 221.432 224.775C221.765 225.04 222.026 225.384 222.192 225.775C222.302 226.019 222.35 226.287 222.332 226.555Z" fill="#455A64"/>
<path d="M197.432 206.735C197.432 206.735 197.432 206.735 197.572 206.495L197.912 205.795L199.232 203.015C199.812 201.815 200.472 200.315 201.392 198.675C202.367 196.769 203.857 195.176 205.692 194.075C206.712 193.515 207.912 193.135 209.112 192.615C209.733 192.337 210.323 191.995 210.872 191.595C211.428 191.141 211.873 190.567 212.172 189.915C212.772 188.595 212.792 187.095 213.272 185.715C213.502 185.024 213.934 184.418 214.512 183.975C215.119 183.543 215.795 183.218 216.512 183.015C217.291 182.799 218.047 182.511 218.772 182.155C219.527 181.744 220.135 181.107 220.512 180.335C221.107 178.74 221.477 177.071 221.612 175.375C221.734 174.547 222.02 173.752 222.452 173.035C222.923 172.349 223.639 171.87 224.452 171.695C226.132 171.335 227.932 171.935 229.812 171.695C230.767 171.547 231.65 171.099 232.332 170.415C232.953 169.749 233.49 169.01 233.932 168.215C234.359 167.45 234.826 166.709 235.332 165.995C235.819 165.317 236.465 164.768 237.212 164.395C238.782 163.864 240.482 163.864 242.052 164.395C243.623 164.883 245.281 165.026 246.912 164.815C248.428 164.41 249.859 163.733 251.132 162.815C252.319 162.002 253.577 161.299 254.892 160.715C257.349 159.902 259.988 159.818 262.492 160.475C264.559 161.008 266.479 161.999 268.112 163.375C269.332 164.431 270.378 165.673 271.212 167.055C271.738 167.927 272.187 168.844 272.552 169.795C272.672 170.115 272.772 170.355 272.852 170.535C272.846 170.621 272.846 170.708 272.852 170.795C272.852 170.795 272.852 170.695 272.852 170.535C272.852 170.375 272.712 170.095 272.592 169.775C271.751 167.238 270.246 164.972 268.232 163.215C266.592 161.795 264.649 160.768 262.552 160.215C259.995 159.514 257.289 159.584 254.772 160.415C253.434 160.964 252.149 161.634 250.932 162.415C249.683 163.284 248.287 163.921 246.812 164.295C245.232 164.493 243.628 164.342 242.112 163.855C241.291 163.643 240.455 163.496 239.612 163.415C238.73 163.336 237.843 163.481 237.032 163.835C236.226 164.223 235.536 164.816 235.032 165.555C234.51 166.274 234.03 167.022 233.592 167.795C233.168 168.562 232.651 169.274 232.052 169.915C231.448 170.538 230.665 170.957 229.812 171.115C228.072 171.395 226.252 170.815 224.432 171.115C223.975 171.204 223.541 171.382 223.153 171.64C222.765 171.897 222.432 172.229 222.172 172.615C221.698 173.369 221.385 174.214 221.252 175.095C221.115 176.759 220.766 178.399 220.212 179.975C219.865 180.681 219.305 181.262 218.612 181.635C217.905 181.98 217.169 182.261 216.412 182.475C215.638 182.687 214.907 183.032 214.252 183.495C213.604 184.002 213.134 184.702 212.912 185.495C212.412 186.955 212.412 188.435 211.832 189.695C211.225 190.873 210.197 191.78 208.952 192.235C207.772 192.775 206.572 193.155 205.512 193.735C203.648 194.866 202.143 196.502 201.172 198.455C200.252 200.135 199.612 201.635 199.072 202.855L197.812 205.655C197.672 205.955 197.572 206.195 197.492 206.395L197.432 206.735Z" fill="#455A64"/>
<path d="M211.052 193.355H210.813C210.575 193.345 210.34 193.4 210.132 193.515C209.751 193.757 209.437 194.091 209.217 194.485C208.997 194.88 208.878 195.323 208.873 195.775C208.858 196.451 208.945 197.125 209.133 197.775C209.35 198.488 209.465 199.229 209.473 199.975C209.386 200.827 209.075 201.641 208.573 202.335C208.073 203.115 207.433 203.875 206.933 204.795C206.637 205.272 206.455 205.81 206.4 206.368C206.344 206.926 206.417 207.489 206.613 208.015C207.013 209.095 207.813 210.015 208.193 211.115C208.529 212.289 208.408 213.547 207.853 214.635C207.353 215.815 206.633 216.935 206.153 218.235C205.893 218.871 205.75 219.548 205.733 220.235C205.74 220.968 205.903 221.69 206.213 222.355C206.916 223.645 207.732 224.87 208.653 226.015C209.587 227.132 210.066 228.56 209.993 230.015C209.659 231.513 209.141 232.964 208.453 234.335C208.152 235.086 207.989 235.886 207.973 236.695C207.999 237.497 208.204 238.282 208.573 238.995C209.352 240.303 210.278 241.517 211.332 242.615C212.324 243.651 213.088 244.885 213.572 246.235C213.93 247.594 214.371 248.93 214.892 250.235C215.205 250.862 215.648 251.414 216.192 251.855C216.746 252.242 217.362 252.533 218.012 252.715C218.612 252.935 219.232 253.095 219.772 253.355C220.31 253.618 220.808 253.954 221.252 254.355C222.037 255.176 222.71 256.097 223.252 257.095C223.832 258.055 224.392 258.995 224.992 259.835C226.09 261.377 227.653 262.526 229.452 263.115C230.799 263.555 232.226 263.692 233.632 263.515C234.518 263.399 235.381 263.149 236.192 262.775C236.467 262.637 236.734 262.483 236.992 262.315C235.934 262.853 234.79 263.205 233.612 263.355C232.263 263.495 230.899 263.345 229.612 262.915C227.868 262.314 226.357 261.181 225.292 259.675C224.712 258.835 224.172 257.915 223.592 256.935C223.012 255.907 222.292 254.964 221.452 254.135C220.996 253.69 220.469 253.325 219.892 253.055C219.307 252.797 218.706 252.576 218.092 252.395C217.485 252.216 216.911 251.939 216.392 251.575C215.887 251.169 215.478 250.657 215.192 250.075C214.677 248.772 214.249 247.435 213.912 246.075C213.405 244.68 212.623 243.402 211.612 242.315C210.579 241.243 209.673 240.055 208.913 238.775C208.558 238.116 208.365 237.383 208.353 236.635C208.36 235.88 208.509 235.134 208.793 234.435C209.502 233.033 210.033 231.549 210.373 230.015C210.458 229.227 210.348 228.43 210.053 227.695C209.768 226.986 209.398 226.315 208.953 225.695C208.044 224.567 207.234 223.362 206.533 222.095C206.246 221.466 206.089 220.786 206.073 220.095C206.078 219.409 206.214 218.73 206.473 218.095C206.933 216.835 207.633 215.695 208.133 214.495C208.739 213.336 208.861 211.984 208.473 210.735C208.053 209.555 207.253 208.735 206.873 207.615C206.684 207.131 206.611 206.609 206.66 206.092C206.709 205.574 206.877 205.076 207.153 204.635C207.633 203.755 208.253 202.995 208.753 202.195C209.266 201.46 209.583 200.607 209.673 199.715C209.657 198.94 209.529 198.172 209.293 197.435C209.113 196.83 209.012 196.205 208.993 195.575C209.002 195.143 209.111 194.72 209.313 194.338C209.514 193.956 209.802 193.626 210.153 193.375C210.445 193.285 210.756 193.278 211.052 193.355Z" fill="#455A64"/>
<path d="M259.912 234.815C259.739 234.403 259.413 234.073 259.004 233.895C258.594 233.716 258.132 233.702 257.712 233.855L249.712 236.795L248.812 237.135C249.21 238.762 249.808 240.334 250.592 241.815C250.956 242.451 251.454 243 252.051 243.425C252.649 243.85 253.331 244.14 254.052 244.275C255.239 244.363 256.424 244.068 257.432 243.435C258.272 243.054 259.023 242.501 259.636 241.812C260.249 241.123 260.711 240.313 260.992 239.435C261.013 237.83 260.642 236.244 259.912 234.815Z" fill="#6F4439"/>
<path d="M303.451 234.695C304.178 234.94 304.855 235.313 305.451 235.795C307.066 237.077 308.172 238.892 308.571 240.915C308.888 242.297 308.888 243.733 308.571 245.115C308.089 246.759 307.22 248.263 306.037 249.502C304.854 250.74 303.391 251.678 301.771 252.235C299.928 252.855 297.939 252.897 296.071 252.355C294.198 251.849 292.506 250.822 291.191 249.395C289.966 248.056 289.16 246.387 288.871 244.595C288.614 243.097 288.705 241.559 289.139 240.102C289.572 238.646 290.336 237.308 291.371 236.195C292.207 235.376 293.2 234.736 294.291 234.315C295.095 233.975 295.944 233.752 296.811 233.655C297.361 233.567 297.921 233.567 298.471 233.655C298.656 233.692 298.836 233.746 299.011 233.815C298.288 233.707 297.554 233.707 296.831 233.815C295.99 233.948 295.17 234.19 294.391 234.535C293.364 234.987 292.428 235.624 291.631 236.415C290.654 237.5 289.937 238.793 289.535 240.197C289.133 241.6 289.056 243.077 289.311 244.515C289.605 246.206 290.383 247.776 291.551 249.035C292.806 250.392 294.412 251.375 296.191 251.875C297.967 252.383 299.855 252.348 301.611 251.775C303.248 251.22 304.719 250.265 305.891 248.995C306.952 247.857 307.732 246.487 308.171 244.995C308.527 243.691 308.581 242.323 308.331 240.995C307.976 239.036 306.951 237.261 305.431 235.975C304.802 235.503 304.14 235.075 303.451 234.695Z" fill="#E0E0E0"/>
<path d="M261.032 218.195C260.988 218.917 261.229 219.628 261.704 220.175C262.179 220.721 262.85 221.058 263.572 221.115C263.924 221.159 264.283 221.133 264.625 221.036C264.967 220.94 265.286 220.776 265.564 220.554C265.842 220.332 266.073 220.057 266.242 219.744C266.412 219.432 266.517 219.089 266.552 218.735C266.585 218.012 266.337 217.303 265.86 216.759C265.383 216.214 264.713 215.876 263.992 215.815C263.64 215.773 263.285 215.802 262.945 215.9C262.605 215.997 262.288 216.162 262.012 216.383C261.736 216.605 261.508 216.879 261.339 217.19C261.171 217.501 261.066 217.843 261.032 218.195Z" fill="#263238"/>
<path d="M234.332 217.515C234.293 218.236 234.536 218.944 235.01 219.489C235.485 220.034 236.152 220.374 236.872 220.435C237.224 220.476 237.581 220.448 237.923 220.35C238.264 220.253 238.582 220.089 238.859 219.867C239.136 219.646 239.367 219.372 239.537 219.061C239.708 218.75 239.815 218.408 239.852 218.055C239.891 217.33 239.645 216.619 239.166 216.074C238.688 215.528 238.015 215.191 237.292 215.135C236.94 215.09 236.583 215.117 236.242 215.214C235.901 215.31 235.583 215.474 235.307 215.697C235.031 215.919 234.802 216.194 234.635 216.507C234.467 216.819 234.364 217.162 234.332 217.515Z" fill="#263238"/>
<path d="M235.452 207.295C235.712 207.715 237.852 206.275 240.572 206.575C243.292 206.875 245.092 208.575 245.432 208.315C245.772 208.055 245.432 207.435 244.592 206.615C243.586 205.538 242.219 204.869 240.752 204.735C239.293 204.589 237.829 204.957 236.612 205.775C235.692 206.415 235.312 207.095 235.452 207.295Z" fill="#263238"/>
<path d="M261.512 209.535C261.892 209.955 264.212 208.155 267.512 208.175C270.812 208.195 273.192 209.975 273.512 209.555C273.832 209.135 273.312 208.595 272.272 207.775C270.895 206.717 269.208 206.144 267.472 206.144C265.736 206.144 264.049 206.717 262.672 207.775C261.672 208.575 261.332 209.335 261.512 209.535Z" fill="#263238"/>
<path d="M252.212 243.275C252.438 243.573 252.742 243.801 253.092 243.935C254.038 244.312 255.077 244.396 256.072 244.175C257.568 243.902 258.955 243.208 260.072 242.175C260.734 241.524 261.198 240.699 261.412 239.795C261.631 238.847 261.631 237.862 261.412 236.915C261.178 236.004 260.836 235.124 260.392 234.295C260.284 234.042 260.126 233.813 259.926 233.624C259.727 233.435 259.49 233.289 259.232 233.195C258.738 233.113 258.232 233.198 257.792 233.435L253.792 235.035C252.533 235.453 251.331 236.024 250.212 236.735C251.514 236.496 252.788 236.12 254.012 235.615L258.012 234.175C258.832 233.835 259.212 233.895 259.592 234.675C259.975 235.457 260.283 236.274 260.512 237.115C260.76 237.886 260.798 238.71 260.622 239.5C260.446 240.291 260.063 241.021 259.512 241.615C258.554 242.584 257.351 243.275 256.032 243.615C255.141 243.856 254.202 243.856 253.312 243.615C252.592 243.435 252.332 243.215 252.212 243.275Z" fill="#263238"/>
<path d="M198.773 153.935C199.851 153.125 201.027 152.453 202.273 151.935C203.738 151.363 205.3 151.084 206.873 151.115C208.942 151.134 210.968 151.714 212.733 152.795L212.993 152.975L213.173 152.695C214.608 150.346 216.905 148.652 219.573 147.975C221.086 147.539 222.678 147.442 224.233 147.691C225.789 147.94 227.27 148.528 228.572 149.415L228.912 149.655L229.152 149.315C231.811 145.783 235.73 143.412 240.092 142.695C243.5 142.126 247.001 142.651 250.092 144.195C252.924 145.568 255.324 147.692 257.032 150.335V150.515H257.252C260.831 150.654 264.343 151.526 267.572 153.075C270.094 154.277 272.415 155.863 274.452 157.775C276.197 159.513 277.771 161.415 279.152 163.455C279.152 163.455 279.152 163.295 278.952 162.995C278.752 162.695 278.572 162.255 278.232 161.735C277.243 160.177 276.082 158.735 274.772 157.435C272.745 155.428 270.409 153.76 267.852 152.495C264.559 150.84 260.954 149.9 257.272 149.735L257.592 149.915C255.829 147.111 253.313 144.859 250.332 143.415C247.097 141.785 243.427 141.224 239.852 141.815C235.272 142.583 231.166 145.091 228.392 148.815H228.972C227.567 147.863 225.967 147.236 224.29 146.98C222.612 146.724 220.898 146.845 219.273 147.335C216.433 148.086 214.004 149.925 212.513 152.455L212.953 152.335C211.085 151.224 208.945 150.656 206.773 150.695C205.143 150.696 203.53 151.03 202.033 151.675C201.092 152.088 200.21 152.626 199.413 153.275C199.172 153.467 198.957 153.688 198.773 153.935Z" fill="#263238"/>
<path d="M285.471 149.475C286.471 149.956 287.562 150.215 288.671 150.235C290.203 150.318 291.737 150.095 293.182 149.58C294.628 149.065 295.956 148.268 297.091 147.235C298.659 145.74 299.746 143.811 300.211 141.695C300.739 139.246 300.487 136.693 299.491 134.395C298.34 131.833 296.239 129.818 293.631 128.775C290.804 127.624 287.639 127.624 284.811 128.775L285.311 128.895C284.077 127.454 282.38 126.485 280.511 126.155C278.944 125.854 277.325 125.993 275.831 126.555C274.388 127.136 273.154 128.14 272.291 129.435C271.467 130.639 270.968 132.036 270.842 133.49C270.716 134.944 270.967 136.406 271.571 137.735L272.131 137.215C271.129 136.657 270.006 136.353 268.859 136.329C267.712 136.304 266.577 136.56 265.551 137.075C264.595 137.507 263.744 138.14 263.053 138.93C262.363 139.72 261.851 140.649 261.552 141.655C261.107 143.276 261.11 144.988 261.56 146.608C262.011 148.229 262.893 149.696 264.111 150.855C265.681 152.341 267.634 153.359 269.751 153.795C270.306 153.906 270.867 153.98 271.431 154.015H272.031C272.031 154.015 271.231 154.015 269.811 153.555C267.79 153.037 265.941 151.995 264.451 150.535C263.34 149.422 262.546 148.033 262.152 146.51C261.758 144.987 261.779 143.387 262.211 141.875C262.49 140.995 262.951 140.184 263.565 139.495C264.178 138.806 264.93 138.254 265.771 137.875C266.682 137.42 267.691 137.195 268.709 137.219C269.727 137.244 270.723 137.517 271.611 138.015L272.791 138.715L272.191 137.495C271.663 136.288 271.451 134.966 271.573 133.654C271.696 132.343 272.149 131.083 272.891 129.995C273.668 128.852 274.769 127.968 276.051 127.455C277.385 126.953 278.834 126.835 280.231 127.115C281.913 127.397 283.441 128.261 284.551 129.555L284.751 129.795L285.051 129.675C287.666 128.603 290.597 128.603 293.211 129.675C295.644 130.62 297.61 132.479 298.691 134.855C299.648 137.001 299.907 139.394 299.431 141.695C299.034 143.694 298.045 145.527 296.591 146.955C294.428 148.987 291.559 150.098 288.591 150.055C287.535 149.961 286.49 149.767 285.471 149.475Z" fill="#263238"/>
<path d="M346.331 182.735C346.433 182.58 346.514 182.412 346.571 182.235C346.772 181.754 346.939 181.259 347.071 180.755C347.54 178.828 347.588 176.822 347.211 174.875C346.642 171.86 345.061 169.13 342.731 167.135C341.248 165.882 339.526 164.945 337.669 164.381C335.812 163.817 333.859 163.638 331.931 163.855L332.371 164.075C330.561 160.425 327.503 157.544 323.751 155.955C320.914 154.776 317.803 154.416 314.771 154.915C312.009 155.368 309.404 156.502 307.191 158.215H307.611C304.811 156.73 301.68 155.98 298.511 156.035C296.06 156.065 293.637 156.56 291.371 157.495C289.937 158.097 288.592 158.891 287.371 159.855C286.919 160.183 286.51 160.566 286.151 160.995C287.845 159.754 289.686 158.726 291.631 157.935C293.855 157.097 296.215 156.677 298.591 156.695C301.637 156.684 304.636 157.44 307.311 158.895L307.531 159.015L307.751 158.855C309.879 157.26 312.364 156.21 314.991 155.795C317.862 155.331 320.806 155.678 323.491 156.795C327.052 158.296 329.96 161.02 331.691 164.475L331.831 164.755H332.131C333.949 164.54 335.791 164.695 337.547 165.211C339.303 165.727 340.937 166.592 342.351 167.755C344.601 169.624 346.158 172.195 346.771 175.055C347.159 176.942 347.159 178.888 346.771 180.775C346.511 182.015 346.231 182.715 346.331 182.735Z" fill="#263238"/>
<path d="M118.514 419.895L125.734 408.995L137.293 403.195L137.733 402.875C139.599 401.521 141.742 400.599 144.008 400.177C146.274 399.755 148.606 399.843 150.833 400.435C155.553 401.695 161.833 403.255 167.293 404.195L179.733 400.775V425.075L116.954 421.075L118.514 419.895Z" fill="#AE7461"/>
<path d="M118.953 419.235C119.749 418.333 120.641 417.522 121.613 416.815C123.313 415.395 125.613 413.475 128.353 411.395L130.833 409.395C133.413 408.915 135.653 408.535 137.253 408.275C138.093 408.087 138.952 408 139.813 408.015C139.025 408.376 138.19 408.625 137.333 408.755C135.773 409.135 133.553 409.615 130.993 410.135H131.153L128.673 412.135C126.013 414.135 123.573 416.135 121.793 417.375C120.914 418.092 119.962 418.716 118.953 419.235Z" fill="#6F4439"/>
<path d="M123.853 421.355C126.719 419.311 129.734 417.485 132.873 415.895L135.073 414.695C137.732 414.43 140.407 414.383 143.073 414.555C140.434 415.061 137.759 415.355 135.073 415.435H135.233L133.033 416.655C130.086 418.433 127.019 420.004 123.853 421.355Z" fill="#6F4439"/>
<path d="M45.4545 351.175C46.4677 350.601 47.6563 350.418 48.7951 350.661C49.934 350.905 50.9441 351.557 51.6344 352.495L102.194 420.975L182.193 422.055C185.373 422.255 189.253 428.715 186.393 431.835L96.0539 430.595L43.8945 358.135C43.5023 357.587 43.2302 356.963 43.096 356.303C42.9619 355.643 42.9686 354.963 43.1159 354.305C43.2632 353.648 43.5477 353.03 43.9507 352.49C44.3537 351.951 44.8662 351.502 45.4545 351.175Z" fill="#37474F"/>
<path d="M287.812 271.855C292.794 272.638 297.454 274.815 301.251 278.135C306.147 283.109 309.829 289.145 312.011 295.775C314.691 303.775 313.491 335.395 313.491 344.555C313.491 353.715 311.151 388.115 310.011 393.835C308.871 399.555 310.751 408.075 313.391 413.595C318.151 423.595 310.731 428.615 310.731 428.615L212.572 427.895L212.952 424.215C213.632 417.835 211.252 411.355 213.692 405.415C217.297 396.712 218.844 387.294 218.212 377.895C216.952 361.535 212.072 350.375 215.072 340.895C219.652 326.415 234.772 293.495 253.072 279.435C253.072 279.435 267.472 276.355 270.732 275.215C278.112 272.615 282.032 271.215 287.812 271.855Z" fill="#0008CB"/>
<path d="M172.333 397.955L256.332 380.415L258.332 307.635C258.332 307.635 261.272 277.975 276.132 275.215L311.931 319.775C309.931 342.235 311.751 384.735 301.431 401.115C291.111 417.495 281.072 430.635 255.652 429.475C230.232 428.315 174.233 427.775 174.233 427.775L172.333 397.955Z" fill="#0008CB"/>
<path d="M256.092 380.735C255.892 380.895 257.892 383.515 259.592 387.175C261.291 390.835 262.031 394.055 262.271 393.995C262.179 391.477 261.494 389.017 260.272 386.815C259.357 384.497 257.928 382.418 256.092 380.735Z" fill="#263238"/>
<g opacity="0.3">
<path d="M258.992 304.515C250.612 330.275 252.432 369.955 236.452 384.515L256.332 380.415C255.954 375.758 255.901 371.08 256.172 366.415C257.772 346.055 257.972 325.355 259.072 304.415" fill="black"/>
</g>
<path d="M260.852 295.335C260.239 297.248 259.751 299.199 259.392 301.175C258.914 303.568 258.561 305.985 258.332 308.415C258.052 311.275 258.012 314.575 257.872 318.275C257.392 333.135 256.712 354.475 255.872 380.455L256.152 380.135L172.153 397.575H171.793V397.935C172.393 407.475 173.053 417.515 173.793 427.735V428.135H174.333L184.533 428.255C199.113 428.435 213.332 428.655 227.072 428.955C233.952 429.088 240.692 429.268 247.292 429.495C253.872 429.655 260.412 430.275 266.732 429.295C269.85 428.849 272.909 428.058 275.852 426.935C278.682 425.788 281.368 424.312 283.852 422.535C288.494 419.012 292.544 414.772 295.852 409.975C297.472 407.675 299.031 405.375 300.471 403.095L301.571 401.375C301.911 400.795 302.211 400.195 302.531 399.595L303.471 397.815L304.191 395.975C305.959 391.271 307.213 386.389 307.931 381.415C309.248 372.91 310.07 364.335 310.391 355.735C310.771 348.155 310.951 341.635 311.131 336.295C311.311 330.955 311.491 326.815 311.631 323.995C311.631 322.615 311.791 321.555 311.831 320.815C311.871 320.075 311.831 319.715 311.831 319.715C311.831 319.715 311.831 320.075 311.711 320.795C311.591 321.515 311.551 322.615 311.431 323.995C311.231 326.795 310.971 330.935 310.751 336.275C310.531 341.615 310.311 348.135 309.871 355.715C309.503 364.29 308.649 372.837 307.311 381.315C306.571 386.241 305.311 391.075 303.551 395.735L302.831 397.555L301.911 399.275C301.591 399.855 301.291 400.455 300.951 401.015L299.871 402.715C298.411 404.995 296.872 407.275 295.232 409.555C291.922 414.299 287.87 418.479 283.232 421.935C280.746 423.682 278.06 425.126 275.232 426.235C272.345 427.322 269.347 428.086 266.292 428.515C260.072 429.475 253.612 428.855 246.992 428.675C240.372 428.495 233.632 428.275 226.752 428.115C213.013 427.815 198.753 427.575 184.193 427.395H173.993L174.413 427.775C173.753 417.555 173.093 407.515 172.413 397.975L172.093 398.415L256.332 380.795H256.612V380.415C257.332 354.415 257.912 333.095 258.312 318.235C258.432 314.535 258.432 311.215 258.672 308.375C258.912 305.535 259.252 303.115 259.592 301.175C259.932 299.235 260.292 297.775 260.532 296.795C260.532 296.315 260.732 295.955 260.792 295.675C260.852 295.395 260.852 295.335 260.852 295.335Z" fill="#263238"/>
<path d="M126.233 576.695L138.673 668.435L106.094 673.775L82.934 592.375L126.233 576.695Z" fill="#AE7461"/>
<path d="M224.992 435.715C224.992 435.715 105.934 427.895 81.2139 431.835C66.2741 434.215 53.3942 457.555 61.5341 471.595C65.3941 478.235 71.534 498.915 71.534 498.915L135.533 484.315L224.992 435.715Z" fill="#455A64"/>
<path d="M135.454 498.915L161.233 538.255L130.894 557.915L97.9742 507.455L135.454 498.915Z" fill="#AE7461"/>
<path d="M308.331 428.515C308.331 428.515 320.911 483.975 300.611 505.775C286.131 521.315 250.612 519.675 220.612 519.675C190.273 519.675 120.193 518.015 120.193 518.015C120.193 518.015 123.373 537.515 125.693 559.715C128.013 581.915 128.513 595.955 128.513 595.955L83.8539 599.675C83.8539 599.675 58.9742 523.955 55.1542 508.955C51.3343 493.955 52.6142 473.815 65.8541 466.335C77.0539 460.015 165.513 435.475 207.852 431.835L212.452 427.835L308.331 428.515Z" fill="#455A64"/>
<path d="M98.4739 499.795C98.4739 499.935 100.194 500.195 102.854 501.135C104.396 501.669 105.889 502.338 107.314 503.135C109.044 504.148 110.672 505.327 112.174 506.655C113.642 508.022 114.981 509.522 116.174 511.135C117.137 512.471 117.981 513.89 118.694 515.375C119.914 517.915 120.334 519.635 120.494 519.595C120.503 519.196 120.449 518.797 120.334 518.415C120.075 517.306 119.72 516.222 119.274 515.175C118.607 513.625 117.79 512.145 116.834 510.755C114.481 507.325 111.349 504.501 107.694 502.515C106.217 501.681 104.655 501.011 103.034 500.515C101.952 500.166 100.841 499.919 99.7139 499.775C99.3027 499.707 98.8827 499.714 98.4739 499.795Z" fill="#263238"/>
<path d="M103.773 454.055C103.308 452.371 102.505 450.799 101.413 449.435C100.553 447.914 99.3808 446.591 97.9735 445.555C98.7167 447.108 99.636 448.571 100.713 449.915C101.566 451.411 102.593 452.801 103.773 454.055Z" fill="#263238"/>
<path d="M53.3945 487.875C53.4582 487.743 53.4988 487.601 53.5145 487.455C53.5145 487.115 53.6945 486.695 53.8345 486.175C54.0945 485.055 54.4945 483.415 55.1745 481.355C55.9637 478.841 57.0232 476.42 58.3344 474.135C59.9906 471.074 62.4985 468.559 65.5543 466.895C73.9036 463.246 82.4978 460.185 91.274 457.735C101.154 454.795 112.054 451.735 123.534 448.615C146.533 442.515 167.633 438.135 183.013 435.595C190.693 434.295 197.013 433.415 201.273 432.795L206.233 432.135L207.533 431.935C207.682 431.916 207.83 431.882 207.973 431.835H207.513H206.213L201.233 432.355C196.893 432.855 190.633 433.655 182.913 434.875C162.849 438.131 142.964 442.403 123.334 447.675C111.814 450.715 100.914 453.875 91.054 456.875C82.2392 459.42 73.6228 462.609 65.2743 466.415C62.148 468.163 59.5978 470.783 57.9344 473.955C56.628 476.281 55.5945 478.751 54.8544 481.315C54.2345 483.415 53.8745 485.075 53.6545 486.195C53.6545 486.735 53.4945 487.155 53.4345 487.495C53.4046 487.619 53.3911 487.747 53.3945 487.875Z" fill="#263238"/>
<path d="M103.574 671.395L102.494 667.395C115.856 666.265 128.49 660.826 138.493 651.895L149.533 675.755L75.9341 708.495C73.0941 701.475 103.574 671.395 103.574 671.395Z" fill="#263238"/>
<path d="M149.473 675.775L146.773 669.955L77.074 703.575C77.074 703.575 74.434 706.435 75.874 708.515L149.473 675.775Z" fill="#E0E0E0"/>
<path d="M104.554 670.935C104.734 671.275 106.554 670.635 108.894 670.935C111.234 671.235 112.894 672.335 113.094 672.035C113.294 671.735 111.874 670.035 109.094 669.615C106.314 669.195 104.334 670.635 104.554 670.935Z" fill="#E0E0E0"/>
<path d="M133.193 668.415C133.451 668.911 133.889 669.29 134.417 669.472C134.946 669.655 135.524 669.627 136.033 669.395C136.287 669.288 136.516 669.129 136.706 668.929C136.896 668.729 137.042 668.493 137.136 668.233C137.23 667.974 137.269 667.698 137.252 667.423C137.234 667.148 137.16 666.88 137.033 666.635C136.783 666.131 136.345 665.746 135.814 665.563C135.283 665.379 134.7 665.412 134.193 665.655C133.939 665.762 133.71 665.92 133.52 666.12C133.33 666.32 133.184 666.557 133.09 666.816C132.996 667.075 132.957 667.351 132.975 667.626C132.992 667.901 133.067 668.17 133.193 668.415Z" fill="#E0E0E0"/>
<path d="M104.994 670.415C105.568 670.425 106.139 670.323 106.674 670.115C108.219 669.762 109.641 669.003 110.794 667.915C111.167 667.531 111.489 667.101 111.754 666.635C112.091 666.132 112.303 665.556 112.374 664.955C112.403 664.567 112.306 664.18 112.097 663.852C111.888 663.524 111.578 663.272 111.214 663.135C110.857 662.997 110.475 662.934 110.093 662.952C109.711 662.969 109.337 663.065 108.994 663.235C107.633 663.888 106.478 664.904 105.656 666.17C104.834 667.437 104.376 668.906 104.334 670.415L105.434 670.255C105.246 669.684 104.998 669.134 104.694 668.615C103.885 667.217 102.716 666.06 101.309 665.265C99.9028 664.471 98.3093 664.067 96.6939 664.095C96.2674 664.075 95.8423 664.157 95.454 664.335C95.2406 664.441 95.0552 664.596 94.9128 664.787C94.7704 664.978 94.6748 665.2 94.634 665.435C94.5743 665.805 94.5896 666.183 94.6789 666.548C94.7682 666.912 94.9298 667.254 95.154 667.555C95.8615 668.56 96.8392 669.343 97.974 669.815C99.5814 670.448 101.311 670.708 103.034 670.575C103.652 670.613 104.272 670.559 104.874 670.415C104.284 670.235 103.67 670.148 103.054 670.155C101.423 670.121 99.8141 669.775 98.314 669.135C97.3622 668.683 96.5426 667.995 95.934 667.135C95.6337 666.719 95.5048 666.203 95.574 665.695C95.574 665.295 96.034 665.155 96.714 665.155C98.128 665.154 99.5177 665.523 100.745 666.225C101.973 666.926 102.996 667.936 103.714 669.155C103.969 669.615 104.183 670.097 104.354 670.595C104.399 670.712 104.482 670.811 104.59 670.876C104.698 670.94 104.824 670.967 104.949 670.951C105.074 670.934 105.189 670.877 105.277 670.787C105.365 670.697 105.42 670.58 105.434 670.455C105.461 669.154 105.833 667.884 106.511 666.774C107.189 665.664 108.149 664.753 109.294 664.135C110.294 663.615 111.454 664.135 111.294 664.935C111.138 665.873 110.707 666.743 110.054 667.435C109.014 668.481 107.748 669.275 106.354 669.755C105.879 669.927 105.423 670.148 104.994 670.415Z" fill="#E0E0E0"/>
<path d="M98.914 676.035C100.54 676.017 102.166 676.131 103.774 676.375C105.318 676.905 106.811 677.575 108.234 678.375C107.175 676.986 105.676 676 103.981 675.578C102.287 675.157 100.5 675.325 98.914 676.055V676.035Z" fill="#E0E0E0"/>
<path d="M94.794 680.715C94.794 680.955 96.7939 680.895 99.1139 681.595C101.434 682.295 103.114 683.395 103.214 683.195C102.26 681.95 100.89 681.091 99.3539 680.775C97.8925 680.197 96.2701 680.176 94.794 680.715Z" fill="#E0E0E0"/>
<path d="M125.113 553.475L123.373 549.735C136.335 546.362 147.857 538.882 156.213 528.415L171.113 550.075L104.054 594.735C100.134 588.255 125.113 553.475 125.113 553.475Z" fill="#263238"/>
<path d="M171.113 550.075L167.473 544.775L104.334 589.675C104.334 589.675 102.334 592.915 103.974 594.735L171.113 550.075Z" fill="#E0E0E0"/>
<path d="M126.013 552.855C126.253 553.155 128.013 552.215 130.293 552.175C132.573 552.135 134.413 552.875 134.613 552.555C134.813 552.235 133.073 550.715 130.273 550.835C127.473 550.955 125.733 552.615 126.013 552.855Z" fill="white"/>
<path d="M153.813 545.515C154.148 545.962 154.644 546.263 155.196 546.352C155.748 546.442 156.314 546.314 156.773 545.995C157.004 545.846 157.202 545.652 157.354 545.424C157.507 545.195 157.611 544.938 157.66 544.668C157.708 544.398 157.701 544.12 157.638 543.853C157.575 543.586 157.458 543.335 157.293 543.115C156.961 542.664 156.466 542.36 155.914 542.267C155.362 542.173 154.795 542.298 154.333 542.615C154.099 542.763 153.899 542.959 153.744 543.189C153.59 543.418 153.485 543.678 153.436 543.951C153.387 544.223 153.395 544.503 153.46 544.772C153.525 545.042 153.645 545.294 153.813 545.515Z" fill="#E0E0E0"/>
<path d="M126.334 552.295C126.891 552.199 127.426 552.002 127.914 551.715C129.376 551.103 130.652 550.116 131.614 548.855C131.927 548.419 132.176 547.941 132.353 547.435C132.603 546.876 132.712 546.265 132.673 545.655C132.635 545.27 132.474 544.907 132.215 544.619C131.956 544.331 131.612 544.134 131.234 544.055C130.856 543.986 130.469 543.993 130.095 544.075C129.721 544.157 129.367 544.314 129.054 544.535C127.841 545.42 126.894 546.621 126.316 548.007C125.738 549.392 125.55 550.91 125.774 552.395L126.814 552.055C126.539 551.516 126.211 551.007 125.834 550.535C124.797 549.299 123.451 548.36 121.933 547.816C120.415 547.271 118.779 547.139 117.194 547.435C116.776 547.494 116.378 547.652 116.034 547.895C115.842 548.032 115.685 548.212 115.574 548.42C115.463 548.628 115.401 548.859 115.394 549.095C115.397 549.471 115.476 549.842 115.627 550.186C115.779 550.53 115.999 550.839 116.274 551.095C117.141 551.962 118.237 552.566 119.434 552.835C121.119 553.191 122.863 553.156 124.534 552.735C125.152 552.664 125.757 552.51 126.334 552.275C125.718 552.176 125.09 552.176 124.474 552.275C122.87 552.527 121.231 552.459 119.654 552.075C118.621 551.785 117.687 551.218 116.954 550.435C116.591 550.08 116.377 549.601 116.354 549.095C116.354 548.655 116.714 548.475 117.374 548.355C118.773 548.124 120.209 548.262 121.539 548.757C122.868 549.252 124.045 550.085 124.954 551.175C125.285 551.581 125.58 552.016 125.834 552.475C125.865 552.54 125.91 552.598 125.965 552.646C126.02 552.694 126.083 552.73 126.153 552.752C126.222 552.775 126.295 552.783 126.367 552.776C126.439 552.77 126.509 552.749 126.574 552.715C126.678 552.668 126.765 552.587 126.819 552.486C126.873 552.385 126.892 552.268 126.874 552.155C126.686 550.868 126.84 549.555 127.321 548.347C127.802 547.14 128.593 546.08 129.614 545.275C130.514 544.595 131.733 544.855 131.793 545.715C131.793 546.667 131.515 547.598 130.994 548.395C130.144 549.607 129.02 550.6 127.714 551.295C127.21 551.563 126.746 551.9 126.334 552.295Z" fill="white"/>
<path d="M121.314 558.835C122.91 558.537 124.53 558.376 126.154 558.355C127.766 558.616 129.352 559.017 130.894 559.555C129.617 558.363 127.972 557.643 126.23 557.512C124.489 557.381 122.754 557.848 121.314 558.835Z" fill="white"/>
<path d="M118.054 564.135C118.054 564.375 120.053 563.975 122.453 564.275C124.853 564.575 126.633 565.395 126.753 565.175C125.538 564.22 124.084 563.618 122.549 563.434C121.015 563.251 119.459 563.493 118.054 564.135Z" fill="white"/>
</svg>
