<svg width="43" height="55" viewBox="0 0 43 55" fill="none" xmlns="http://www.w3.org/2000/svg">
<path d="M31.3877 54.9759C28.5286 54.9759 26.4285 54.2548 25.0874 52.8126C23.7464 51.3703 23.0759 48.9793 23.0759 45.6393C23.0759 42.9826 23.5187 40.1234 24.4043 37.0618C25.3151 34.0002 26.7574 31.3814 28.731 29.2054C30.7299 27.0041 33.2601 25.9034 36.3217 25.9034C38.2194 25.9034 39.7502 26.3209 40.9141 27.1559C42.078 27.9909 42.66 29.2686 42.66 30.9892C42.66 32.0772 42.4449 32.9375 42.0148 33.57C41.5846 34.1773 40.9141 34.4809 40.0032 34.4809C39.0924 34.4809 38.3712 34.152 37.8399 33.4941C38.2953 33.2664 38.7002 32.811 39.0544 32.1278C39.4086 31.4446 39.5858 30.7362 39.5858 30.0024C39.5858 29.3192 39.396 28.7626 39.0164 28.3324C38.6622 27.9023 38.0802 27.6872 37.2706 27.6872C35.9295 27.6872 34.6518 28.6108 33.4372 30.4578C32.2227 32.2796 31.2359 34.5821 30.4769 37.3654C29.7431 40.1487 29.3762 42.8308 29.3762 45.4116C29.3762 47.3346 29.7051 48.8021 30.363 49.8142C31.0209 50.8263 32.2101 51.3324 33.9306 51.3324C35.4235 51.3324 36.8025 51.0034 38.0676 50.3456C39.3327 49.6877 40.4207 48.7515 41.3316 47.537L42.2046 47.9165C41.572 49.5106 40.6358 50.839 39.396 51.9017C38.1562 52.9644 36.8278 53.7488 35.4108 54.2548C33.9939 54.7356 32.6529 54.9759 31.3877 54.9759Z" fill="#222222"/>
<path d="M12.0124 44.0073C9.62127 44.0073 7.51484 43.5898 5.69306 42.7548C3.87128 41.9199 2.46699 40.7623 1.4802 39.2821C0.493399 37.7639 0 36.0181 0 34.0445C0 32.3745 0.341584 30.8564 1.02475 29.49C1.74587 28.1237 2.69472 27.042 3.87128 26.245C5.0858 25.448 6.41418 25.0494 7.85642 25.0494C9.1848 25.0494 10.3044 25.391 11.2153 26.0742C12.1262 26.7194 12.6955 27.6303 12.9232 28.8069C10.9497 28.8069 9.37457 29.3382 8.19801 30.4009C7.02144 31.4257 6.43316 32.83 6.43316 34.6138C6.43316 36.2458 6.92656 37.5552 7.91335 38.542C8.90015 39.5288 10.2096 40.0222 11.8416 40.0222C13.8531 40.0222 15.5041 39.358 16.7945 38.0296C18.1229 36.6633 18.7871 34.9554 18.7871 32.9059C18.7871 31.122 18.2937 29.4331 17.3069 27.839C16.3201 26.245 14.8399 24.3093 12.8663 22.0321C10.8168 19.679 9.26071 17.6674 8.19801 15.9975C7.17326 14.2896 6.66088 12.4298 6.66088 10.4183C6.66088 8.4447 7.21121 6.67985 8.31187 5.12375C9.41253 3.5297 10.9307 2.27722 12.8663 1.36634C14.802 0.455445 16.9843 0 19.4133 0C22.4876 0 24.9356 0.721121 26.7574 2.16336C28.6171 3.6056 29.547 5.54124 29.547 7.97028C29.547 9.56433 29.1485 10.8548 28.3514 11.8416C27.5544 12.8284 26.5107 13.3217 25.2203 13.3217C23.778 13.3217 22.6204 12.7335 21.7475 11.5569C22.4686 11.0255 23.0379 10.3234 23.4554 9.45047C23.8729 8.57754 24.0816 7.66665 24.0816 6.71781C24.0816 5.50329 23.7211 4.53547 23 3.81435C22.2788 3.09323 21.292 2.73267 20.0396 2.73267C18.5214 2.73267 17.269 3.283 16.2822 4.38365C15.3333 5.44636 14.8589 6.81269 14.8589 8.48265C14.8589 10.0008 15.2954 11.4241 16.1683 12.7524C17.0412 14.0429 18.4076 15.7128 20.2673 17.7623C21.7854 19.3943 23 20.7986 23.9109 21.9752C24.8597 23.1518 25.6567 24.5181 26.3019 26.0742C26.9851 27.5923 27.3267 29.2433 27.3267 31.0272C27.3267 33.4562 26.6435 35.6575 25.2772 37.6311C23.9488 39.6047 22.1081 41.1608 19.7549 42.2994C17.4397 43.438 14.8589 44.0073 12.0124 44.0073Z" fill="#222222"/>
</svg>
