<svg width="673" height="527" viewBox="0 0 673 527" fill="none" xmlns="http://www.w3.org/2000/svg">
<path d="M554.296 127.05C544.772 120.816 535.399 114.348 525.829 108.183C518.102 103.217 510.153 98.6225 502.31 93.8539C500.38 91.8894 497.612 91.3202 495.392 89.8751C493.3 88.5127 495.53 89.2966 493.037 88.6523C492.213 87.6055 491.018 87.5612 489.891 87.0974C489.54 86.9532 489.267 86.6489 488.909 86.5238C487.68 86.0939 487.14 86.3214 485.841 86.4698C484.204 86.0745 484.121 85.6849 485.17 84.2496C486.297 82.7068 487.451 81.1821 488.665 79.7061C489.087 79.1919 489.494 78.6201 490.071 78.2881C490.307 78.1512 490.609 78.384 490.878 78.432C493.227 81.1205 494.895 84.4686 496.667 87.5785C498.437 89.88 499.334 92.7901 501 95.141C501.926 96.4479 503.06 97.2659 504.269 98.2839C506.396 101.876 509.807 104.262 512.741 107.092C515.845 110.476 514.238 108.847 517.559 111.981C520.092 114.001 522.509 116.299 525.297 117.984C526.192 118.524 527.191 118.876 528.104 119.385C529.003 119.886 531.579 121.588 530.729 121.008C496.335 97.5571 461.887 74.1792 427.468 50.7674C727.908 255.215 419.184 45.1535 431.34 53.3364C467.48 77.6636 503.265 102.515 539.375 126.89C574.436 150.558 469.453 79.2586 434.482 55.4593C433.931 55.0841 435.563 56.2409 436.115 56.6157C472.197 81.1348 508.295 105.633 544.384 130.139C574.296 163.022 546.367 132.092 440.487 59.729C440.025 59.4136 441.438 60.3187 441.892 60.6446C443.942 62.1153 443.814 62.4724 446.393 63.2489C446.878 63.6621 447.296 64.1716 447.849 64.4884C448.481 64.8509 449.236 64.9469 449.896 65.2563C451.36 65.943 451.967 66.5589 453.343 67.3711C455.069 68.3899 455.413 68.4681 457.228 69.2416C458.854 70.1425 460.423 71.087 462.027 72.0087C462.511 72.2871 463.089 72.3964 463.544 72.7201C466.804 75.0371 462.03 72.5806 465.636 74.294C501.842 98.7556 538.184 123.013 574.253 147.677C575.079 148.242 575.195 150.456 575.126 151.125C574.661 155.634 571.521 159.06 568.757 162.363C567.482 163.181 566.327 164.226 564.932 164.816C561.648 166.203 551.37 164.297 547.67 163.861C540.614 163 533.558 162.291 526.495 161.483C520.727 161.178 514.995 160.611 509.255 160.004C506.916 159.152 504.424 158.856 502.033 158.226C499.879 157.66 497.778 156.816 495.626 156.218C492.356 155.436 488.939 154.866 485.79 153.642C485.112 153.378 484.482 153.003 483.828 152.683C483.096 152.399 482.364 152.115 481.632 151.832C478.388 150.36 474.87 149.322 471.76 147.557C469.791 146.44 467.981 145.061 466.081 143.831C419.881 118.507 377.176 87.1899 336.875 53.4446C327.514 46.1271 317.912 39.064 308.882 31.3377C270.976 6.93874 224.712 -25.9919 403.128 95.8998C403.71 96.2976 401.883 95.2225 401.329 94.7866C400.803 94.3731 400.382 93.8411 399.908 93.3684C398.792 92.9353 398.22 91.7273 397.199 91.1708C396.642 90.8673 395.985 90.7992 395.397 90.5602C393.489 89.7839 392.726 89.1915 390.597 88.7685C387.719 87.9123 385.683 87.3813 382.746 88.2059C381.222 88.3734 383.503 86.8203 383.74 87.4498C383.882 87.8256 383.75 88.2529 383.755 88.6545C383.851 89.0411 383.872 89.4538 384.041 89.8143C384.426 90.6374 385.123 91.2797 385.577 92.0669C386.974 94.4899 388.18 97.0427 389.456 99.5297C392.082 104.475 394.776 109.38 397.53 114.255C398.294 115.609 398.97 117.016 399.817 118.319C400.666 119.626 401.677 120.82 402.607 122.071C408.295 129.492 415.115 135.169 423.191 139.772C252.092 7.03973 294.543 56.4919 333.85 77.9891C336.877 78.9571 339.505 80.8759 342.407 82.0965C343.167 82.4159 347.239 83.6883 348.069 83.9517C353.64 85.7638 359.26 87.4324 364.911 88.9762C369.206 90.4108 373.733 91.0063 378.086 92.2593C379.217 92.0799 380.171 92.8486 381.245 92.9396C381.791 92.9859 382.337 92.8382 382.885 92.8135C384.587 92.7369 386.2 92.9062 387.881 93.1528C390.082 94.0125 392.626 93.6033 394.793 94.5055C397.707 95.7181 394.057 94.9296 397.431 95.4763C397.896 95.6235 398.347 95.8201 398.825 95.9179C399.347 96.0249 399.897 95.961 400.415 96.0875C401.937 96.4595 403.013 97.6754 404.448 98.1634C405.086 98.3801 405.774 98.3978 406.437 98.5151C408.928 99.8268 411.185 101.653 413.791 102.753C419.623 105.216 411.526 101.266 417.643 104.346C419.832 105.371 422.199 106.122 424.35 107.227C425.174 107.65 425.905 108.239 426.724 108.673C428.562 109.646 430.245 110.174 432.208 110.89C433.175 111.327 434.108 111.852 435.11 112.203C436.245 112.6 437.444 112.787 438.598 113.125C442.671 114.318 446.69 115.681 450.839 116.591C455.416 118.045 460.166 119.04 464.609 120.881C465.509 121.097 466.424 121.258 467.309 121.529C468.089 121.768 468.804 122.2 469.592 122.409C470.361 122.613 471.172 122.61 471.952 122.761C472.704 122.907 473.427 123.197 474.186 123.298C479.931 124.066 473.777 122.612 479.045 124.006C479.902 124.107 480.777 124.105 481.615 124.31C482.373 124.496 483.064 124.888 483.792 125.17C486.598 126.253 489.354 127.464 492.272 128.164C495.989 129.627 500.023 129.833 503.796 131.074C506.442 131.398 509.218 131.603 511.802 132.298C517.225 133.755 509.59 132.307 515.214 133.277C518.544 134.158 521.891 134.746 524.761 136.763C565.761 156.394 527.43 137.938 634.285 212.016C634.831 212.395 635.308 212.873 635.753 213.367C636.245 213.915 636.596 214.579 637.086 215.129C638.083 216.25 639.221 217.239 640.239 218.34C643.093 221.973 645.16 226.106 647.486 230.077C650.465 234.502 648.551 239.487 646.445 243.835C644.06 247.889 640.501 250.708 636.723 253.358C633.175 255.608 629.451 257.616 625.718 259.551C621.191 261.656 615.838 262.352 610.903 261.567C609.039 261.438 607.191 261.007 605.328 260.882C604.686 260.838 604.024 261.02 603.398 260.87C598.913 259.798 606.414 260.088 600.131 260.143C598.661 259.317 597.063 259.426 595.544 259.127C593.591 258.743 591.621 257.763 589.708 257.201C587.783 256.279 585.754 255.701 583.753 255.009C581.985 254.396 580.457 253.491 578.652 252.96C577.237 252.001 575.52 252.028 574.166 250.949C573.817 250.671 573.673 250.155 573.278 249.946C569.047 247.71 573.959 251.675 570.344 248.489C569.807 248.291 569.251 248.141 568.734 247.895C567.407 247.264 566.196 246.409 564.881 245.753C562.17 244.4 559.466 243.282 556.577 242.38C552.703 241.05 548.586 240.703 544.662 239.588C541.402 238.495 543.023 238.987 539.8 238.107C535 237.047 530.272 235.737 525.506 234.539C518.552 233.285 511.626 231.827 504.727 230.285C497.59 228.848 490.604 226.699 483.798 224.132C477.052 221.755 470.253 219.535 463.407 217.459C457.564 215.257 451.451 213.644 445.996 210.555C442.618 209.082 439.603 207.01 436.432 205.173C431.706 202.433 436.823 205.792 432.171 202.627C427.53 200.059 422.707 197.823 418.437 194.648C416.544 193.635 415.336 193.052 413.554 191.842C377.53 167.359 341.302 143.176 305.555 118.29C271.31 94.4493 442.988 212.987 409.05 188.708C374.232 163.802 335.889 138.276 298.951 113.672C262.627 89.6963 222.645 62.1328 398.895 181.639C399.512 182.057 397.737 180.697 397.108 180.296C395.591 179.331 393.965 178.547 392.409 177.644C354.012 152.616 376.5 167.292 281.991 102.828C281.222 102.303 280.662 101.512 279.905 100.97C279.144 100.425 278.231 100.119 277.461 99.5865C276.464 98.8966 273.8 96.4741 272.913 95.6837C271.423 94.3377 269.498 93.5675 267.974 92.2708C267.189 91.6033 266.598 90.7332 265.839 90.0371C263.847 88.2112 261.5 86.3538 259.391 84.639C258.783 84.0632 258.195 83.4656 257.567 82.9114C256.986 82.3987 256.321 81.982 255.766 81.4405C253.37 79.1007 251.753 75.9791 250.093 73.114C248.478 69.9941 246.773 66.9466 244.24 64.4572C243.194 63.4291 241.947 62.6245 240.858 61.6421C240.406 61.1605 240.048 60.5681 239.502 60.1972C238.584 59.5743 235.325 58.9141 236.24 59.5408C271.474 83.7259 306.938 107.587 342.484 131.308C342.855 131.555 342.179 130.453 341.9 130.106C341.628 129.769 341.217 129.574 340.876 129.308C340.763 128.953 340.574 128.614 340.537 128.243C340.431 127.204 340.849 126.49 341.388 125.619C341.585 125.301 342.293 124.629 342.325 125.002C342.364 125.454 342.138 125.889 342.045 126.333C342.229 128.962 341.917 131.647 342.209 134.268C342.387 135.861 342.768 137.426 342.958 139.018C342.852 143.119 344.334 146.76 346.506 150.142C347.543 151.673 348.709 153.113 349.665 154.698C349.936 155.147 350.094 155.677 350.449 156.064C350.8 156.449 351.303 156.661 351.73 156.96C352.797 158.501 354.414 159.385 356.072 160.177C356.686 160.471 357.381 160.597 357.956 160.96C359.182 161.732 360.164 162.838 361.312 163.72C405.098 181.85 225.263 68.2466 258.53 93.1531C293.444 119.293 330.593 142.304 366.584 166.94C367.083 167.281 367.486 167.754 367.995 168.081C372.25 170.811 366.933 166.74 371.163 170.12C406.871 196.227 372.436 171.02 268.869 100.538C268 99.9469 270.58 101.76 271.449 102.351C274.171 104.204 276.957 105.942 279.657 107.829C284.85 110.716 289.729 114.129 295.038 116.821C298.821 119.163 303.108 120.32 306.944 122.534C307.625 122.747 308.345 122.863 308.988 123.173C310.339 123.824 311.45 124.893 312.739 125.66C314.796 126.882 316.955 127.988 319.102 129.04C326.617 133.412 316.384 127.588 323.719 131.366C324.422 131.728 325.029 132.258 325.736 132.612C326.396 132.941 327.113 133.142 327.802 133.407C328.563 133.599 329.374 133.65 330.086 133.981C330.652 134.246 331.062 134.763 331.55 135.153C333.346 136.133 335.277 136.857 337.09 137.799C337.686 138.108 338.203 138.575 338.831 138.81C339.666 139.123 340.577 139.184 341.436 139.425C342.245 139.653 343.032 139.953 343.83 140.217C346.019 141.295 348.51 141.6 350.759 142.484C353.07 143.394 355.277 144.653 357.591 145.591C358.667 146.587 360.2 146.712 361.394 147.469C361.939 147.814 362.293 148.414 362.844 148.749C363.452 149.117 364.196 149.21 364.822 149.547C365.327 149.82 365.749 150.226 366.212 150.565C366.79 150.87 367.368 151.174 367.945 151.479C371.819 154.239 376.36 155.619 380.825 157.08C383.504 158.426 386.281 159.672 388.817 161.282C393.283 164.119 387.854 161.287 392.924 163.77C397.358 165.804 401.732 167.898 406.422 169.289C410.391 171.605 414.906 172.549 419.235 173.929C422.703 175.349 426.4 176.15 429.876 177.546C435.821 179.933 428.806 177.588 434.594 179.426C437.679 180.8 440.962 181.762 444.031 183.173C448.662 185.303 443.965 183.614 449.115 185.281C453.848 187.459 459.023 188.094 464.043 189.292C468.242 189.866 472.465 190.178 476.653 190.844C477.159 191.007 477.647 191.247 478.171 191.334C478.733 191.427 479.316 191.293 479.879 191.38C480.289 191.444 480.656 191.674 481.057 191.78C482.457 192.149 483.777 192.525 485.148 193.014C489.732 193.281 494.421 193.027 498.883 194.197C503.438 194.754 507.86 196.277 512.12 197.934C513.044 198.252 513.981 198.535 514.893 198.888C517.939 200.068 516.383 199.741 519.575 200.896C522.089 201.805 524.722 202.37 527.267 203.188C529.888 204.264 532.4 205.683 535.02 206.737C535.671 206.999 536.416 207.019 537.034 207.353C537.612 207.665 538.033 208.206 538.533 208.633C580.552 230.381 616.288 262.634 656.508 287.596C660.124 290.933 663.854 294.304 666.626 298.414C667.929 301.149 670.09 303.686 671.226 306.492C671.794 307.895 672.048 309.406 672.509 310.848C673.341 315.967 672.133 319.027 669.585 323.399C667.399 327.054 664.188 329.513 660.66 331.741C656.089 334.588 650.719 335.031 645.493 335.509C640.868 335.735 636.007 336.085 631.556 334.603C629.161 334.507 626.944 333.578 624.629 333.071C623.986 332.93 623.301 332.932 622.693 332.679C622.125 332.442 621.681 331.98 621.174 331.63C618.791 330.009 615.8 329.634 613.256 328.368C608.07 325.786 615.479 328.539 609.356 326.448C608.64 326.146 607.948 325.78 607.209 325.542C604.753 324.751 602.123 324.369 599.63 323.706C598.076 323.293 596.605 322.753 595.089 322.227C590.753 320.942 586.636 319.08 582.408 317.497C577.919 315.259 572.938 314.189 568.321 312.24C564.041 310.66 559.744 309.313 555.356 308.032C550.912 307.228 546.906 304.965 542.669 303.51C537.296 301.718 532.247 299.098 527.116 296.724C521.661 293.613 515.679 291.623 510.029 288.953C508.046 288.032 505.486 287.642 503.495 286.825C502.906 286.584 502.409 286.16 501.847 285.86C500.02 284.885 500.158 285.044 498.072 284.41C493.341 283.183 489.005 280.887 484.749 278.544C483.013 277.95 482.095 277.766 480.569 276.758C479.982 276.371 479.546 275.772 478.935 275.423C478.271 275.043 477.49 274.913 476.792 274.6C475.436 273.993 474.147 273.247 472.813 272.592C471.508 271.993 470.388 271.057 469.104 270.422C468.511 270.129 467.836 270.013 467.258 269.69C466.703 269.379 466.306 268.82 465.736 268.537C459.736 265.554 467.372 270.341 461.925 266.761C459.385 266.244 457.402 264.531 455.151 263.439C454.276 263.015 453.312 262.801 452.423 262.408C444.69 258.987 455.399 263.254 447.207 260.072C444.152 258.506 440.73 257.865 437.557 256.65C437.139 256.49 433.678 254.759 433.224 254.534C428.616 252.45 423.929 250.512 419.453 248.166C414.488 246.506 410.124 243.656 405.656 241.011C402.365 239.503 399.293 237.49 396.012 235.976C390.168 233.279 395.808 236.553 390.604 233.333C388.024 232.267 385.756 230.614 383.304 229.312C381.004 228.091 378.795 227.094 376.614 225.643C371.673 223.222 367.168 219.981 362.228 217.526C358.011 215.127 353.833 212.638 349.854 209.854C345.778 208.116 342.076 205.528 337.914 204.015C336.363 203.053 334.699 202.466 333.039 201.775C331.406 201.096 330.323 200.215 328.587 199.661C328.257 199.378 327.997 198.978 327.595 198.811C327.058 198.587 326.413 198.746 325.873 198.53C325.05 198.2 324.509 197.393 323.78 196.89C322.689 196.137 322.376 196.035 321.175 195.436L319.661 194.812C319.083 194.725 318.48 194.739 317.926 194.551C317.394 194.37 316.982 193.929 316.46 193.723C315.057 193.168 313.501 193.075 312.092 192.537C311.365 192.258 310.704 191.831 310.009 191.479C304.956 189.2 299.541 187.908 294.288 186.191C289.578 184.978 284.818 184.008 280.073 182.957C278.838 182.466 276.418 182.9 277.81 180.998C278.606 179.91 279.441 179.088 280.364 178.113C280.76 177.826 281.081 177.381 281.553 177.252C282.984 176.86 284.443 180.672 285.042 181.355C285.423 181.79 285.938 182.088 286.386 182.455C286.906 182.848 287.488 183.171 287.946 183.634C293.699 189.463 284.857 181.519 291.367 187.441C293.597 189.47 295.962 191.374 298.226 193.366C353.965 230.879 162.673 102.409 213.761 135.525C254.122 159.807 201.107 127.843 324.314 210.493C358.815 233.637 187.408 116.316 221.277 140.375C256.76 165.583 292.926 189.822 329.159 213.935C363.588 236.849 195.147 117.267 226.563 144.164C227.825 145.772 229.874 145.986 231.516 146.906C232.063 147.213 232.453 147.751 232.988 148.079C234.294 148.88 235.515 149.199 236.947 149.679C239.571 151.253 242.667 152.091 245.126 153.927C245.713 154.364 246.175 154.98 246.822 155.322C247.645 155.757 248.584 155.919 249.465 156.217C255.57 158.866 261.856 161.035 268.159 163.151C273.496 165.215 278.924 167.039 284.206 169.241C286.467 169.896 288.582 171.124 290.825 171.81C291.43 171.995 292.083 171.984 292.691 172.16C296.542 173.277 292.117 172.542 296.195 173.075C298.415 173.18 300.223 174.47 302.292 175.026C303.216 175.275 304.642 175.519 305.572 175.692C306.963 176.02 308.449 175.737 309.841 176.057C310.797 176.277 313.012 177.348 313.92 177.712C318.886 179.706 313.58 177.385 318.298 179.498C320.5 180.962 323.121 181.48 325.514 182.487C327.806 183.452 330.032 184.751 332.171 186.009C332.994 186.245 333.839 186.414 334.64 186.717C337.181 187.679 339.616 189.029 342.164 189.994C344.092 190.723 346.087 191.266 348.034 191.943C351.959 193.458 356.182 194.296 360.08 195.881C361.949 196.641 363.716 197.634 365.561 198.453C367.816 199.345 370.013 200.424 371.934 201.924C372.422 202.304 372.788 202.837 373.31 203.17C377.617 205.917 372.795 201.874 376.56 205.241C380.908 207.216 384.949 209.829 389.361 211.687C394.184 214.207 399.176 216.382 404.065 218.773C409.509 221.204 414.737 224.059 420.03 226.791C422.955 227.576 425.452 229.151 428.044 230.615C430.48 231.99 433.086 233.083 435.577 234.355C440.366 236.824 445.133 239.208 450.162 241.162C450.953 241.531 451.78 241.831 452.536 242.269C453.246 242.679 453.845 243.263 454.542 243.695C457.943 245.8 455.643 244.126 459.025 245.856C460.119 246.416 461.109 247.159 462.162 247.792C462.905 248.039 463.68 248.203 464.39 248.533C465.076 248.852 465.642 249.394 466.321 249.728C467.889 250.499 469.28 250.63 470.895 251.34C472.272 251.947 473.528 252.8 474.877 253.464C475.627 253.824 476.396 254.147 477.126 254.545C480.793 256.543 478.017 255.348 481.659 257.182C484.131 258.428 486.723 259.446 489.308 260.426C490.046 260.835 490.784 261.243 491.523 261.652C492.148 262.145 492.719 262.718 493.399 263.132C494.103 263.559 494.913 263.784 495.646 264.158C497.691 265.201 499.691 266.4 501.649 267.596C504.883 269.752 508.696 270.712 511.91 272.891C512.406 273.256 512.855 273.697 513.399 273.985C514.017 274.314 514.71 274.478 515.366 274.725C551.399 299.398 587.585 323.853 623.466 348.744C623.588 348.828 625.796 352.226 625.874 352.397C626.194 353.099 626.326 353.871 626.552 354.608C626.979 361.161 625.936 363.88 621.87 369.119C617.101 374.341 610.296 375.942 603.773 377.839C595.388 379.539 586.954 380.974 578.513 382.361C574.348 382.784 570.062 383.154 565.886 382.608C564.756 382.46 560.391 381.535 559.466 381.344C550.538 379.051 541.502 377.324 532.381 376.014C525.86 375.42 519.407 374.315 512.907 373.567C511 372.973 508.999 372.98 507.198 372.049C506.602 371.742 506.097 371.275 505.498 370.973C499.663 368.023 507.879 372.778 501.736 369.115C499.435 368.486 497.526 367.143 495.476 366.022C493.168 364.76 490.813 363.623 488.531 362.293C483.944 359.652 479.002 357.702 474.385 355.118C469.719 352.381 465.035 349.724 460.156 347.377C453.057 343.565 446.435 338.943 439.466 334.91C432.353 331.339 425.673 327.021 418.854 322.945C412.95 319.324 407.007 315.843 400.81 312.738C396.608 310.835 392.818 308.167 388.799 305.926C386.724 304.769 384.58 303.74 382.483 302.625C381.483 301.982 380.523 301.274 379.484 300.698C378.48 300.142 377.392 299.752 376.366 299.237C372.101 297.094 367.841 294.917 363.609 292.707C356.952 288.613 349.758 285.546 343.065 281.523C336.335 277.741 329.726 273.76 323.177 269.674C322.108 269.011 321.01 268.392 319.971 267.683C284.057 243.19 247.783 219.217 212.321 194.072C178.863 170.348 280.095 240.292 313.964 263.427C314.962 264.108 311.945 262.098 310.936 261.432C306.606 258.576 308.46 259.817 304.202 256.909C296.878 252.776 290.002 247.94 282.932 243.404C275.638 238.384 268.152 233.648 260.611 229.007C255.646 226.273 251.23 222.549 245.935 220.483C240.879 218.309 235.764 216.404 230.476 214.881C226.052 214.139 221.665 213.141 217.214 212.564C214.781 212.99 211.46 213.92 214.332 210.447C214.512 210.253 215.983 207.899 217.113 208.47C218.125 208.98 221.451 215.855 222.063 216.982C225.868 223.594 229.253 230.478 233.668 236.711C234.575 237.603 235.512 238.465 236.389 239.388C237.305 240.352 238.093 241.435 239.042 242.367C242.958 246.21 247.741 249.358 252.462 252.087C289.032 277.788 259.768 257.198 155.374 185.948C154.286 185.206 157.564 187.411 158.662 188.139C161.788 190.211 164.943 192.012 168.265 193.749C174.057 196.827 179.573 200.464 185.464 203.349C186.281 203.747 187.109 204.123 187.915 204.544C189.906 205.583 190.252 206.024 192.359 206.747C194.383 207.441 196.591 207.921 198.663 208.466C205.694 211.836 194.926 206.819 202.019 209.648C202.544 209.857 202.971 210.261 203.475 210.516C205.088 211.331 206.87 211.797 208.529 212.514C213.302 212.975 217.751 214.792 222.353 215.947C227.215 217.246 232.273 217.801 237.263 218.434C239.61 218.734 241.819 219.625 244.102 220.175C244.78 220.338 245.487 220.364 246.158 220.554C247.667 220.981 249.101 221.639 250.584 222.149C251.984 222.974 253.635 223.247 255.064 224.002C255.7 224.338 256.193 224.907 256.83 225.241C258.897 226.324 261.418 226.929 263.648 227.556C267.974 229.188 272.329 230.629 276.616 232.378C277.346 232.515 278.11 232.53 278.806 232.79C279.441 233.026 279.942 233.53 280.544 233.841C281.512 234.341 284 235.307 284.945 235.745C286.426 236.431 287.872 237.192 289.353 237.878C290.554 238.905 292.159 239.082 293.498 239.812C294.106 240.143 294.583 240.682 295.187 241.02C296.85 241.95 298.852 242.67 300.618 243.387C301.805 244.211 303.255 244.496 304.502 245.189C305.253 245.606 305.891 246.207 306.637 246.633C309.273 248.141 312.215 249.071 315.092 249.97C319.223 251.615 323.638 252.491 327.775 254.11C328.504 254.395 332.088 256.14 332.879 256.522C338.582 258.916 344.041 261.848 349.472 264.795C358.052 269.344 367.373 272.262 376.498 275.5C383.825 277.864 391.085 280.616 398.63 282.21C403.643 283.753 408.936 284.374 413.842 286.255C414.593 286.372 415.364 286.403 416.097 286.607C417.147 286.897 419.335 287.996 420.347 288.425C422.666 289.408 424.974 290.401 427.328 291.301C468.502 312.006 512.587 347.942 543.524 369.114C544.38 369.699 545.06 370.511 545.878 371.147C546.62 371.724 547.424 372.215 548.198 372.749C548.838 373.382 549.433 374.064 550.118 374.648C552.109 376.348 552.074 375.712 553.822 377.622C556.805 380.882 553.613 377.964 556.357 381.451C556.781 381.989 557.359 382.384 557.86 382.851C558.281 383.619 562.431 387.591 562.443 388.118C562.481 389.878 561.121 392.684 560.484 394.221C558.64 398.389 555.288 401.476 552.255 404.756C548.99 408.564 545.143 411.146 540.609 413.193C533.859 416.048 526.319 416.114 519.096 416.626C515.88 416.959 512.607 416.633 509.395 416.97C506.448 417.279 508.331 417.52 505.905 416.964C499.412 417.599 507.933 416.915 502.983 416.924C502.329 416.925 501.687 417.156 501.034 417.136C500.561 417.121 500.121 416.869 499.651 416.823C496.111 416.473 499.045 417.249 496.164 416.332C495.484 416.26 494.791 416.271 494.125 416.116C493.478 415.965 492.897 415.597 492.256 415.421C491.481 415.208 490.664 415.17 489.889 414.956C489.13 414.746 488.423 414.37 487.665 414.152C485.997 413.672 484.285 413.358 482.608 412.908C476.965 411.567 471.597 409.429 466.441 406.79C461.416 404.507 456.501 401.942 451.408 399.827C446.472 397.667 441.55 395.462 436.774 392.947C436.068 392.563 435.38 392.145 434.656 391.796C432.242 390.633 429.747 389.627 427.435 388.249C423.277 385.77 427.505 387.691 422.899 385.819C419.733 384.115 416.578 382.308 413.289 380.85C406.505 377.841 414.624 381.991 407.964 378.465C407.056 378.079 406.112 377.768 405.239 377.308C404.434 376.883 403.731 376.286 402.949 375.822C399.758 373.927 396.393 372.275 393.086 370.597C392.31 370.159 391.576 369.638 390.758 369.284C389.917 368.92 388.995 368.776 388.136 368.455C384.429 367.07 380.871 365.293 377.223 363.763C371.883 361.352 366.617 358.798 361.197 356.556C356.395 354.44 351.644 352.233 347.005 349.778C344.056 347.984 340.676 347.003 337.65 345.376C335.657 343.979 336.679 344.602 334.593 343.495C333.931 343.318 333.268 343.14 332.606 342.963C331.984 342.688 331.393 342.329 330.74 342.14C329.866 341.886 328.94 341.857 328.055 341.642C325.473 341.016 322.925 340.047 320.434 339.139C315.179 337.053 310.551 333.808 305.332 331.638C300.458 329.086 295.277 327.193 290.373 324.709C284.787 322.133 279.446 319.197 274.324 315.78C269.599 312.922 265 309.865 260.041 307.4C116.688 209.683 117.043 209.954 255.23 304.047C256.06 304.612 253.571 302.914 252.74 302.351C251.976 301.832 251.24 301.269 250.444 300.8C242.695 296.238 253.666 303.247 245.441 297.896C239.775 294.079 233.886 290.611 228.194 286.841C189.276 262.878 151.514 235.042 114.594 209.821C111.151 207.469 112.042 207.649 108.735 204.955C107.667 204.084 106.527 203.306 105.424 202.481C104.271 201.652 103.072 200.884 101.966 199.994C99.6357 198.119 97.5363 195.972 95.2708 194.019C91.9284 191.137 88.5196 188.323 85.0793 185.559C81.8242 183.753 79.207 181.009 76.1725 178.912C75.3424 178.338 72.7047 176.852 73.5368 177.423C108.07 201.132 212.765 270.435 177.256 248.267C140.315 225.21 105.255 199.273 69.2564 174.775C104.161 198.512 139.071 222.246 173.974 245.981C173.46 245.696 172.898 245.484 172.432 245.127C171.783 244.631 171.206 243.527 170.514 243.07C169.735 242.556 168.795 242.334 167.987 241.867C167.602 241.627 165.812 240.491 165.41 240.337C164.896 240.141 164.308 240.185 163.802 239.97C163.41 239.803 163.164 239.382 162.773 239.215C160.54 238.262 162.046 239.602 160.9 238.437C163.634 235.068 162.717 236.239 166.327 231.488C167.096 230.476 167.667 229.285 168.612 228.435C169.17 227.934 170.741 230.763 170.899 231.018C173.259 235.412 175.647 239.79 178.122 244.12C180.378 247.656 181.814 251.759 184.546 254.986C186.154 256.885 188.045 258.525 189.778 260.31C196.036 266.968 203.073 272.746 209.98 278.698C217.89 285.045 225.836 291.347 233.746 297.694C235.459 299.11 239.033 302.122 240.872 303.414C242.099 304.278 245.917 306.667 244.678 305.819C73.3151 188.533 114.978 218.785 151.422 241.867C158.32 246.038 165.502 249.711 172.513 253.684C180.907 258.218 189.218 262.9 197.632 267.394C199.006 268.031 200.4 268.626 201.753 269.304C202.997 269.927 204.175 270.675 205.42 271.295C210.436 273.791 215.658 275.902 220.851 277.996C227.4 280.738 234.056 283.216 240.752 285.577C246.821 288.35 252.638 291.679 258.567 294.755C265.473 297.722 272.398 300.641 279.389 303.399C283.607 305.067 287.614 307.218 291.742 309.072C293.895 310.039 296.121 310.838 298.286 311.778C305.158 314.195 312.102 316.376 318.938 318.898C324.785 321.073 330.598 323.31 336.376 325.676C338.122 326.569 340.067 326.921 341.871 327.652C342.937 328.084 343.928 328.685 344.995 329.114C348.672 330.596 352.519 331.718 356.221 333.155C363.162 335.967 370.214 338.509 376.931 341.831C377.81 342.233 378.768 342.497 379.57 343.038C415.639 367.372 451.539 391.953 487.509 416.431C488.243 416.931 490.417 418.475 489.682 417.976C455.021 394.408 420.356 370.846 385.731 347.227C385.147 346.829 386.969 347.911 387.552 348.309C423.548 372.886 459.494 397.537 495.463 422.148C495.882 422.409 498.301 423.78 498.475 424.421C499.598 428.558 495.496 434.235 492.911 436.973C491.953 437.987 490.758 438.748 489.681 439.636C488.342 440.455 487.061 441.375 485.665 442.092C484.184 442.852 482.615 443.429 481.072 444.054C474.907 446.552 468.59 448.502 462.213 450.37C457.499 451.258 452.704 452.095 447.888 452.125C442.955 452.155 438.068 451.279 433.245 450.377C419.805 447.775 406.811 443.389 393.849 439.069C381.151 434.942 368.509 430.656 355.929 426.184C344.876 422.352 334.012 417.981 323.361 413.144C311.478 407.341 300.078 400.64 288.539 394.196C244.495 370.556 204.625 339.146 163.736 311.069C161.743 309.701 159.938 308.077 158.006 306.623C156.016 305.125 153.985 303.685 151.974 302.215C156.209 304.981 135.18 290.763 139.379 293.626C170.954 315.156 265.803 379.561 234.124 358.183C198.43 334.092 162.897 309.767 127.326 285.49C125.479 284.23 120.027 280.32 121.875 281.579C154.335 303.677 186.731 325.865 219.161 348.011C211.113 310.811 139.787 296.533 103.619 269.173C99.4367 266.01 95.5721 262.475 91.4258 259.262C87.3963 256.458 83.4548 253.558 79.3352 250.886C78.1355 250.108 74.5455 247.76 75.7268 248.566C168.075 311.58 211.224 340.383 174.138 315.62C173.31 315.054 172.481 314.489 171.653 313.923C170.822 313.463 169.954 313.064 169.16 312.542C168.44 312.067 167.84 311.428 167.127 310.942C164.734 309.313 162.085 307.952 159.603 306.461C158.83 306.034 158.017 305.672 157.283 305.181C156.604 304.725 156.055 304.096 155.383 303.631C153.822 302.554 153.037 302.492 151.449 301.431C147.874 299.041 151.701 300.845 147.505 299.135C146.328 298.236 141.652 296.687 141.397 295.155C141.337 294.792 141.48 294.391 141.693 294.09C142.762 292.586 144.031 291.234 145.199 289.806C145.431 289.507 148.07 284.223 150.548 284.527C151.166 284.603 151.631 285.138 152.175 285.44C154.893 286.948 157.29 288.79 159.821 290.597C162.819 293.752 166.425 296.16 169.857 298.782C173.722 301.734 177.406 304.926 181.244 307.915C177.712 306.253 191.235 315.09 188.699 313.352C154.913 290.193 121.106 267.072 87.29 243.959C85.9817 243.065 89.8773 245.79 91.1771 246.697C92.7559 247.798 94.3344 248.9 95.9257 249.983C131.77 274.377 167.632 298.747 203.484 323.129C208.524 327.532 214.228 331.075 219.301 335.443C221.539 337.369 223.588 339.506 225.741 341.528C228.763 344.893 232.411 347.607 235.635 350.758C236.684 351.784 237.599 352.944 238.658 353.961C238.694 353.995 244.996 359.447 245.033 359.479C249.043 363.213 247.148 361.766 251.706 364.75C252.905 365.535 256.504 367.891 255.32 367.082C82.6288 249.024 130.777 282.845 167.368 306.983C177.448 313.841 188.249 319.531 198.857 325.512C207.586 330.55 216.692 334.892 225.462 339.845C270.789 363.731 311.626 395.081 353.512 424.525C228.383 339.328 207.721 325.222 360.62 429.474C362.863 431.003 365.188 432.415 367.37 434.028C369.383 435.516 371.259 437.18 373.222 438.732C378.18 443.269 383.929 446.814 388.88 451.341C390.2 452.949 392.554 454.706 392.519 457.074C392.451 461.77 389.033 465.407 386.159 468.669C385.042 469.426 384.014 470.334 382.809 470.94C380.157 472.274 379.07 472.084 376.255 472.192C371.525 472.373 367.882 471.812 363.202 471.171C350.112 468.121 337.676 462.654 325.439 457.19C310.473 450.239 295.992 442.302 281.819 433.868C269.551 425.994 256.762 418.975 244.489 411.117C208.842 386.798 173.156 362.539 137.547 338.158C135.524 336.773 133.603 335.244 131.6 333.83C129.578 332.402 123.428 328.238 125.474 329.632C157.264 351.31 252.546 416.468 220.837 394.679C105.7 315.565 148.576 348.156 108.569 317.607C96.6458 308.897 85.4736 299.226 73.7259 290.295C68.2115 285.996 62.8968 281.443 57.1514 277.446C55.2973 276.156 53.3441 275.012 51.488 273.725C49.5804 272.402 47.7386 270.987 45.8639 269.618C43.9387 268.287 42.0134 266.957 40.0881 265.627C209.854 387.48 152.489 338.488 112.254 316.509C111.55 315.004 108.901 315.317 107.986 313.929C107.203 312.741 112.142 307.229 112.159 307.21C112.548 306.776 113.087 306.503 113.55 306.15C113.855 306.459 114.22 306.719 114.464 307.078C116.151 309.554 117.127 312.577 118.591 315.18C120.792 319.098 120.813 318.79 123.753 322.364C131.248 331.97 140.682 339.53 150.404 346.727C188.626 371.993 149.029 345.86 62.6061 286.724C60.381 285.201 67.1014 289.703 69.3796 291.145C76.0464 295.364 82.9037 299.182 89.849 302.917C102.199 309.27 114.58 315.559 126.719 322.31C140.461 330.715 154.278 338.994 168.146 347.19C178.091 353.019 188.064 358.795 197.796 364.976C206.597 370.689 215.467 376.285 224.304 381.943C268.721 405.114 302.583 432.362 339.26 461.42C343.115 464.474 345.846 466.738 349.167 470.387C353.223 473.894 357.069 477.672 361.369 480.891C371.667 488.602 358.077 477.921 368.413 486.136C374.43 491.267 380.856 495.878 386.409 501.519C388.136 503.61 390.741 505.475 390.364 508.589C389.764 513.558 386.33 517.131 382.975 520.452C381.599 521.374 380.326 522.471 378.848 523.218C369.329 528.031 354.651 526.813 344.387 526.218C325.193 524.329 306.615 518.829 288.693 511.902C274.895 505.827 261.409 498.715 248.919 490.231C213.341 466.068 177.871 441.75 142.346 417.506C128.62 407.337 115.782 396.038 102.626 385.154C94.6212 379.308 87.068 372.855 78.9758 367.13C69.6403 360.526 77.9482 366.86 69.3354 360.121C60.0815 352.792 50.7524 345.559 41.5588 338.153C37.2688 335.321 33.2964 332.085 29.0477 329.196C27.9473 328.448 24.6311 326.225 25.7296 326.976C127.515 396.552 162.704 419.022 125.848 395.457C125.176 395.012 124.505 394.567 123.833 394.122C123.247 393.682 122.68 393.215 122.075 392.802C86.0398 368.269 49.9755 343.775 13.9123 319.285C13.302 318.87 11.4429 317.669 12.053 318.084C46.9801 341.836 151.692 413.198 116.864 389.295C80.889 364.605 44.6915 340.244 8.6032 315.716C122.978 393.542 88.0365 420.935 124.151 374.226C124.724 373.485 125.082 372.395 125.964 372.078C126.501 371.886 126.891 372.743 127.352 373.079C128.124 373.642 128.893 374.21 129.664 374.776C166.807 398.706 127.033 373.116 33.0673 309.073C31.2635 307.843 36.7258 311.457 38.5933 312.588C44.9984 316.465 51.6713 319.863 58.3066 323.321C69.0937 328.773 79.6852 334.609 89.9626 340.969C96.6189 344.792 103.05 348.991 109.683 352.849C116.905 356.09 123.918 359.741 130.623 363.946C172.077 387.899 135.472 366.622 242.352 439.329C243.558 440.149 248.795 444.133 249.833 445C252.476 447.207 254.998 449.554 257.63 451.773C258.993 452.918 260.309 454.122 261.719 455.208C263.156 456.316 264.706 457.272 266.166 458.35C268.834 460.32 271.913 462.908 274.658 464.787C276.007 465.71 280.168 468.306 278.819 467.383C245.455 444.544 212.015 421.821 178.61 399.035C185.296 403.549 192.065 407.983 199.295 411.581C204.961 414.665 210.788 417.436 216.773 419.839C217.347 420.137 222.561 423.339 222.554 423.383C222.48 423.878 221.773 424.022 221.473 424.422C218.02 429.024 214.696 433.721 211.307 438.371C210.806 439.394 205.324 434.836 206.764 435.811C239.232 457.784 271.596 479.911 304.063 501.881C306.75 503.7 298.786 498.103 296.107 496.27C180.059 416.871 224.876 448.67 180.905 417.393C147.02 394.004 91.9095 356.137 247.909 462.958C250.589 464.793 242.482 459.39 239.756 457.625C237.802 456.36 228.765 450.6 226.59 449.213C191.09 424.987 155.558 400.804 120.091 376.534C114.388 372.632 108.83 368.518 103.125 364.615C101.349 363.4 96.0437 359.724 97.8221 360.935C130.25 383.026 162.655 405.146 195.074 427.254C-8.95762 288.395 111.099 370.087 186.478 421.452C187.762 422.327 183.902 419.712 182.608 418.853C181.803 418.319 180.972 417.824 180.179 417.272C179.587 416.86 179.104 416.277 178.454 415.963C177.534 415.519 176.509 415.341 175.536 415.031C169.505 413.546 164.063 410.496 158.498 407.85C151.011 404.289 157.121 407.398 150.042 403.698C145.365 401.573 141.007 398.865 136.543 396.358C131.423 393.483 136.23 396.56 132.101 393.825L37.0015 305.626C43.7809 309.215 35.2313 304.518 42.2478 308.98C43.327 309.666 44.521 310.157 45.6119 310.824C49.2833 313.071 52.6186 315.877 56.5441 317.714C59.3196 319.203 61.9734 320.914 64.758 322.387C66.1916 323.145 67.7161 323.718 69.1749 324.427C72.4441 326.015 75.5992 327.835 78.9038 329.352C82.9967 330.625 80.7602 330.12 85.6502 330.695C88.0188 331.348 92.5031 333.756 94.4384 335.063C130.282 359.278 165.972 383.719 201.748 408.033C234.427 430.243 136.403 363.597 103.728 341.377C139.409 365.701 175.108 390.002 210.77 414.352C215.994 417.919 221.061 421.72 226.181 425.434C227.979 426.738 233.425 430.576 231.585 429.331C200.114 408.032 168.715 386.623 137.283 365.274C145.392 371.064 153.671 376.605 161.908 382.212C203.947 410.826 245.999 439.424 288.081 467.98C330.601 496.416 284.565 465.672 207.236 412.743C205.217 411.361 211.384 415.341 213.41 416.712C249.563 441.178 285.649 465.748 321.773 490.256C323.271 491.272 324.863 492.162 326.28 493.289C327.443 494.213 328.417 495.354 329.485 496.387C326.63 501.54 324.151 506.92 320.92 511.846C320.514 512.464 319.579 512.609 318.84 512.616C317.878 512.626 316.362 511.086 315.713 510.682C315.085 510.289 314.392 510.012 313.732 509.677C313.063 509.224 312.394 508.77 311.726 508.316C306.322 503.763 299.725 501.148 293.433 498.052C289.829 496.082 286.091 494.51 282.449 492.617C276.32 489.433 281.211 491.995 275.283 488.405C274.047 487.656 272.772 486.973 271.517 486.257C228.201 456.751 183.93 430.216 143.884 396.954C139.765 393.697 135.562 390.674 131.212 387.733C129.889 386.838 125.906 384.177 127.227 385.074C231.781 456.01 260.77 476.137 224.152 450.736C217.507 447.086 211.382 442.55 204.489 439.32C201.642 438.219 200.224 437.755 197.498 436.358C192.224 433.656 187.399 430.113 182.366 427.011C177.252 423.919 172.377 420.502 167.307 417.342C163.229 414.799 159.682 412.816 155.506 410.421C153.41 409.219 151.314 408.017 149.218 406.815C145.958 405.12 139.762 401.862 136.39 400.247C135.981 400.051 126.506 395.827 125.709 395.298C89.4601 371.198 53.4717 346.712 17.3919 322.356C16.1101 321.491 14.884 320.547 13.63 319.642C12.4941 318.818 11.3468 318.011 10.2226 317.172C9.33166 316.507 8.0755 316.129 7.58528 315.132C7.02681 313.996 6.75533 312.455 7.35642 311.341C9.97043 306.495 13.3892 302.1 16.9018 297.86C17.2095 297.489 17.8539 298.016 18.33 298.094C54.3768 322.57 90.4256 347.049 126.473 371.526C91.5024 347.787 -13.89 277.292 21.5594 300.307C58.1358 324.056 93.7708 349.226 129.852 373.721C164.095 396.968 61.2679 327.373 27.0694 304.057C25.6352 303.079 33.3275 307.563 31.4997 306.793C72.3183 335.746 116.241 360.453 154.674 392.567C163.95 399.973 173.4 407.156 182.833 414.359C193.276 422.065 203.16 430.523 213.264 438.661C225.894 449.362 238.463 460.185 252.159 469.528C221.471 448.713 190.767 427.92 160.094 407.084C157.64 405.418 165.03 410.373 167.497 412.019C177.617 418.769 187.936 425.271 198.848 430.686C215.267 438.346 232.427 444.918 250.524 447.139C256.754 447.439 262.961 447.823 269.17 446.97C270.5 446.787 271.802 446.436 273.121 446.18C274.178 445.976 275.739 445.7 276.899 445.494C277.046 445.312 277.51 444.787 277.34 444.947C276.88 445.379 275.19 447.323 274.684 447.55C273.592 448.041 272.562 446.609 272.023 446.136C271.463 445.645 270.894 445.164 270.33 444.678C264.839 440.14 259.422 435.509 253.77 431.169C246.919 425.874 240.548 419.985 234.286 414.011C198.122 385.45 141.951 347.631 316.185 468.254C307.705 462.263 298.856 456.849 290.039 451.381C279.621 444.405 269.185 437.464 258.386 431.085C244.897 422.874 231.391 414.693 217.734 406.763C205.583 399.229 192.822 392.778 180.251 385.984C179.784 385.746 166.495 378.979 166.047 378.739C163.705 377.482 154.409 372.208 152.187 370.71C49.7633 301.662 79.1592 323.657 38.7374 293.183C34.0682 289.329 32.1319 287.908 27.8695 283.716C21.8193 277.765 16.5185 271.093 11.4011 264.343C7.9863 258.705 2.37472 249.934 1.07928 243.447C0.843327 242.266 0.87551 241.046 0.773691 239.846C1.16585 238.343 1.28218 236.74 1.95023 235.339C3.66929 231.731 7.22977 225.989 12.2127 226.475C13.9264 226.642 17.7284 229.117 18.9533 229.836C23.7125 232.871 28.6093 235.657 33.3912 238.655C73.7917 263.984 112.655 291.816 152.028 318.6C163.415 326.716 174.653 334.993 185.427 343.919C196.854 353.289 208.565 362.289 220.583 370.892C222.525 372.258 228.373 376.323 226.408 374.991C194.381 353.268 98.617 287.634 130.396 309.723C165.767 334.308 201.623 358.191 237.19 382.485C239.167 383.835 241.076 385.282 243.031 386.664C245.117 388.138 251.427 392.485 249.314 391.051C217.607 369.539 185.938 347.967 154.252 326.43C157.769 328.888 162.309 332.118 165.927 334.411C174.61 339.914 183.761 344.665 192.342 350.337C205.714 359.268 219.706 367.172 234.188 374.169C238.168 376.092 242.709 378.362 246.812 380.055C253.46 382.798 260.324 385.058 267.051 387.591C273.095 389.475 268.206 388.185 273.941 389.128C274.79 389.267 275.608 389.585 276.465 389.671C277.413 389.766 279.14 389.101 279.868 390.323C280.075 390.669 279.889 391.13 279.9 391.533C279.064 393.085 277.609 396.467 275.907 397.134C274.636 397.631 272.983 395.16 271.998 394.854C266.983 391.124 262.359 386.896 257.23 383.308C254.372 381.21 251.419 379.267 248.531 377.209C247.425 376.421 244.097 374.076 245.22 374.838C247.521 376.4 523.133 563.858 238.319 370.148C203.374 346.416 176.62 328.25 335.098 435.636C336.377 436.503 332.517 433.935 331.22 433.095C327.085 430.416 322.852 427.921 318.446 425.707C302.992 417.295 325.165 429.455 309.928 420.801C303.831 417.339 297.321 414.625 291.366 410.894C280.226 404.873 269.43 398.225 258.294 392.197C256.566 391.072 254.858 389.917 253.111 388.821C251.543 387.838 249.882 387.002 248.35 385.963C212.379 361.581 176.448 337.142 140.609 312.567C139.228 311.62 137.96 310.516 136.705 309.408C134.552 307.507 132.752 305.224 130.404 303.53C124.096 297.572 117.926 291.457 111.302 285.841C104.335 280.067 97.0569 274.624 89.619 269.48C122.425 291.788 155.264 314.048 188.037 336.404C189.321 337.28 185.407 334.747 184.091 333.921C182.978 333.224 181.835 332.573 180.75 331.833C144.879 307.361 108.984 282.919 73.2237 258.285C71.049 256.787 69.5485 254.426 67.1539 253.193C59.6322 247.212 52.0569 241.288 44.3912 235.5C41.2217 232.982 32.3896 226.815 33.5214 221.843C34.0769 219.404 35.4339 217.219 36.3902 214.907C37.8579 213.087 39.1 211.06 40.7932 209.448C43.7636 206.62 48.9585 209.665 51.7709 211.118C56.1974 214.094 50.8701 210.819 56.098 213.004C57.5897 213.627 58.8029 214.792 60.2567 215.5C61.0963 215.908 62.045 216.084 62.8514 216.554C63.6649 217.029 64.329 217.723 65.0679 218.308C67.4292 219.836 69.7879 221.536 72.2794 222.848C73.1645 223.314 74.1607 223.564 75.0117 224.09C75.899 224.638 76.6399 225.394 77.4541 226.046C78.4636 226.632 79.473 227.217 80.4824 227.803C122.709 255.554 165.685 282.449 205.262 313.901C241.691 343.009 309.743 375.783 127.652 261.998C163.248 286.295 198.853 310.578 234.44 334.889C236.207 336.096 241.482 339.752 239.712 338.55C207.818 316.897 112.387 251.57 144.07 273.537C179.462 298.075 215.278 321.994 250.848 346.271C254.163 348.533 260.031 352.807 263.246 355.129C297.875 380.388 348.09 412.812 180.274 299.11C178.411 297.848 183.904 301.774 185.748 303.063C192.133 307.529 190.409 306.339 197.323 310.079C201.266 312.202 205.231 314.283 209.151 316.448C214.628 319.473 219.96 322.781 225.473 325.736C227.225 326.674 229.026 327.516 230.803 328.406C241.018 334.083 251.822 338.441 262.626 342.861C275.633 347.498 288.387 352.819 301.54 357.059C313.435 360.879 325.278 365.075 337.545 367.548C340.49 368.111 343.395 368.868 346.343 369.414C347.749 369.674 349.187 369.741 350.595 369.992C351.906 370.226 353.169 370.719 354.493 370.867C355.721 371.003 361.601 370.843 362.881 370.817C370.45 370.073 377.781 368.192 384.311 364.141C384.548 363.852 385.317 363.047 385.022 363.276C383.664 364.329 382.073 367.86 380.42 368.006C379.974 368.046 377.876 366.182 377.693 366.03C412.592 389.843 447.469 413.693 482.389 437.47C483.042 437.915 481.154 436.48 480.501 436.035C444.5 411.518 408.452 387.068 372.427 362.585C337.416 338.792 290.646 307.95 473.827 431.509C474.665 432.074 472.336 430.146 471.591 429.465C460.557 422.314 477.795 433.454 465.793 425.812C464.705 425.119 463.685 424.315 462.559 423.683C458.914 421.635 454.851 420.486 451.168 418.515C447.89 417.217 444.586 415.661 441.177 414.728C440.136 414.443 439.034 414.404 438.006 414.077C436.089 413.469 434.453 412.111 432.399 411.846C431.42 411.5 430.44 411.154 429.461 410.807C428.516 410.409 427.587 409.969 426.626 409.613C425.619 409.24 424.554 409.032 423.562 408.624C422.612 408.234 421.77 407.61 420.818 407.226C411.191 403.349 424.063 409.293 414.6 404.794C413.678 404.426 408.785 402.479 407.888 402.09C406.803 401.62 405.777 401.014 404.668 400.604C401.222 399.33 397.45 398.928 394.199 397.095C387.485 395.496 381.069 392.961 374.872 389.929C367.877 386.576 360.769 383.546 353.609 380.554C347.466 378.587 341.333 376.085 335.941 372.52C332.539 370.332 330.383 369.627 326.748 368.02C325.584 367.505 324.494 366.829 323.318 366.343C320.845 365.321 318.186 364.79 315.768 363.615C310.443 361.385 305.114 359.12 299.762 356.961C298.359 356.395 296.874 356.027 295.504 355.385C294.176 354.763 292.965 353.917 291.695 353.183C288.949 352.016 285.922 350.801 283.287 349.39C281.885 348.639 280.575 347.726 279.187 346.95C274.824 344.514 270.387 342.204 266.044 339.727C258.898 336.216 251.922 332.363 244.868 328.668C200.523 304.004 158.297 275.13 119.335 242.623C111.447 236.181 103.491 229.814 95.7895 223.15C88.7641 216.844 82.01 210.219 75.9294 202.984C74.973 201.757 73.9528 200.578 73.0603 199.304C69.6128 194.382 67.0841 188.843 63.8111 183.809C61.054 179.041 58.1539 174.358 55.4611 169.552C54.7553 168.016 53.3825 165.58 53.7674 163.79C54.896 158.544 58.1673 153.975 62.4667 150.863C66.3215 151.226 61.6104 150.554 64.9892 151.749C65.5194 151.936 66.135 151.779 66.6606 151.979C67.1221 152.155 67.4118 152.645 67.8642 152.842C68.8296 153.264 69.9854 153.099 70.9381 153.576C71.4004 153.744 71.881 153.868 72.3251 154.079C72.765 154.289 73.1166 154.675 73.5777 154.832C75.5874 155.516 75.2367 154.624 77.223 155.669C77.8053 155.976 78.2506 156.491 78.7644 156.903C114.825 181.384 150.885 205.865 186.947 230.349C-44.6255 72.8418 142.445 199.999 190.534 233.04C191.219 233.51 191.7 234.227 192.331 234.767C194.871 236.94 197.746 238.732 200.063 241.173C206.651 246.889 213.365 252.428 220.492 257.464C224.862 260.81 223.041 259.535 227.512 262.5C228.588 263.214 231.816 265.356 230.749 264.628C56.8837 146.147 99.3077 174.019 134.514 199.318C144.069 205.164 131.364 197.301 140.348 203.143C143.845 205.418 147.651 207.2 151.027 209.675C151.825 210.175 152.623 210.674 153.422 211.174C154.156 211.752 154.836 212.408 155.626 212.908C161.346 216.526 155.303 211.964 160.902 215.754C200.189 242.356 403.734 380.897 165.699 218.918C166.405 219.534 167.057 220.218 167.817 220.766C169.049 221.654 171.251 222.662 172.562 223.435C173.343 223.895 174.057 224.464 174.849 224.903C180.196 227.869 174.777 224.269 179.919 227.875C181.835 228.96 183.441 229.8 185.229 231.084C186.025 231.656 186.706 232.381 187.525 232.919C188.342 233.456 189.294 233.766 190.117 234.295C195.377 237.678 189.22 234.524 194.781 237.18C199.728 239.668 204.465 242.601 209.704 244.489C212.26 245.857 214.916 246.946 217.581 248.087C218.456 248.461 219.407 248.659 220.246 249.107C221.005 249.512 221.601 250.174 222.333 250.623C223.071 251.076 223.875 251.412 224.646 251.806C226.731 253.098 228.798 254.129 230.98 255.225C231.593 255.533 232.113 256.042 232.768 256.246C233.48 256.467 234.251 256.398 234.992 256.474C235.612 256.699 236.232 256.924 236.853 257.149C237.697 257.27 241.109 257.726 241.814 257.968C242.614 258.243 243.295 258.789 244.056 259.157C246.492 260.334 248.966 261.455 251.464 262.492C256.202 264.642 260.71 267.235 265.438 269.403C270.733 272.174 276.36 274.201 281.626 277.01C285.052 278.665 288.599 280.025 292.037 281.648C292.855 282.034 293.577 282.624 294.425 282.937C295.373 283.287 296.395 283.393 297.38 283.621C300.88 285.067 304.28 286.665 307.712 288.258C308.596 288.668 309.559 288.92 310.4 289.413C311.213 289.89 311.889 290.568 312.634 291.146C313.485 291.558 314.336 291.97 315.187 292.381C315.933 292.896 316.62 293.507 317.425 293.924C318.245 294.348 319.174 294.518 320.022 294.883C322.475 295.938 324.85 297.198 327.354 298.149C332.344 301.361 326.465 297.855 332.182 300.348C335.362 301.734 337.949 304.304 341.274 305.393C343.678 306.594 345.95 308.03 348.374 309.188C349.169 309.567 350.018 309.831 350.798 310.24C357.693 313.858 348.253 309.494 355.595 312.782C362.431 316.248 353.004 311.603 360.474 314.815C364.054 316.354 367.381 318.522 371.073 319.826C371.975 320.228 372.876 320.63 373.777 321.032C374.549 321.502 375.281 322.046 376.093 322.442C376.924 322.846 377.869 322.99 378.685 323.423C379.452 323.829 380.038 324.53 380.805 324.939C382.272 325.721 384.044 325.839 385.388 326.908C386.891 327.424 388.341 328.11 389.881 328.499C390.639 328.691 391.444 328.645 392.2 328.842C392.823 329.003 393.367 329.409 393.991 329.566C394.625 329.726 395.31 329.607 395.939 329.783C396.434 329.922 396.851 330.258 397.307 330.496C402.689 331.093 395.996 330.098 400.19 331.416C400.691 331.573 401.261 331.382 401.76 331.545C402.157 331.675 402.383 332.157 402.787 332.264C403.317 332.405 403.89 332.172 404.431 332.256C404.931 332.334 405.389 332.583 405.867 332.746C410.083 332.426 405.895 332.42 409.541 333.318C410.768 333.62 413.22 333.521 414.387 333.609C415.325 333.68 416.254 333.835 417.187 333.947C418.261 334.014 419.335 334.08 420.409 334.147C422.872 334.41 424.533 334.666 427.018 334.619C430.541 334.554 434.03 333.813 437.566 333.991C440.56 332.924 443.01 332.074 445.236 329.671C445.508 329.371 450.94 322.936 447.462 326.414C447.066 326.775 446.653 327.118 446.274 327.497C445.822 327.948 445.57 328.679 444.972 328.901C444.673 329.012 444.491 328.481 444.287 328.236C443.291 327.04 442.312 325.844 441.151 324.778C439.384 322.663 438.664 322.515 436.484 321.039C433.045 318.709 436.844 321.096 433.191 318.373C432.556 317.899 431.857 317.518 431.19 317.091C429.815 316 425.447 313.055 426.898 314.043C461.158 337.361 495.394 360.715 529.725 383.933C530.556 384.495 528.23 382.589 527.408 382.015C526.642 381.48 525.788 381.083 524.979 380.618C524.283 380.132 523.587 379.645 522.891 379.159C522.258 378.703 521.669 378.179 520.992 377.792C517.786 375.956 513.976 375.162 511.148 372.704C506.254 371.353 511.192 372.876 506.554 370.962C502.856 369.436 498.944 368.259 495.075 367.286C493.933 366.88 492.812 366.409 491.649 366.07C489.083 365.32 486.411 364.974 483.844 364.225C479.538 362.969 475.425 361.054 471.039 360.04C462.27 356.843 453.529 353.523 444.49 351.143C438.971 349.146 433.714 346.543 428.607 343.654C427.097 342.981 424.642 341.929 423.204 341.12C422.288 340.604 421.456 339.946 420.539 339.429C417.675 337.814 414.589 336.585 411.433 335.679C408.716 334.721 406.005 334.064 403.175 333.511C402.35 333.349 401.483 333.381 400.683 333.122C399.391 332.704 398.445 331.488 397.029 331.324C393.361 329.284 397.392 331.439 393.453 329.613C392.811 329.315 392.229 328.887 391.567 328.636C390.821 328.353 389.981 328.351 389.255 328.022C387.813 327.368 386.827 325.87 385.118 325.687C378.429 321.954 387.689 327.058 380.905 323.529C379.04 322.559 379.046 322.283 377.11 321.522C376.454 321.264 375.7 321.245 375.091 320.888C374.528 320.56 374.158 319.978 373.692 319.523C371.942 318.896 371.341 318.719 369.627 317.946C368.912 317.624 368.245 317.191 367.508 316.922C366.697 316.626 365.806 316.578 365.003 316.259C364.237 315.955 363.559 315.464 362.837 315.066C362.059 314.796 361.281 314.525 360.503 314.255C358.377 313.27 356.109 312.382 353.802 311.901C352.925 311.719 351.992 311.827 351.137 311.561C349.674 311.104 348.605 309.724 347.022 309.507C346.396 309.164 345.769 308.821 345.143 308.478C344.502 308.219 343.838 308.011 343.221 307.7C342.601 307.387 342.074 306.906 341.445 306.613C339.316 305.622 336.894 305.239 334.799 304.143C330.263 302.151 325.233 301.492 320.316 301.168C318.63 300.873 316.918 300.746 315.235 300.437C312.477 299.931 309.86 298.749 307.161 298.025C305.08 298.02 303.293 297.632 301.243 297.343C300.582 297.249 299.891 297.306 299.255 297.102C298.668 296.915 298.182 296.496 297.645 296.193C296.939 296.013 296.233 295.832 295.528 295.652C293.601 294.573 291.471 293.545 289.361 292.872C286.549 291.974 283.471 291.994 280.888 290.382C277.09 288.628 279.038 289.459 275.041 287.9C271.756 286.418 268.835 284.365 265.71 282.608C264.626 281.998 263.492 281.483 262.383 280.92C258.696 278.613 259.739 279.148 255.768 277.152C252.678 275.598 251.333 275.16 248.44 273.2C145.58 203.521 175.628 225.387 137.232 197.371C130.756 191.525 124.541 185.301 120.374 177.534C116.482 170.575 112.408 163.718 108.513 156.76C106.005 152.155 101.922 146.342 103.402 140.778C103.795 139.299 104.602 137.961 105.202 136.552C108.11 132.516 110.854 128.993 116.28 129.845C121.894 128.69 127.352 129.171 132.927 130.412C138.514 131.008 144.128 131.818 149.399 133.854C152.12 134.888 155.063 135.357 157.742 136.464C161.13 137.863 164.005 140.311 167.275 141.928C174.842 146.776 182.478 151.503 190.091 156.272C193.504 158.665 197.052 160.78 200.518 163.085C202.805 164.605 204.875 166.239 207.165 167.755C208.283 168.496 209.441 169.174 210.579 169.883C213.948 171.662 217.176 173.589 220.329 175.733C256.263 200.157 291.997 224.873 328.078 249.088C362.071 271.899 260.446 202.942 226.586 179.935C225.555 179.234 228.59 181.422 229.592 182.165C236.085 186.482 242.605 190.767 249.345 194.693L252.743 196.597C253.802 197.326 254.816 198.126 255.92 198.786C257.047 199.459 258.279 199.943 259.422 200.589C260.505 201.202 261.487 201.99 262.594 202.559C264.823 203.707 267.339 204.246 269.436 205.683C271.263 206.795 273.615 208.258 275.501 209.295C282.651 213.226 274.329 208.518 281.702 212.339C282.744 212.879 283.691 213.598 284.755 214.094C285.865 214.609 287.051 214.939 288.199 215.361C289.26 216.018 293.019 218.373 294.142 218.958C298.189 221.065 302.482 222.817 306.119 225.644C312.304 229.149 318.985 231.734 324.847 235.785C327.113 237.089 329.451 238.269 331.681 239.636C336.5 242.591 341.022 246.039 346.026 248.707C348.527 250.023 351.132 251.138 353.613 252.492C357.639 254.689 361.412 257.426 365.353 259.767C369.745 262.714 374.773 264.387 379.241 267.209C380.025 267.653 380.809 268.097 381.592 268.541C382.294 269.033 382.959 269.582 383.698 270.016C384.455 270.461 385.289 270.759 386.065 271.169C388.386 272.399 390.597 273.858 393.123 274.672C395.007 275.555 395.964 275.951 397.742 276.982C398.427 277.38 399.048 277.888 399.753 278.248C400.451 278.604 401.24 278.756 401.933 279.12C403.171 279.77 404.149 280.852 405.439 281.422C411.513 283.552 403.6 280.606 409.015 283.147C409.605 283.424 410.286 283.466 410.876 283.74C412.78 284.623 413.901 286.53 415.959 287.164C418.98 289.002 420.69 289.375 424.055 290.387C428.106 291.605 432.116 292.906 436.339 293.474C444.948 294.899 453.624 295.649 462.242 296.971C464.207 297.368 466.198 297.64 468.145 298.118C468.871 298.297 472.581 299.558 473.331 299.704C475.256 300.082 477.267 299.887 479.168 300.452C487.222 300.895 495.398 300.644 503.225 298.522C508.681 297.155 504.267 298.428 509.351 296.511C510.973 295.9 512.602 295.586 513.911 294.366C511.956 296.733 512.472 294.523 510.157 294.591C508.046 293.857 509.9 294.609 507.555 293.234C507.015 292.917 505.37 292.011 505.888 292.365C540.815 316.262 575.829 340.037 610.796 363.868C609.014 362.067 610.06 362.757 607.638 361.83C607.077 361.541 606.486 361.304 605.956 360.962C605.525 360.684 603.536 358.952 603.121 358.695C602.545 358.337 601.88 358.143 601.288 357.811C597.6 355.738 601.512 357.463 597.309 355.782C595.174 354.755 593.042 353.629 591.021 352.39C590.324 351.963 589.733 351.362 588.998 351.004C588.185 350.608 587.234 350.552 586.423 350.153C585.636 349.765 584.976 349.16 584.252 348.664C583.591 348.079 582.988 347.42 582.267 346.91C578.743 344.412 574.316 343.807 570.755 341.425C569.382 340.695 567.883 340.203 566.553 339.396C563.748 337.694 566.065 338.17 562.897 336.992C562.169 336.722 561.349 336.738 560.636 336.429C560.037 336.17 559.561 335.686 559.023 335.315C557.827 334.97 555.733 334.422 554.635 333.871C553.892 333.499 553.272 332.914 552.543 332.516C550.884 331.611 549.417 331.172 547.643 330.543C546.884 330.147 546.258 329.538 545.565 329.036C540.824 325.71 536.146 324.515 531.159 321.783C528.562 320.546 526.07 319.094 523.428 317.954C522.497 317.552 521.495 317.309 520.597 316.837C518.851 315.921 517.453 314.423 515.665 313.57C510.144 311.498 504.809 309.031 499.738 306.008C494.857 303.78 490.109 301.272 485.138 299.254C482.976 298.037 480.73 297.112 478.469 296.1C477.807 295.804 477.081 295.655 476.437 295.322C475.831 295.007 475.347 294.491 474.745 294.169C474.135 293.843 473.463 293.649 472.822 293.39C467.864 292.222 473.257 293.814 469.108 291.623C468.393 291.246 467.542 291.188 466.812 290.841C464.441 289.713 462.66 287.7 460.584 286.159C450.874 279.735 465.414 289.229 455.379 283.095C454.549 282.587 453.836 281.902 453.004 281.399C450.322 279.779 447.301 279.092 444.496 277.743C442.614 277.157 440.782 276.411 438.882 275.884C435.517 274.95 431.914 274.464 428.918 272.544C428.011 272.373 427.084 272.287 426.197 272.032C422.085 270.853 418.882 267.851 414.691 266.92C413.992 266.616 413.293 266.312 412.595 266.009C411.966 265.676 411.357 265.304 410.709 265.01C409.733 264.567 408.007 264.097 407.071 263.489C406.592 263.179 406.221 262.728 405.797 262.347C405.346 262.077 404.894 261.807 404.443 261.536C402.803 261.177 401.191 260.862 399.512 260.744C398.87 260.699 398.217 260.772 397.584 260.66C397.077 260.569 394.798 259.666 394.329 259.485C390.39 257.774 395.182 259.658 390.51 258.532C389.813 258.363 389.196 257.938 388.502 257.758C387.644 257.535 386.74 257.534 385.877 257.328C385.487 257.234 380.934 255.742 380.61 255.636C377.88 254.739 375.343 253.552 372.666 252.533C369.74 251.42 366.697 250.585 363.887 249.162C358.108 246.616 352.122 244.722 346.083 242.896C341.274 240.842 346.84 242.916 341.389 241.904C339.083 241.476 339.208 240.892 337.24 239.784C336.542 239.391 335.786 239.112 335.058 238.776C334.443 238.427 333.828 238.078 333.212 237.729C331.683 236.685 331.481 236.373 329.677 235.841C328.996 235.64 328.24 235.705 327.587 235.425C327.001 235.174 326.602 234.606 326.049 234.289C324.821 233.584 323.488 233.277 322.147 232.877C279.945 215.603 306.915 226.818 212.099 158.426C178.249 134.009 350.432 251.891 315.63 228.854C279.375 204.858 243.801 179.85 207.751 155.551C174.536 133.161 347.706 252.474 307.207 222.998C268.241 197.966 232.327 172.456 192.506 145.225C191.139 144.29 186.801 140.723 185.526 139.581C184.551 138.709 183.641 137.768 182.698 136.862C180.818 135.05 179.519 133.873 177.796 131.93C176.192 130.122 175.398 128.924 173.869 127.065C173.254 126.318 172.534 125.654 171.976 124.863C171.439 124.104 171.057 123.246 170.598 122.437C168.635 117.563 166.131 114.394 168.081 108.92C170.988 103.16 173.851 99.2115 180.651 98.6475C186.139 98.6237 191.65 99.7155 196.904 101.235C202.366 102.032 207.598 103.831 213.009 104.906C213.769 105.069 214.561 105.124 215.29 105.395C217.88 106.36 215.933 106.391 218.523 107.047C219.117 107.198 219.771 107.04 220.353 107.234C226.634 109.335 216.196 106.961 223.261 108.424C224.765 108.702 228.282 108.893 229.493 109.681C229.901 109.947 229.964 110.595 230.387 110.835C230.893 111.122 231.53 111.053 232.101 111.161C234.233 112.779 232.462 111.645 235.046 112.709C239.066 114.364 234.165 112.465 238.045 114.491C239.215 115.101 240.617 115.197 241.687 116.041C245.599 118.527 250.251 119.745 254.176 122.276C258.863 123.848 263.013 126.648 267.144 129.316C270.215 131.409 273.543 133.26 276.83 135.004C277.631 135.428 278.494 135.739 279.261 136.22C279.99 136.678 280.619 137.28 281.299 137.809C282.1 138.159 282.937 138.439 283.703 138.86C285.236 139.701 286.552 140.901 288.079 141.754C290.543 143.131 293.256 144.095 295.524 145.83C305.111 150.271 291.825 143.829 300.325 148.858C301.121 149.329 302.071 149.473 302.913 149.856C305.386 150.982 307.764 152.368 310.227 153.524C314.923 155.594 319.289 158.081 323.534 160.964C331.272 164.063 320.742 159.714 328.133 163.192C328.904 163.554 329.75 163.736 330.526 164.086C332.709 165.069 334.806 166.292 336.992 167.279C338.018 167.688 340.504 168.639 341.483 169.186C342.193 169.583 342.797 170.15 343.503 170.553C345.89 171.916 348.575 172.534 351.079 173.623C354.584 175.05 352.79 174.435 356.46 175.464C357.247 175.768 357.914 176.34 358.707 176.626C359.542 176.927 360.464 176.924 361.304 177.212C362.665 177.678 364.075 178.633 365.293 179.383C372.349 181.117 363.078 178.54 369.005 181.085C369.688 181.379 370.502 181.246 371.192 181.521C371.837 181.779 372.32 182.342 372.94 182.658C374.287 183.343 375.836 183.583 377.104 184.454C378.352 185.201 379.666 185.834 380.913 186.583C381.529 186.952 382.028 187.522 382.688 187.803C383.431 188.12 384.301 188.041 385.049 188.344C386.338 188.866 387.649 190.12 388.68 190.993C392.98 192.762 397.017 195.034 400.95 197.504C401.552 197.771 402.13 198.1 402.755 198.305C403.187 198.447 406.664 199.145 407.041 199.305C407.732 199.6 408.269 200.182 408.937 200.527C410.548 201.36 412.37 201.742 413.917 202.72C420.441 204.745 413.544 202.426 419.878 205.113C423.781 206.769 427.878 208.007 431.759 209.731C436.42 212.08 441.178 214.22 445.823 216.57C454.147 220.187 440.953 214.57 450.13 218.057C450.824 218.321 451.432 218.774 452.113 219.069C454.106 219.932 456.303 220.336 458.042 221.736C459.443 222.222 460.791 222.871 462.225 223.246C462.99 223.447 463.807 223.409 464.567 223.625C465.294 223.832 465.929 224.295 466.654 224.507C472.562 226.231 465.874 223.574 471.263 225.865C476.178 227.197 480.758 229.723 485.786 230.654C487.827 231.508 489.922 232.146 491.975 232.965C501.096 236.603 487.152 231.099 496.001 234.84C496.718 235.143 497.472 235.351 498.207 235.607C502.747 237.338 507.105 239.865 512.036 240.218C515.047 241.083 513.468 240.788 516.784 241.047C517.46 241.229 518 241.747 518.637 242.037C520.45 242.862 522.349 243.652 524.306 244.039C524.944 244.18 525.638 244.166 526.22 244.464C526.729 244.724 527.009 245.295 527.457 245.649C529.238 247.056 531.623 247.268 533.472 248.587C534.185 248.73 534.92 248.793 535.612 249.017C537.488 249.622 537.609 250.156 539.434 250.878C541.414 251.66 543.613 251.894 545.676 252.342C549.235 252.729 552.792 252.654 556.36 252.784C557.629 252.545 558.985 251.738 559.931 250.846C559.913 250.73 559.87 250.303 559.735 250.287C559.539 250.264 559.403 250.549 559.205 250.55C558.146 250.555 558.66 248.81 557.573 248.654C555.822 245.849 557.786 248.777 555.65 246.234C553.918 244.171 552.461 241.838 550.208 240.256C546.47 237.38 542.892 234.302 538.687 232.111C503.254 205.633 537.082 230.951 641.482 301.79C642.09 302.202 640.277 300.948 639.68 300.521C638.547 299.71 637.503 298.768 636.304 298.059C635.709 297.707 635.051 297.474 634.425 297.181C630.274 295.825 634.316 297.525 631.162 295.058C630.621 294.635 629.923 294.462 629.335 294.107C628.711 293.73 628.17 293.223 627.534 292.867C626.119 292.077 624.489 291.706 623.181 290.702C621.891 289.841 620.295 288.714 618.898 288.037C615.647 286.463 611.899 286.388 608.779 284.486C608.012 284.223 607.245 283.96 606.478 283.698C605.833 283.393 605.21 283.033 604.541 282.784C601.989 281.831 599.255 281.288 596.886 279.845C591.878 278.799 597.269 280.119 592.799 278.458C590.51 277.608 587.936 277.387 585.528 277.195C583.666 277.549 582.229 277.704 580.36 277.531C579.788 277.478 579.198 277.559 578.639 277.427C578.111 277.302 577.679 276.888 577.148 276.771C576.474 276.623 575.771 276.687 575.082 276.645C571.014 275.467 566.917 274.298 562.678 273.934C559.98 273.772 557.287 273.402 554.637 272.845C553.708 272.649 552.818 272.284 551.882 272.119C550.871 271.941 549.839 271.919 548.818 271.82L545.919 271.289C536.437 268.217 550.413 272.583 540.648 270.078C539.47 269.775 537.139 268.579 536.011 268.164C535.158 267.85 534.251 267.693 533.405 267.359C532.62 267.049 531.89 266.614 531.133 266.241C523.437 262.667 534.458 267.628 526.027 264.384C525.195 264.064 524.456 263.539 523.645 263.171C521.244 262.081 518.768 261.055 516.226 260.352C514.809 259.839 513.436 259.202 512.003 258.734C509.048 257.767 505.909 257.368 502.929 256.492C499.142 254.395 502.663 256.18 498.54 254.574C497.777 254.277 497.076 253.829 496.299 253.57C495.454 253.289 494.538 253.256 493.698 252.962C492.143 252.418 490.838 251.257 489.145 251.037C486.094 249.84 487.668 250.335 484.42 249.563C483.723 249.294 483.133 248.802 482.473 248.45C480.478 247.386 478.52 246.311 476.609 245.092C472.896 242.272 468.764 240.743 464.229 239.718C463.029 239.14 461.707 238.829 460.538 238.193C459.953 237.874 459.566 237.25 458.966 236.96C458.289 236.633 457.457 236.716 456.785 236.377C455.436 235.697 454.678 234.082 453.041 233.825C451.007 232.324 451.23 232.355 448.97 231.217C448.27 230.865 447.51 230.634 446.832 230.242C444.788 229.056 443.019 227.428 440.591 226.953C439.866 226.648 439.13 226.37 438.416 226.039C437.778 225.743 437.219 225.257 436.54 225.074C435.778 224.869 434.955 225.039 434.179 224.898C432.09 224.519 430.12 223.471 428.109 222.839C423.68 221.841 427.683 223.167 424.228 220.773C421.993 219.225 422.034 220.07 419.499 219.029C418.716 218.708 418.028 218.19 417.293 217.77C416.491 217.478 415.689 217.186 414.888 216.894C412.826 215.8 410.708 214.771 408.587 213.796C407.838 213.452 405.323 212.555 404.595 212.042C404.061 211.666 403.68 211.109 403.223 210.643C401.581 209.943 400.91 209.733 399.384 208.77C398.745 208.367 398.189 207.839 397.539 207.452C395.814 206.425 394.887 206.257 393.021 205.485C392.192 205.142 391.38 204.76 390.559 204.397C384.989 201.572 379.121 199.189 374.077 195.446C371.196 194.058 368.647 192.392 365.91 190.753C365.163 190.307 364.369 189.938 363.649 189.45C290.288 139.695 290.785 140.032 253.405 114.438C249.201 111.794 253.441 114.614 250.022 111.927C249.536 111.545 247.98 110.534 248.49 110.882C283.549 134.78 389.316 205.576 353.664 182.574C253.627 118.047 274.853 140.98 244.087 107.38C242.915 106.401 241.583 105.604 240.509 104.517C238.377 102.359 237.332 99.3988 235.592 96.9718C234.352 93.6414 232.3 90.6264 231.882 87.004C231.2 82.5945 231.198 78.1547 230.868 73.714C230.436 68.359 230.213 62.8798 231.157 57.57C231.293 56.7199 231.327 55.8471 231.566 55.0198C233.076 49.7836 237.026 45.0383 242.089 43.0208C290.904 39.3757 177.84 -4.89665 354.802 115.682C354.892 115.743 356.211 118.738 356.277 118.842C356.588 119.332 357.027 119.728 357.402 120.171C360.242 124.181 362.12 128.856 365.67 132.362C368.914 135.637 372.711 138.214 376.169 141.247C378.093 142.932 380.067 144.732 382.134 146.238C384.527 147.983 387.147 149.437 389.287 151.534C390.955 152.669 392.702 153.688 394.328 154.882C395.151 155.487 395.867 156.227 396.69 156.83C397.447 157.385 399.836 158.874 399.06 158.348C295.151 87.9303 258.481 68.1204 297.565 89.3381C297.601 89.3624 301.556 91.9855 301.682 92.0531C302.417 92.4482 303.287 92.584 303.979 93.0499C341.076 118.001 379.608 142.846 416.289 169.314C449.072 193.948 280.247 77.6822 314.509 100.207C350.888 124.13 386.072 149.844 422.551 173.609C457.468 196.359 353.671 126.676 319.2 103.264C317.699 102.244 325.041 107.492 323.53 106.565C324.353 106.948 325.216 107.256 326 107.714C326.603 108.067 329.632 110.427 330.201 110.8C332.336 112.201 334.539 113.548 336.805 114.724C341.687 116.865 336.784 114.539 341.39 117.271C342.195 117.748 343.068 118.1 343.886 118.554C346.308 119.897 348.355 121.725 350.845 122.951C355.971 125.63 350.872 122.804 355.826 126.058C359.432 128.427 363.399 130.273 367.457 131.708C374.154 134.59 381.178 136.595 388.07 138.929C394.825 140.998 401.322 143.798 408.064 145.925C414.485 147.534 420.953 148.867 427.429 150.189C432.454 150.558 437.382 151.305 442.221 152.75C444.062 153.168 445.941 153.434 447.755 153.955C451.679 155.081 455.352 157.093 459.51 157.426C464.103 158.316 469.108 158.437 473.291 160.684C479.023 161.404 471.893 160.119 476.072 161.973C476.633 162.222 477.314 161.989 477.904 162.16C479.615 162.659 480.33 164.427 482.105 164.799C484.459 166.515 482.563 165.324 485.361 166.547C491.505 169.231 482.7 165.498 488.831 168.506C490.097 169.127 491.552 169.305 492.772 170.047C493.318 170.342 493.84 170.687 494.411 170.932C495.5 171.4 496.525 171.481 497.569 172.049C497.992 172.279 498.289 172.713 498.729 172.906C498.824 172.948 501.924 173.593 501.974 173.604C504.658 175.766 501.337 173.53 505.209 174.422C505.738 174.544 506.06 175.116 506.555 175.339C508.219 176.087 510.224 176.089 511.953 176.599C512.663 176.704 513.387 176.737 514.081 176.915C515.346 177.239 516.654 178.035 517.924 178.347C518.575 178.507 519.267 178.441 519.919 178.598C525.35 179.905 517.468 178.571 522.819 179.4C526.23 179.242 528.657 176.941 531.597 175.436C533.074 174.619 534.887 173.808 536.123 172.621C536.166 172.579 536.017 172.68 535.964 172.709C534.964 172.278 535.504 172.683 534.574 172.522C533.249 172.293 532.47 170.713 531.846 169.748C529.518 166.358 526.783 163.311 523.523 160.779C521.738 159.166 520.351 157.904 518.426 156.448C517.872 156.029 516.243 154.73 516.817 155.122C621.101 226.375 653.651 255.109 620.501 225.942C618.291 224.804 618.496 224.309 616.819 223.009C616.409 222.692 615.883 222.552 615.461 222.249C612.794 220.334 615.914 221.917 612.738 220.5C608.701 218.189 614.019 221.033 609.238 219.191C608.686 218.978 608.252 218.525 607.713 218.279C606.04 217.515 604.131 217.247 602.475 216.421C598.187 216.213 594.12 214.499 589.819 214.17C584.745 212.533 590.773 214.31 585.216 213.236C583.684 212.939 579.86 211.843 578.503 211.159C577.854 210.832 577.333 210.295 576.749 209.863C575.997 209.669 575.245 209.476 574.492 209.282C573.857 208.926 573.284 208.422 572.586 208.214C571.776 207.971 570.895 208.1 570.061 207.955C569.239 207.812 568.459 207.461 567.632 207.353C561.876 206.607 567.425 208.058 562.6 206.618C557.405 206.106 552.589 203.804 547.618 202.315C543.47 200.719 539.149 199.727 534.895 198.463C533.862 198.156 532.899 197.624 531.849 197.383C530.751 197.132 529.612 197.125 528.494 196.995C525.747 196.041 525.88 196.003 523.045 195.356C522.157 195.154 521.227 195.118 520.366 194.82C519.634 194.567 519.016 194.055 518.317 193.72C510.064 189.762 521.933 195.734 514.25 191.833C507.192 189.331 517.195 193.017 510.525 190.103C507.998 189 505.121 188.657 502.702 187.25C500.949 185.023 501.092 186.132 498.754 185.106C495.922 183.863 499.076 185.128 496.606 183.458C496.214 183.194 495.731 183.099 495.294 182.919C492.42 181.261 495.923 183.055 492.242 182.016C490.43 181.505 491.199 181.164 489.579 180.367C489.091 180.127 488.535 180.065 488.015 179.907C487.522 179.757 487.031 179.598 486.539 179.444C485.003 178.913 482.642 177.622 481.097 177.47C480.397 177.401 479.694 177.62 478.99 177.605C478.31 177.59 477.638 177.456 476.962 177.382C474.544 177.239 472.361 176.7 469.983 176.273C469.126 176.12 468.251 176.063 467.407 175.851C460.79 174.193 469.364 175.69 461.98 174.551C456.278 172.936 450.553 171.4 444.859 169.758C444.254 169.577 440.251 168.359 439.542 168.215C438.655 168.035 437.737 168.045 436.851 167.863C434.456 167.373 432.24 166.276 430.037 165.267C387.302 149.975 323.629 75.2218 307.731 84.9942C300.935 78.7907 295.138 71.6401 290.33 63.7847C285.528 55.6749 280.795 47.5179 276.3 39.2344C273.365 33.5596 270.378 27.8273 271.39 21.23C271.712 16.0045 274.612 11.4173 278.892 8.44441C282.798 6.45952 286.762 4.24258 291.243 4.12846C293.348 4.2037 295.481 3.78662 297.57 4.10738C298.201 4.2044 298.788 4.5165 299.421 4.60486C306.407 5.57998 297.266 3.68911 304.083 5.20581C307.499 6.12036 305.604 5.31282 308.537 7.31244C337.847 27.2283 389.453 55.8827 423.473 86.7779C431.933 93.6921 440.332 100.676 448.966 107.376C454.119 111.345 459.22 115.425 464.5 119.225C466.078 120.361 470.917 123.619 469.31 122.525C368.197 53.7177 337.273 28.9874 371.716 56.4091C372.475 56.7952 376.391 58.7505 377.187 59.2909C380.401 61.4734 377.905 60.4858 381.084 62.3871C381.767 62.7953 382.535 63.0418 383.239 63.413C383.916 63.7705 384.562 64.1852 385.224 64.5713C388.047 65.9339 386.575 65.3154 389.648 66.4077C390.354 66.7457 390.964 67.2575 391.642 67.6506C393.637 68.8089 395.774 69.5319 397.872 70.4716C400.146 71.0195 402.611 71.3266 404.826 72.0734C405.566 72.3226 406.227 72.7697 406.963 73.0298C407.336 73.1616 411.602 74.2635 411.935 74.3503C417.393 76.9578 422.619 77.407 428.546 78.2035C429.722 78.304 430.899 78.4046 432.076 78.5052C433.232 78.6475 434.385 78.8204 435.544 78.9319C436.75 79.0479 437.969 79.021 439.169 79.1877C440.334 79.3496 441.457 79.7501 442.621 79.9153C445.156 80.2752 447.747 80.1343 450.27 80.6295C454.115 81.1392 458.043 81.1242 461.839 81.9224C462.299 82.0192 463.085 81.7884 463.213 82.2409C463.41 82.9366 462.743 83.6082 462.508 84.2918C461.145 86.6326 459.969 89.7844 457.716 91.4151C456.453 92.3295 455.343 91.6184 455.4 91.657C490.805 115.771 526.396 139.613 561.895 163.591C557.149 160.295 564.977 165.538 558.986 162.293C558.475 162.017 558.163 161.465 557.688 161.132C557.178 160.774 556.561 160.585 556.047 160.23C551.675 157.216 557.658 160.706 552.771 157.978C551.017 156.592 549.386 155.867 547.402 154.888C546.797 154.59 546.227 154.227 545.64 153.896C545.159 153.488 544.762 152.951 544.197 152.671C543.597 152.374 542.893 152.366 542.241 152.214C541.851 151.802 541.56 151.268 541.071 150.98C540.544 150.669 539.885 150.673 539.304 150.481C537.986 150.045 537.224 149.724 536.074 148.941C426.527 74.4478 467.054 94.3224 426.293 74.426C701.984 261.565 426.334 74.4838 421.56 71.203C386.815 47.3286 560.767 166.364 526.133 142.336C518.175 136.815 252.946 -43.477 521.826 139.324C485.829 114.862 449.805 90.4374 413.834 65.9386C409.444 62.9489 406.02 58.6997 402.263 55.0021C400.685 53.3314 398.994 51.7688 397.423 50.0911C394.281 46.7362 391.727 42.8694 388.643 39.4635C386.295 35.2445 383.983 31.0185 381.576 26.8307C379.355 22.9518 376.922 18.9617 376.022 14.547C376.045 13.7969 375.935 13.0309 376.09 12.2966C377.103 7.49681 380.845 0.16992 386.572 0.584523C388.378 1.84952 388.686 1.11629 390.723 1.05543C392.198 1.01139 393.737 1.54752 395.228 1.2441C398.55 2.76728 394.343 1.02536 398.667 2.06406C400.174 2.42614 401.17 3.28711 402.579 3.88784C403.447 4.25822 404.359 4.51637 405.25 4.8307L408.291 6.22736C410.619 7.69551 412.845 9.32178 415.175 10.7855C416.61 11.6865 418.152 12.4106 419.579 13.3245C421.158 14.3363 422.614 15.5303 424.184 16.5568C427.669 18.8356 431.382 20.7558 434.779 23.176C442.669 28.0728 450.553 32.9825 458.424 37.8947L554.297 127.079L554.296 127.05Z" fill="#0008CB" fill-opacity="0.05"/>
</svg>
