<svg width="500" height="493" viewBox="0 0 500 493" fill="none" xmlns="http://www.w3.org/2000/svg">
<path d="M250 492.032C111.929 492.032 0 433.375 0 361.018C0 288.661 111.929 230.004 250 230.004C388.071 230.004 500 288.661 500 361.018C500 433.375 388.071 492.032 250 492.032Z" fill="#F0F0F0"/>
<path d="M156.731 436.697C141.044 436.697 128.327 429.356 128.327 420.299C128.327 411.243 141.044 403.902 156.731 403.902C172.417 403.902 185.134 411.243 185.134 420.299C185.134 429.356 172.417 436.697 156.731 436.697Z" fill="#E0E0E0"/>
<path d="M251.895 461.779C210.499 461.779 176.941 442.404 176.941 418.505C176.941 394.605 210.499 375.231 251.895 375.231C293.291 375.231 326.849 394.605 326.849 418.505C326.849 442.404 293.291 461.779 251.895 461.779Z" fill="#E0E0E0"/>
<path d="M233.368 64.757C234.197 65.9771 234.963 67.2384 235.665 68.5359C238.073 73.2847 238.206 79.0032 239.722 84.1421C241.238 89.281 243.501 94.1747 247.336 97.8979C251.281 101.541 256.178 103.992 261.46 104.965C266.714 105.931 272.069 106.242 277.4 105.89C281.464 105.836 285.507 105.312 289.45 104.33C297.632 102.034 303.752 96.2592 303.942 87.0293C304.042 81.5894 301.2 76.183 293.675 72.8722C299.249 68.4802 299.717 59.1165 294.567 54.2228C291.122 50.9567 286.117 49.92 282.305 47.1555C275.639 42.4067 276.04 34.5033 272.785 27.8149C269.341 20.7045 263.549 14.9996 256.387 11.6625C245.731 6.81346 232.042 8.79767 221.664 13.6022C214.451 16.9463 208.142 23.3337 207.117 31.2149C206.002 39.9432 211.832 48.6715 219.813 52.3947C222.756 53.7658 225.933 54.5573 228.943 55.8057C229.37 55.9433 229.754 56.1891 230.058 56.5192C230.335 57.0086 230.481 57.5617 230.481 58.1244C230.916 60.5293 231.904 62.8001 233.368 64.757Z" fill="#263238"/>
<path d="M228.731 91.6835C220.335 91.5179 213.663 84.5775 213.829 76.1817C213.995 67.786 220.935 61.1141 229.331 61.2797C237.727 61.4453 244.398 68.3857 244.233 76.7815C244.067 85.1773 237.127 91.8491 228.731 91.6835Z" fill="#263238"/>
<path d="M100.715 168.271C105.122 167.365 109.443 166.09 113.635 164.458C113.635 164.458 105.308 162.742 104.717 159.241C103.948 154.916 109.299 159.052 116.779 157.993C123.378 157.045 129.041 158.26 132.385 157.268L183.506 138.942C183.506 138.942 201.587 99.8264 206.737 94.0967C211.887 88.3669 215.243 87.1296 222.957 86.1152L220.069 118.587C220.069 118.587 206.158 144.884 202.234 151.293C198.31 157.703 197.452 159.275 188.11 162.307C175.848 166.298 143.231 172.228 133.834 176.33C121.572 181.647 107.816 186.909 100.392 182.874C97.0481 181.057 95.3202 177.79 94.3281 175.628C92.9905 172.551 96.3235 169.062 100.715 168.271Z" fill="#B16668"/>
<path d="M255.496 50.2879C249.842 47.1498 244.388 43.6652 239.165 39.854C228.096 31.8614 223.559 26.2878 223.559 26.2878C223.559 26.2878 221.82 39.4193 230.849 47.0552C239.878 54.691 253.277 55.0812 253.623 55.1258C253.968 55.1704 255.496 50.2879 255.496 50.2879Z" fill="#0008CB"/>
<path d="M270.299 25.1842L277.868 20.8702C277.641 20.3419 277.306 19.8671 276.884 19.4764C276.462 19.0857 275.963 18.7877 275.419 18.6018C274.875 18.4159 274.298 18.3461 273.725 18.397C273.152 18.4478 272.597 18.6182 272.094 18.8971C271.059 19.527 270.299 20.524 269.966 21.6894C269.633 22.8547 269.752 24.1027 270.299 25.1842Z" fill="#263238"/>
<path d="M270.154 22.8655L272.529 14.2153C271.983 14.0318 271.406 13.9629 270.832 14.0129C270.259 14.0629 269.702 14.2308 269.197 14.506C268.691 14.7813 268.248 15.1579 267.895 15.6123C267.542 16.0668 267.287 16.5892 267.145 17.147C266.835 18.304 266.973 19.5353 267.53 20.5953C268.088 21.6553 269.025 22.4659 270.154 22.8655Z" fill="#263238"/>
<path d="M213.705 385.988L211.475 383.19C210.361 389.678 204.23 396.912 198.321 402.308C193.628 406.588 186.628 411.828 186.806 416.22C187.029 421.459 195.724 422.841 200.105 422.072C205.199 421.169 211.787 418.282 215.377 413.867C217.896 410.769 221.463 406.7 223.269 404.27C225.075 401.84 229.222 399.108 230.192 396.288C230.727 394.739 230.091 391.35 229.344 388.485C228.653 385.854 227.906 382.911 227.003 383.212V384.84C225.889 386.033 220.973 387.616 217.606 387.738C215.444 387.872 213.682 387.649 213.705 385.988Z" fill="#263238"/>
<path d="M287.009 396.043C287.709 400.019 288.082 404.045 288.124 408.082C288.269 415.384 289.606 417.981 289.785 423.967C289.985 430.823 288.558 435.114 285.772 438.927C282.985 442.739 274.123 444.366 271.035 437.812C267.947 431.257 268.348 427.044 269.341 420.322C270.355 413.377 270.455 409.542 271.079 404.236C271.592 399.577 272.194 396.021 272.194 396.021L287.009 396.043Z" fill="#263238"/>
<path d="M290.074 312.773C288.369 295.16 285.838 287.769 285.504 283.79C285.504 283.79 282.84 242.456 283.888 207.476C284.4 190.632 284.779 172.072 272.618 152.096L216.291 151.271C209.992 174.68 203.672 260.068 206.202 285.261C207.685 299.898 212.11 373.838 212.11 373.838V379.723C211.928 382.609 210.973 385.393 209.346 387.783C206.702 392.384 203.554 396.676 199.96 400.58C198.32 402.307 196.772 404.119 195.322 406.009C191.688 410.245 194.553 412.017 200.149 411.27C206.046 410.479 210.996 405.908 213.593 402.352C217.472 396.99 226.256 388.374 226.97 385.286H227.036V384.918C227.036 384.918 227.393 380.247 227.873 374.674C228.352 369.1 237.515 323.809 237.727 307.567C237.816 299.831 235.776 288.327 235.776 288.327L242.197 228.756C242.197 228.756 252.229 271.35 254.459 289.397C256.432 305.081 264.926 351.309 269.664 372.154C271.437 379.98 272.283 387.986 272.183 396.01V396.065C272.183 398.384 271.414 416.866 272.116 422.094C273.576 433.019 283.263 432.049 285.17 423.332C286.786 415.919 286.875 398.886 286.953 396.043C287.009 393.992 287.109 391.718 287.232 389.288C287.432 387.794 292.059 333.25 290.074 312.773Z" fill="#B16668"/>
<path d="M256.689 86.4942L272.395 87.3303C269.318 105.623 277.969 121.72 277.969 121.72L272.206 150.703C272.518 151.215 271.347 155.351 273.521 160.579C263.488 173.956 228.107 177.98 212.066 166.153C212.491 161.539 213.16 156.951 214.073 152.408L211.029 135.241C211.33 121.363 220.505 94.8993 222.946 86.0372L236.233 85.112L256.689 86.4942Z" fill="#0008CB"/>
<path d="M223.548 26.2878C219.089 28.2497 214.741 35.1499 214.808 54.457C214.864 70.81 219.88 74.9568 222.422 76.1718C224.963 77.3869 229.902 76.7738 234.684 76.0269V85.4352C234.684 85.4352 231.072 88.9689 232.332 91.2095C233.591 93.4501 238.273 95.3229 245.53 93.0488C253.757 90.4627 255.284 86.5165 255.284 86.5165L255.797 64.3892C255.797 64.3892 258.572 67.2986 263.433 63.0404C267.457 59.5178 268.895 53.476 265.885 50.1653C262.875 46.8545 258.985 46.587 255.485 50.2879C255.485 50.2879 248.172 51.2911 238.519 45.2382C228.653 39.0403 224.518 32.5637 223.548 26.2878Z" fill="#B16668"/>
<path d="M223.124 48.8944C223.124 49.3354 222.993 49.7664 222.748 50.133C222.503 50.4997 222.155 50.7854 221.748 50.9542C221.34 51.1229 220.892 51.1671 220.46 51.081C220.027 50.995 219.63 50.7827 219.318 50.4709C219.006 50.1591 218.794 49.7618 218.708 49.3294C218.622 48.8969 218.666 48.4486 218.835 48.0413C219.004 47.6339 219.289 47.2857 219.656 47.0407C220.023 46.7957 220.454 46.665 220.895 46.665C221.486 46.665 222.053 46.8999 222.471 47.318C222.889 47.7361 223.124 48.3031 223.124 48.8944Z" fill="#263238"/>
<path d="M240.48 49.9757C240.491 50.4189 240.37 50.8553 240.132 51.2292C239.894 51.6031 239.55 51.8975 239.143 52.0748C238.737 52.2521 238.287 52.3043 237.851 52.2247C237.415 52.1451 237.013 51.9372 236.695 51.6278C236.378 51.3183 236.16 50.9213 236.069 50.4873C235.979 50.0534 236.019 49.6023 236.186 49.1917C236.353 48.781 236.639 48.4295 237.007 48.182C237.374 47.9345 237.808 47.8022 238.251 47.802C238.833 47.8019 239.391 48.0291 239.808 48.4352C240.224 48.8413 240.466 49.3942 240.48 49.9757Z" fill="#263238"/>
<path d="M237.092 64.6678L231.351 66.4514C231.431 66.8466 231.591 67.221 231.823 67.551C232.055 67.881 232.352 68.1595 232.697 68.369C233.041 68.5784 233.425 68.7142 233.825 68.7679C234.224 68.8216 234.631 68.792 235.018 68.6809C235.803 68.3922 236.451 67.8201 236.835 67.0773C237.219 66.3345 237.31 65.4749 237.092 64.6678Z" fill="#9A4A4D"/>
<path d="M217.372 44.848L222.946 42.6185C222.816 42.2424 222.609 41.8972 222.34 41.6043C222.071 41.3113 221.744 41.0771 221.38 40.916C221.016 40.755 220.623 40.6706 220.225 40.6681C219.827 40.6657 219.432 40.7453 219.067 40.9018C218.331 41.2156 217.744 41.8007 217.429 42.5355C217.113 43.2704 217.093 44.0985 217.372 44.848Z" fill="#263238"/>
<path d="M255.451 49.7974V56.7087C255.007 56.7259 254.565 56.6512 254.151 56.4892C253.738 56.3273 253.362 56.0816 253.048 55.7675C252.734 55.4535 252.488 55.0779 252.326 54.6644C252.164 54.2508 252.09 53.8083 252.107 53.3645C252.105 52.4558 252.45 51.5807 253.072 50.9178C253.693 50.2549 254.544 49.8542 255.451 49.7974Z" fill="#263238"/>
<path d="M230.425 47.6571L228.675 60.9447L222.756 58.0687L230.425 47.6571Z" fill="#9A4A4D"/>
<path d="M234.706 76.0269C239.778 75.4361 250.223 72.5267 251.928 68.2238C251.25 70.3576 249.945 72.2376 248.183 73.6191C245.017 76.3279 234.706 79.1927 234.706 79.1927V76.0269Z" fill="#9A4A4D"/>
<path d="M207.584 195.559C207.889 180.813 209.568 166.128 212.601 151.695C211.363 137.036 208.197 124.272 211.999 110.762C214.228 102.714 218.687 90.4292 222.968 86.0706C222.968 86.0706 228.073 84.131 232.398 85.4129C232.398 85.4129 224.238 93.3164 221.875 111.453C228.017 111.698 240.346 112.044 247.681 112.858C249.364 103.673 252.399 94.7886 256.688 86.4942C260.432 86.1753 264.203 86.3779 267.891 87.0962C261.857 99.8573 258.402 113.684 257.725 127.784C257.513 132.577 257.335 137.928 257.625 142.966C257.625 142.966 258.639 152.709 272.216 150.691C280.677 164.235 285.381 173.164 285.671 222.034C285.749 234.764 286.273 284.336 286.273 284.336C291.847 301.626 291.457 326.317 291.457 326.317C291.457 326.317 290.509 332.08 277.121 332.816C263.733 333.551 260.4 329.271 260.4 329.271C260.4 329.271 255.941 307.991 253.6 288.026C251.259 268.061 242.375 231.175 242.375 231.175L236.333 287.714C237.579 293.234 238.263 298.866 238.373 304.524C238.373 311.212 236.656 324.433 236.656 324.433C236.656 324.433 233.558 328.401 222.633 327.967C211.709 327.532 208.398 323.686 208.398 323.686C208.398 323.686 205.4 285.351 204.864 269.064C204.441 255.688 205.935 218.311 207.584 195.559Z" fill="#37474F"/>
<path d="M271.849 179.663C275.614 178.787 279.212 177.307 282.505 175.282L280.945 168.906C283.746 168.627 286.57 168.672 289.361 169.04C291.111 169.196 292.705 167.825 294.221 166.286C295.146 165.317 303.975 155.83 309.493 146.667L279.228 119.089L277.11 126.145C263.477 119.847 265.963 98.511 272.439 87.3302C278.938 87.1965 284.779 88.5899 292.148 96.2481C299.695 104.151 324.809 128.174 330.651 136.378C336.492 144.583 336.848 152.698 312.391 175.104C307.173 179.903 301.683 184.4 295.949 188.57C282.372 197.878 274.546 194.578 269.385 191.791C259.464 186.463 263.254 181.703 271.849 179.663Z" fill="#B16668"/>
<path d="M242.397 231.253L237.337 198.981C237.337 198.981 226.435 197.41 216.335 186.43C216.335 186.43 219.679 196.039 231.941 201.646L237.303 231.955L237.939 273.2L242.397 231.253Z" fill="#263238"/>
<path d="M352.666 176.509C351.387 179.164 350.924 182.14 351.334 185.059C351.745 187.978 353.012 190.71 354.974 192.909C356.937 195.109 359.507 196.678 362.36 197.418C365.214 198.158 368.223 198.036 371.007 197.067C373.791 196.098 376.225 194.325 378.003 191.974C379.78 189.622 380.821 186.796 380.993 183.854C381.166 180.911 380.463 177.983 378.972 175.44C377.482 172.896 375.271 170.852 372.62 169.564C370.855 168.703 368.937 168.2 366.977 168.084C365.017 167.967 363.053 168.24 361.198 168.885C359.344 169.531 357.635 170.536 356.171 171.845C354.707 173.153 353.516 174.738 352.666 176.509Z" fill="#37474F"/>
<path d="M381.772 191.68C393.142 190.833 397.155 182.517 390.69 173.086C384.224 163.656 369.867 156.689 358.496 157.48C347.126 158.272 343.102 166.632 349.512 176.063C355.921 185.493 370.39 192.494 381.772 191.68Z" fill="#455A64"/>
<path d="M384.603 187.043C396.33 186.173 400.466 177.601 393.856 167.88C387.245 158.16 372.397 150.981 360.67 151.851C348.943 152.72 344.808 161.292 351.418 171.013C358.028 180.733 372.888 187.901 384.603 187.043Z" fill="#37474F"/>
<path d="M387.524 182.294C399.607 181.402 403.877 172.562 397.066 162.541C390.255 152.52 374.938 145.129 362.855 146.021C350.771 146.912 346.513 155.752 353.324 165.763C360.135 175.773 375.451 183.186 387.524 182.294Z" fill="#455A64"/>
<path d="M390.545 177.4C402.996 176.475 407.399 167.368 400.377 157.045C393.354 146.723 377.569 139.087 365.118 140.012C352.666 140.938 348.263 150.045 355.286 160.367C362.309 170.69 378.093 178.303 390.545 177.4Z" fill="#37474F"/>
<path d="M393.51 172.161C406.218 171.225 410.71 161.928 403.542 151.394C396.375 140.859 380.278 133.079 367.57 134.015C354.862 134.951 350.37 144.248 357.538 154.782C364.705 165.317 380.802 173.097 393.51 172.161Z" fill="#455A64"/>
<path d="M451.063 7.09215C459.46 11.1514 466.975 16.8247 473.18 23.7884C479.384 30.752 484.156 38.8696 487.223 47.6775C490.29 56.4853 491.592 65.8111 491.055 75.1222C490.518 84.4334 488.152 93.5476 484.093 101.944C459.569 152.72 413.597 140.96 403.71 161.382C402.138 164.648 398.415 166.866 392.897 167.267C381.883 168.081 367.905 161.337 361.684 152.196C358.574 147.626 357.995 143.278 359.566 140.068C369.454 119.602 331.631 90.9308 356.155 40.155C360.213 31.7491 365.887 24.2253 372.853 18.0136C379.82 11.802 387.943 7.02429 396.757 3.9537C405.571 0.883101 414.904 -0.420193 424.223 0.118324C433.541 0.656841 442.661 3.02661 451.063 7.09215Z" fill="#0008CB"/>
<g opacity="0.6">
<path d="M451.063 7.09215C459.46 11.1514 466.975 16.8247 473.18 23.7884C479.384 30.752 484.156 38.8696 487.223 47.6775C490.29 56.4853 491.592 65.8111 491.055 75.1222C490.518 84.4334 488.152 93.5476 484.093 101.944C459.569 152.72 413.597 140.96 403.71 161.382C402.138 164.648 398.415 166.866 392.897 167.267C381.883 168.081 367.905 161.337 361.684 152.196C358.574 147.626 357.995 143.278 359.566 140.068C369.454 119.602 331.631 90.9308 356.155 40.155C360.213 31.7491 365.887 24.2253 372.853 18.0136C379.82 11.802 387.943 7.02429 396.757 3.9537C405.571 0.883101 414.904 -0.420193 424.223 0.118324C433.541 0.656841 442.661 3.02661 451.063 7.09215Z" fill="white"/>
</g>
<path d="M390.4 162.63C398.693 162.017 401.614 155.942 396.943 149.086C392.273 142.231 381.761 137.136 373.534 137.749C365.307 138.362 362.32 144.438 366.991 151.293C371.661 158.149 382.117 163.243 390.4 162.63Z" fill="#0008CB"/>
<path d="M374.181 144.482C374.752 144.752 375.406 144.786 376.003 144.578C376.599 144.369 377.09 143.935 377.369 143.368C383.276 131.057 387.699 118.087 390.545 104.731C391.381 100.873 391.955 96.9625 392.261 93.0265C394.544 93.266 396.845 93.266 399.128 93.0265C403.232 92.6031 407.251 91.5777 411.056 89.9833C412.175 93.9346 413.873 97.6985 416.094 101.153C417.315 103.093 418.739 104.898 420.341 106.537C417.451 109.226 414.747 112.108 412.248 115.165C403.525 125.705 396.093 137.25 390.11 149.554C389.854 150.135 389.834 150.793 390.055 151.388C390.275 151.983 390.719 152.469 391.292 152.742C391.58 152.875 391.891 152.949 392.209 152.961C392.526 152.973 392.842 152.922 393.139 152.811C393.436 152.7 393.709 152.532 393.941 152.315C394.173 152.099 394.36 151.839 394.491 151.55C400.336 139.651 407.54 128.47 415.961 118.231C418.456 115.182 421.172 112.32 424.087 109.669C429.025 113.014 434.119 113.459 437.898 111.966C441.677 110.472 443.806 107.061 443.16 103.46C442.987 102.198 442.44 101.015 441.59 100.066C440.74 99.1162 439.625 98.4427 438.389 98.132C434.643 97.1622 429.616 99.0572 423.987 103.405C422.509 101.949 421.207 100.325 420.107 98.5667C417.955 95.2191 416.359 91.5449 415.381 87.687C420.542 84.5546 423.808 80.575 424.432 77.019C424.658 75.5822 424.415 74.1109 423.74 72.8227C423.065 71.5344 421.993 70.4975 420.684 69.8651C419.374 69.2327 417.895 69.0384 416.467 69.311C415.038 69.5835 413.735 70.3084 412.75 71.3785C410.353 74.0873 409.272 79.1816 410.03 85.112C406.4 86.7419 402.53 87.7733 398.571 88.1663C396.508 88.4019 394.425 88.4019 392.362 88.1663C392.261 81.0543 390.634 75.9043 387.535 73.5968C386.519 72.8452 385.304 72.4086 384.041 72.3412C382.779 72.2739 381.525 72.5787 380.434 73.2178C377.213 74.9456 375.853 78.7246 377.09 82.6261C378.327 86.5277 381.816 90.2174 387.468 92.0233C387.211 95.9532 386.66 99.8583 385.818 103.706C383.036 116.669 378.757 129.264 373.066 141.238C372.777 141.808 372.725 142.469 372.921 143.076C373.118 143.684 373.546 144.189 374.114 144.482H374.181ZM437.553 102.914C437.921 103.093 438.244 103.449 438.4 104.33C438.757 106.281 436.75 107.228 436.171 107.473C434.833 107.899 433.418 108.027 432.026 107.848C430.634 107.669 429.297 107.187 428.111 106.437C432.481 103.304 435.691 102.39 437.263 102.803C437.364 102.828 437.461 102.866 437.553 102.914ZM387.535 86.8955C386.21 86.4284 385.003 85.6791 383.996 84.6994C382.99 83.7197 382.208 82.5331 381.705 81.2216C381.515 80.5862 381.003 78.4236 382.764 77.4872C383.778 76.941 384.302 77.1639 384.692 77.4872C385.997 78.4124 387.267 81.4891 387.535 86.8955ZM418.636 74.2656C419.042 74.3802 419.387 74.6504 419.596 75.0177C419.805 75.385 419.86 75.8197 419.751 76.2276C419.427 78.0557 417.655 80.3967 414.656 82.5369C414.467 78.8583 415.202 76.0046 416.429 74.6224C416.675 74.2846 417.042 74.0553 417.454 73.9826C417.865 73.9098 418.289 73.9993 418.636 74.2322V74.2656Z" fill="white"/>
<path d="M129.676 361.865L162.004 418.717C162.211 419.075 162.526 419.36 162.903 419.532C163.28 419.703 163.701 419.754 164.108 419.675C164.514 419.597 164.887 419.394 165.173 419.094C165.459 418.794 165.645 418.413 165.705 418.003L174.723 352.847L129.676 361.865Z" fill="#FFA8A7"/>
<path d="M165.682 418.025C165.623 418.435 165.437 418.817 165.151 419.116C164.865 419.416 164.492 419.619 164.085 419.697C163.679 419.776 163.257 419.726 162.88 419.554C162.503 419.382 162.189 419.097 161.981 418.739L155.672 407.592C157.604 408.202 159.666 408.268 161.633 407.782C163.6 407.297 165.394 406.278 166.819 404.838L167.611 404.047L165.682 418.025Z" fill="#263238"/>
<path d="M122.787 81.9016L123.902 87.8431L125.307 95.0108L174.7 352.858C170.966 359.212 164.422 363.315 157.388 365.388C146.698 368.576 134.838 367.105 129.71 361.865L80.3719 104.174L77.7412 90.4515C79.9372 99.2356 124.872 90.7413 122.787 81.9016Z" fill="#0008CB"/>
<path opacity="0.5" d="M122.787 81.9016L123.902 87.8431L125.307 95.0108L174.7 352.858C170.966 359.212 164.422 363.315 157.388 365.388C146.698 368.576 134.838 367.105 129.71 361.865L80.3719 104.174L77.7412 90.4515C79.9372 99.2356 124.872 90.7413 122.787 81.9016Z" fill="white"/>
<path d="M127.191 104.519L129.71 117.807C130.568 121.63 122.843 125.666 113.535 128.319C101.184 131.886 85.7341 131.262 84.5525 126.201L82.6797 116.414L82.0667 112.902C83.1814 117.963 98.665 118.598 111.05 115.031C119.967 112.479 127.458 108.622 127.235 104.943C127.261 104.8 127.246 104.653 127.191 104.519Z" fill="#EBEBEB"/>
<path d="M127.793 107.841C129.81 116.759 84.7085 125.108 82.702 116.224L80.1381 102.936C82.1446 111.854 127.235 103.438 125.229 94.5537L127.793 107.841Z" fill="#0008CB"/>
<path d="M122.788 81.9016L125.329 95.0108C127.358 103.717 83.9169 112.178 80.3721 104.174C80.2909 104.019 80.231 103.854 80.1938 103.683L77.7413 90.4515C79.9374 99.2356 124.872 90.7413 122.788 81.9016Z" fill="#EBEBEB"/>
<path opacity="0.1" d="M80.3719 104.174L77.7411 90.4515C78.7332 94.4199 88.4983 95.6796 98.776 94.119L150.945 366.815L161.937 418.739L129.609 361.888L80.3719 104.174Z" fill="black"/>
<path d="M66.8614 33.6673C66.8614 33.5224 66.7611 33.3775 66.7277 33.2325C65.6129 27.4582 74.854 20.8813 87.2944 18.5293C99.7348 16.1772 110.704 18.9529 111.818 24.7049L122.81 81.8793C123.69 85.6693 116.054 89.6824 106.836 92.3911C94.5067 95.9917 78.9674 95.4678 77.7635 90.4292L66.9841 34.5033C66.9841 34.2469 66.906 34.0017 66.8726 33.7342C66.8614 33.7453 66.8726 33.7119 66.8614 33.6673Z" fill="#F28F8F"/>
<path opacity="0.1" d="M84.6416 19.1201L98.7764 94.1301C88.5989 95.5904 78.7113 94.42 77.7526 90.4515L66.9843 34.5033C66.9843 34.2469 66.9063 34.0017 66.8729 33.7342C66.8729 33.7342 66.8729 33.6673 66.8729 33.6227C66.8729 33.5781 66.7725 33.3329 66.7391 33.188C65.7247 27.8818 73.5724 21.84 84.6416 19.1201Z" fill="black"/>
<path d="M66.7283 33.2369C65.6399 27.4653 74.8458 20.884 87.2902 18.5371C99.7347 16.1902 110.705 18.9664 111.794 24.7379C112.882 30.5095 103.676 37.0908 91.2319 39.4377C78.7874 41.7846 67.8168 39.0084 66.7283 33.2369Z" fill="#FFA8A7"/>
<path d="M443.316 196.139C443.509 196.356 443.609 196.64 443.595 196.93L443.372 200.709C443.391 201.018 443.484 201.318 443.643 201.584C443.802 201.85 444.023 202.073 444.286 202.236C444.632 202.459 444.966 202.716 445.289 202.972C445.802 203.407 446.482 203.63 446.828 203.418L447.084 197.398L450.974 201.857C451.057 201.951 451.132 202.052 451.197 202.158L452.88 205.057C453.237 205.67 453.304 206.394 453.014 206.673L450.339 209.36C450.189 209.6 450.092 209.869 450.056 210.15C450.019 210.431 450.044 210.716 450.127 210.987V211.154C450.377 211.036 450.644 210.957 450.919 210.92L454.82 215.379C454.922 215.49 454.999 215.62 455.049 215.762C455.099 215.904 455.12 216.054 455.11 216.204L454.441 220.484C454.4 220.72 454.274 220.932 454.087 221.08C453.9 221.228 453.665 221.302 453.427 221.287L450.261 221.042C450.022 221.028 449.784 221.082 449.574 221.199C449.365 221.315 449.193 221.489 449.079 221.7C448.754 222.39 448.382 223.056 447.965 223.695C447.851 223.974 447.8 224.274 447.815 224.574C447.831 224.875 447.912 225.168 448.054 225.434L449.347 228.187C449.637 228.8 449.614 229.514 449.347 229.759L446.114 232.345C445.835 232.579 445.3 232.345 444.888 231.91L442.246 228.856C442.057 228.76 441.839 228.736 441.633 228.789C441.022 228.998 440.396 229.159 439.76 229.269C439.525 229.317 439.307 229.429 439.13 229.592C438.954 229.755 438.825 229.963 438.757 230.194L437.776 233.984C437.704 234.21 437.549 234.401 437.342 234.519C437.136 234.637 436.893 234.672 436.661 234.619L433.25 233.906C433.031 233.857 432.834 233.735 432.693 233.56L428.78 229.034L432.637 228.979C432.619 228.671 432.526 228.372 432.367 228.108C432.207 227.844 431.987 227.623 431.723 227.463C431.378 227.233 431.047 226.983 430.731 226.716C430.207 226.292 429.527 226.058 429.181 226.27L426.094 228.21C425.826 228.377 425.402 228.21 425.068 227.831L421.166 223.372L423.151 222.145L425.648 220.395C425.798 220.157 425.895 219.89 425.932 219.61C425.968 219.331 425.944 219.048 425.859 218.779C425.726 218.199 425.614 217.608 425.536 217.018C425.492 216.722 425.373 216.442 425.189 216.206C425.006 215.969 424.764 215.785 424.488 215.669L421.668 214.699C421.459 214.628 421.274 214.501 421.133 214.331L417.209 209.805L421.311 210.597L421.523 209.215C421.561 208.977 421.686 208.763 421.874 208.612C422.061 208.462 422.298 208.387 422.538 208.401L425.703 208.657C425.945 208.668 426.185 208.612 426.395 208.493C426.606 208.375 426.78 208.2 426.896 207.988C427.219 207.286 427.097 206.227 427.509 205.603C427.743 205.257 428.2 204.878 427.911 204.265L426.618 201.512C426.464 201.276 426.382 201.001 426.382 200.72C426.382 200.439 426.464 200.164 426.618 199.929L429.85 197.343C430.162 197.086 430.764 197.343 431.199 197.922L432.871 200.152C433.024 200.404 433.243 200.609 433.504 200.744C433.766 200.88 434.06 200.941 434.354 200.921C434.958 200.705 435.582 200.545 436.215 200.442C436.463 200.395 436.693 200.28 436.88 200.111C437.066 199.942 437.203 199.725 437.274 199.483L438.244 195.682C438.293 195.523 438.384 195.381 438.508 195.271C438.632 195.161 438.783 195.087 438.946 195.058L439.437 191.68L443.316 196.139ZM430.72 213.361C429.995 217.999 432.659 222.435 436.683 223.282C440.708 224.13 443.695 220.317 444.42 215.68C445.144 211.043 443.305 207.32 439.314 206.484C435.324 205.647 431.444 208.713 430.72 213.35V213.361Z" fill="#0008CB"/>
<path opacity="0.3" d="M443.316 196.139C443.509 196.356 443.609 196.64 443.595 196.93L443.372 200.709C443.391 201.018 443.484 201.318 443.643 201.584C443.802 201.85 444.023 202.073 444.286 202.236C444.632 202.459 444.966 202.716 445.289 202.972C445.802 203.407 446.482 203.63 446.828 203.418L447.084 197.398L450.974 201.857C451.057 201.951 451.132 202.052 451.197 202.158L452.88 205.057C453.237 205.67 453.304 206.394 453.014 206.673L450.339 209.36C450.189 209.6 450.092 209.869 450.056 210.15C450.019 210.431 450.044 210.716 450.127 210.987V211.154C450.377 211.036 450.644 210.957 450.919 210.92L454.82 215.379C454.922 215.49 454.999 215.62 455.049 215.762C455.099 215.904 455.12 216.054 455.11 216.204L454.441 220.484C454.4 220.72 454.274 220.932 454.087 221.08C453.9 221.228 453.665 221.302 453.427 221.287L450.261 221.042C450.022 221.028 449.784 221.082 449.574 221.199C449.365 221.315 449.193 221.489 449.079 221.7C448.754 222.39 448.382 223.056 447.965 223.695C447.851 223.974 447.8 224.274 447.815 224.574C447.831 224.875 447.912 225.168 448.054 225.434L449.347 228.187C449.637 228.8 449.614 229.514 449.347 229.759L446.114 232.345C445.835 232.579 445.3 232.345 444.888 231.91L442.246 228.856C442.057 228.76 441.839 228.736 441.633 228.789C441.022 228.998 440.396 229.159 439.76 229.269C439.525 229.317 439.307 229.429 439.13 229.592C438.954 229.755 438.825 229.963 438.757 230.194L437.776 233.984C437.704 234.21 437.549 234.401 437.342 234.519C437.136 234.637 436.893 234.672 436.661 234.619L433.25 233.906C433.031 233.857 432.834 233.735 432.693 233.56L428.78 229.034L432.637 228.979C432.619 228.671 432.526 228.372 432.367 228.108C432.207 227.844 431.987 227.623 431.723 227.463C431.378 227.233 431.047 226.983 430.731 226.716C430.207 226.292 429.527 226.058 429.181 226.27L426.094 228.21C425.826 228.377 425.402 228.21 425.068 227.831L421.166 223.372L423.151 222.145L425.648 220.395C425.798 220.157 425.895 219.89 425.932 219.61C425.968 219.331 425.944 219.048 425.859 218.779C425.726 218.199 425.614 217.608 425.536 217.018C425.492 216.722 425.373 216.442 425.189 216.206C425.006 215.969 424.764 215.785 424.488 215.669L421.668 214.699C421.459 214.628 421.274 214.501 421.133 214.331L417.209 209.805L421.311 210.597L421.523 209.215C421.561 208.977 421.686 208.763 421.874 208.612C422.061 208.462 422.298 208.387 422.538 208.401L425.703 208.657C425.945 208.668 426.185 208.612 426.395 208.493C426.606 208.375 426.78 208.2 426.896 207.988C427.219 207.286 427.097 206.227 427.509 205.603C427.743 205.257 428.2 204.878 427.911 204.265L426.618 201.512C426.464 201.276 426.382 201.001 426.382 200.72C426.382 200.439 426.464 200.164 426.618 199.929L429.85 197.343C430.162 197.086 430.764 197.343 431.199 197.922L432.871 200.152C433.024 200.404 433.243 200.609 433.504 200.744C433.766 200.88 434.06 200.941 434.354 200.921C434.958 200.705 435.582 200.545 436.215 200.442C436.463 200.395 436.693 200.28 436.88 200.111C437.066 199.942 437.203 199.725 437.274 199.483L438.244 195.682C438.293 195.523 438.384 195.381 438.508 195.271C438.632 195.161 438.783 195.087 438.946 195.058L439.437 191.68L443.316 196.139ZM430.72 213.361C429.995 217.999 432.659 222.435 436.683 223.282C440.708 224.13 443.695 220.317 444.42 215.68C445.144 211.043 443.305 207.32 439.314 206.484C435.324 205.647 431.444 208.713 430.72 213.35V213.361Z" fill="black"/>
<path d="M438.746 230.283L437.776 234.028C437.737 234.163 437.666 234.287 437.569 234.388C437.472 234.489 437.352 234.564 437.218 234.608L432.392 229.034H432.615C432.596 228.727 432.503 228.428 432.344 228.164C432.185 227.9 431.964 227.678 431.701 227.518V222.157L438.746 230.283Z" fill="#0008CB"/>
<path opacity="0.1" d="M438.746 230.283L437.776 234.028C437.737 234.163 437.666 234.287 437.569 234.388C437.472 234.489 437.352 234.564 437.218 234.608L432.392 229.034H432.615C432.596 228.727 432.503 228.428 432.344 228.164C432.185 227.9 431.964 227.678 431.701 227.518V222.157L438.746 230.283Z" fill="black"/>
<path d="M442.435 220.73C442.745 220.291 443.021 219.829 443.26 219.347L447.898 224.687C447.925 224.961 447.996 225.228 448.109 225.478L449.403 228.232C449.574 228.577 449.64 228.964 449.592 229.347L442.458 221.12L442.435 220.73Z" fill="#0008CB"/>
<path opacity="0.1" d="M442.435 220.73C442.745 220.291 443.021 219.829 443.26 219.347L447.898 224.687C447.925 224.961 447.996 225.228 448.109 225.478L449.403 228.232C449.574 228.577 449.64 228.964 449.592 229.347L442.458 221.12L442.435 220.73Z" fill="black"/>
<path d="M439.437 191.68C439.62 191.893 439.715 192.168 439.704 192.449L439.47 196.239C439.49 196.548 439.583 196.848 439.742 197.114C439.901 197.379 440.121 197.603 440.384 197.766C440.73 198 441.064 198.235 441.388 198.502C441.912 198.937 442.592 199.16 442.937 198.948L443.506 198.591L443.606 196.964C443.617 196.672 443.513 196.388 443.316 196.172L439.437 191.68Z" fill="#0008CB"/>
<path opacity="0.1" d="M439.437 191.68C439.62 191.893 439.715 192.168 439.704 192.449L439.47 196.239C439.49 196.548 439.583 196.848 439.742 197.114C439.901 197.379 440.121 197.603 440.384 197.766C440.73 198 441.064 198.235 441.388 198.502C441.912 198.937 442.592 199.16 442.937 198.948L443.506 198.591L443.606 196.964C443.617 196.672 443.513 196.388 443.316 196.172L439.437 191.68Z" fill="black"/>
<path d="M445.077 202.827L445.256 202.95C445.768 203.385 446.448 203.608 446.794 203.396L447.05 197.376L450.941 201.835C451.024 201.929 451.098 202.029 451.164 202.136L452.88 205.057C453.237 205.67 453.304 206.394 453.014 206.673L450.339 209.36C450.197 209.534 450.112 209.748 450.094 209.973L444.866 203.942L445.077 202.827Z" fill="#0008CB"/>
<path opacity="0.1" d="M445.077 202.827L445.256 202.95C445.768 203.385 446.448 203.608 446.794 203.396L447.05 197.376L450.941 201.835C451.024 201.929 451.098 202.029 451.164 202.136L452.88 205.057C453.237 205.67 453.304 206.394 453.014 206.673L450.339 209.36C450.197 209.534 450.112 209.748 450.094 209.973L444.866 203.942L445.077 202.827Z" fill="black"/>
<path d="M453.995 221.231L449.168 215.658L450.283 211.076C450.507 210.993 450.738 210.933 450.974 210.898L454.876 215.357C454.97 215.475 455.04 215.611 455.08 215.756C455.12 215.902 455.13 216.054 455.11 216.204L454.441 220.484C454.428 220.635 454.382 220.78 454.304 220.909C454.227 221.039 454.121 221.149 453.995 221.231Z" fill="#0008CB"/>
<path opacity="0.1" d="M453.995 221.231L449.168 215.658L450.283 211.076C450.507 210.993 450.738 210.933 450.974 210.898L454.876 215.357C454.97 215.475 455.04 215.611 455.08 215.756C455.12 215.902 455.13 216.054 455.11 216.204L454.441 220.484C454.428 220.635 454.382 220.78 454.304 220.909C454.227 221.039 454.121 221.149 453.995 221.231Z" fill="black"/>
<path d="M435.435 190.565L438.846 191.279C439.095 191.337 439.317 191.48 439.473 191.683C439.63 191.886 439.711 192.137 439.704 192.393L439.47 196.183C439.49 196.492 439.583 196.792 439.742 197.058C439.901 197.324 440.121 197.547 440.384 197.711C440.733 197.936 441.068 198.181 441.388 198.446C441.912 198.87 442.591 199.104 442.926 198.892L446.014 196.953C446.359 196.741 446.928 197.064 447.296 197.666L449.012 200.52C449.369 201.122 449.436 201.846 449.146 202.136L446.471 204.823C446.321 205.063 446.224 205.332 446.188 205.613C446.151 205.894 446.175 206.179 446.259 206.45C446.401 207.027 446.509 207.611 446.582 208.2C446.625 208.498 446.744 208.779 446.928 209.017C447.111 209.256 447.353 209.443 447.63 209.56L450.45 210.519C450.703 210.601 450.92 210.765 451.068 210.985C451.215 211.206 451.284 211.469 451.264 211.734L450.595 216.003C450.557 216.24 450.432 216.455 450.245 216.605C450.057 216.756 449.821 216.831 449.581 216.817L446.415 216.561C446.175 216.548 445.936 216.604 445.726 216.722C445.517 216.841 445.346 217.017 445.233 217.229C444.915 217.92 444.543 218.583 444.119 219.214C444.005 219.494 443.954 219.796 443.969 220.099C443.985 220.401 444.066 220.696 444.208 220.964L445.501 223.706C445.791 224.33 445.78 225.033 445.501 225.289L442.279 227.875C441.956 228.132 441.354 227.875 440.931 227.307L439.247 225.077C438.824 224.509 438.133 224.174 437.776 224.319C437.167 224.53 436.54 224.687 435.903 224.787C435.668 224.84 435.451 224.955 435.275 225.12C435.098 225.284 434.969 225.493 434.9 225.724L433.919 229.514C433.847 229.74 433.692 229.931 433.485 230.049C433.279 230.167 433.036 230.202 432.804 230.149L429.46 229.436C429.211 229.377 428.989 229.234 428.833 229.031C428.676 228.828 428.595 228.577 428.602 228.321L428.825 224.531C428.805 224.222 428.712 223.922 428.553 223.656C428.394 223.391 428.174 223.167 427.911 223.004C427.564 222.781 427.232 222.535 426.918 222.268C426.394 221.844 425.715 221.61 425.369 221.822L422.281 223.762C421.947 223.974 421.367 223.661 421.01 223.048L419.294 220.195C419.118 219.967 419.01 219.694 418.985 219.408C418.959 219.121 419.016 218.833 419.149 218.578L421.668 215.892C421.818 215.652 421.915 215.382 421.951 215.101C421.988 214.82 421.963 214.535 421.88 214.264C421.746 213.696 421.635 213.15 421.557 212.514C421.513 212.218 421.393 211.939 421.21 211.702C421.026 211.466 420.785 211.281 420.509 211.165L417.688 210.196C417.439 210.113 417.224 209.95 417.077 209.732C416.93 209.514 416.859 209.254 416.875 208.992L417.555 204.711C417.588 204.474 417.71 204.258 417.896 204.107C418.082 203.956 418.319 203.881 418.558 203.897L421.724 204.154C421.965 204.165 422.205 204.108 422.416 203.99C422.627 203.872 422.8 203.697 422.917 203.485C423.234 202.795 423.607 202.131 424.031 201.501C424.145 201.22 424.196 200.918 424.181 200.616C424.165 200.313 424.084 200.018 423.942 199.751L422.649 197.008C422.496 196.773 422.414 196.498 422.414 196.217C422.414 195.936 422.496 195.661 422.649 195.425L425.96 192.795C426.272 192.538 426.874 192.795 427.309 193.374L428.981 195.604C429.415 196.172 430.095 196.507 430.463 196.362C431.068 196.15 431.691 195.993 432.325 195.894C432.559 195.84 432.776 195.727 432.954 195.565C433.132 195.402 433.264 195.197 433.339 194.968L434.309 191.167C434.388 190.945 434.547 190.759 434.755 190.648C434.964 190.537 435.206 190.507 435.435 190.565ZM426.818 208.847C426.094 213.484 428.758 217.921 432.782 218.757C436.806 219.593 440.585 216.527 441.365 211.879C442.146 207.23 439.426 202.805 435.413 201.969C431.4 201.133 427.543 204.209 426.818 208.847Z" fill="#0008CB"/>
<path d="M370.246 213.283L373.935 217.843C374.089 218.047 374.182 218.29 374.203 218.545L374.704 226.582C374.733 226.878 374.84 227.161 375.014 227.402C375.189 227.643 375.424 227.834 375.697 227.953C376.986 228.465 378.222 229.104 379.386 229.859C379.595 230.027 379.847 230.133 380.113 230.165C380.379 230.196 380.649 230.152 380.891 230.038L386.833 224.888C387.134 224.62 387.747 224.888 388.193 225.4L393.019 231.364C393.465 231.91 393.633 232.635 393.376 232.969L388.538 239.468C388.414 239.743 388.35 240.042 388.35 240.343C388.35 240.645 388.414 240.943 388.538 241.218C388.861 241.976 389.14 242.768 389.397 243.57L394.881 243.749L398.582 248.319C398.742 248.531 398.828 248.79 398.827 249.055L398.526 258.051C398.534 258.295 398.455 258.533 398.305 258.725C398.154 258.917 397.94 259.049 397.701 259.099L390.545 259.767C390.308 259.812 390.088 259.919 389.908 260.078C389.727 260.237 389.593 260.442 389.519 260.67C389.02 262.376 388.36 264.029 387.546 265.609C387.474 265.913 387.466 266.229 387.524 266.536C387.581 266.843 387.703 267.135 387.881 267.392L391.704 273.3C392.094 273.902 392.183 274.627 391.905 274.928L385.963 281.36C385.685 281.661 385.06 281.516 384.57 281.025L379.71 276.221C379.219 275.742 378.595 275.519 378.194 275.73C376.807 276.54 375.334 277.19 373.801 277.67C373.575 277.766 373.378 277.919 373.229 278.114C373.08 278.31 372.986 278.541 372.954 278.785L371.906 286.978C371.88 287.216 371.768 287.436 371.592 287.598C371.416 287.759 371.187 287.852 370.948 287.859L363.145 287.602C363.023 287.596 362.903 287.562 362.795 287.504C362.688 287.447 362.594 287.366 362.52 287.268L358.831 282.709L358.53 276.109C358.024 275.842 357.534 275.552 357.058 275.24C356.85 275.07 356.598 274.964 356.331 274.934C356.064 274.904 355.794 274.953 355.553 275.073L349.612 280.223C349.311 280.49 348.698 280.223 348.252 279.699L343.425 273.746C342.979 273.189 342.812 272.475 343.068 272.13L347.906 265.631C348.03 265.358 348.094 265.061 348.094 264.761C348.094 264.462 348.03 264.165 347.906 263.892C347.315 262.47 346.845 261.001 346.502 259.5C346.442 259.213 346.308 258.948 346.112 258.73C345.916 258.513 345.666 258.351 345.387 258.263L338.476 257.148C338.237 257.103 338.023 256.972 337.874 256.78L334.195 252.232L337.918 247.037C337.925 246.797 338.008 246.565 338.157 246.376C338.306 246.188 338.511 246.052 338.743 245.989L345.9 245.321C346.335 245.321 346.624 244.763 346.569 244.206C346.336 241.843 346.637 239.458 347.449 237.228C347.522 236.919 347.528 236.598 347.466 236.286C347.405 235.975 347.277 235.68 347.093 235.422L344.752 231.81C344.362 231.208 344.272 230.484 344.551 230.183L350.493 223.751C350.771 223.45 351.395 223.606 351.886 224.085L355.085 227.24C355.271 227.458 355.511 227.624 355.781 227.72C356.051 227.816 356.342 227.838 356.624 227.786C358.526 227.175 360.532 226.959 362.52 227.151C362.758 227.164 362.992 227.085 363.174 226.932C363.356 226.779 363.473 226.562 363.501 226.326L364.549 218.132C364.576 217.894 364.687 217.672 364.863 217.509C365.039 217.345 365.268 217.25 365.508 217.241L367.47 213.373L370.246 213.283ZM355.074 252.12C354.807 260.526 359.466 265.899 366.745 266.133C374.024 266.367 380.122 259.634 380.423 251.24C380.724 242.846 375.964 237.596 368.741 237.384C361.517 237.172 355.353 243.727 355.074 252.12Z" fill="#0008CB"/>
<path opacity="0.3" d="M370.246 213.283L373.935 217.843C374.089 218.047 374.182 218.29 374.203 218.545L374.704 226.582C374.733 226.878 374.84 227.161 375.014 227.402C375.189 227.643 375.424 227.834 375.697 227.953C376.986 228.465 378.222 229.104 379.386 229.859C379.595 230.027 379.847 230.133 380.113 230.165C380.379 230.196 380.649 230.152 380.891 230.038L386.833 224.888C387.134 224.62 387.747 224.888 388.193 225.4L393.019 231.364C393.465 231.91 393.633 232.635 393.376 232.969L388.538 239.468C388.414 239.743 388.35 240.042 388.35 240.343C388.35 240.645 388.414 240.943 388.538 241.218C388.861 241.976 389.14 242.768 389.397 243.57L394.881 243.749L398.582 248.319C398.742 248.531 398.828 248.79 398.827 249.055L398.526 258.051C398.534 258.295 398.455 258.533 398.305 258.725C398.154 258.917 397.94 259.049 397.701 259.099L390.545 259.767C390.308 259.812 390.088 259.919 389.908 260.078C389.727 260.237 389.593 260.442 389.519 260.67C389.02 262.376 388.36 264.029 387.546 265.609C387.474 265.913 387.466 266.229 387.524 266.536C387.581 266.843 387.703 267.135 387.881 267.392L391.704 273.3C392.094 273.902 392.183 274.627 391.905 274.928L385.963 281.36C385.685 281.661 385.06 281.516 384.57 281.025L379.71 276.221C379.219 275.742 378.595 275.519 378.194 275.73C376.807 276.54 375.334 277.19 373.801 277.67C373.575 277.766 373.378 277.919 373.229 278.114C373.08 278.31 372.986 278.541 372.954 278.785L371.906 286.978C371.88 287.216 371.768 287.436 371.592 287.598C371.416 287.759 371.187 287.852 370.948 287.859L363.145 287.602C363.023 287.596 362.903 287.562 362.795 287.504C362.688 287.447 362.594 287.366 362.52 287.268L358.831 282.709L358.53 276.109C358.024 275.842 357.534 275.552 357.058 275.24C356.85 275.07 356.598 274.964 356.331 274.934C356.064 274.904 355.794 274.953 355.553 275.073L349.612 280.223C349.311 280.49 348.698 280.223 348.252 279.699L343.425 273.746C342.979 273.189 342.812 272.475 343.068 272.13L347.906 265.631C348.03 265.358 348.094 265.061 348.094 264.761C348.094 264.462 348.03 264.165 347.906 263.892C347.315 262.47 346.845 261.001 346.502 259.5C346.442 259.213 346.308 258.948 346.112 258.73C345.916 258.513 345.666 258.351 345.387 258.263L338.476 257.148C338.237 257.103 338.023 256.972 337.874 256.78L334.195 252.232L337.918 247.037C337.925 246.797 338.008 246.565 338.157 246.376C338.306 246.188 338.511 246.052 338.743 245.989L345.9 245.321C346.335 245.321 346.624 244.763 346.569 244.206C346.336 241.843 346.637 239.458 347.449 237.228C347.522 236.919 347.528 236.598 347.466 236.286C347.405 235.975 347.277 235.68 347.093 235.422L344.752 231.81C344.362 231.208 344.272 230.484 344.551 230.183L350.493 223.751C350.771 223.45 351.395 223.606 351.886 224.085L355.085 227.24C355.271 227.458 355.511 227.624 355.781 227.72C356.051 227.816 356.342 227.838 356.624 227.786C358.526 227.175 360.532 226.959 362.52 227.151C362.758 227.164 362.992 227.085 363.174 226.932C363.356 226.779 363.473 226.562 363.501 226.326L364.549 218.132C364.576 217.894 364.687 217.672 364.863 217.509C365.039 217.345 365.268 217.25 365.508 217.241L367.47 213.373L370.246 213.283ZM355.074 252.12C354.807 260.526 359.466 265.899 366.745 266.133C374.024 266.367 380.122 259.634 380.423 251.24C380.724 242.846 375.964 237.596 368.741 237.384C361.517 237.172 355.353 243.727 355.074 252.12Z" fill="black"/>
<path d="M384.882 226.582L386.844 224.888C387.145 224.62 387.758 224.888 388.204 225.4L393.031 231.364C393.477 231.91 393.644 232.635 393.388 232.969L388.55 239.468C388.468 239.6 388.419 239.749 388.405 239.903L382.207 232.245L384.882 226.582Z" fill="#0008CB"/>
<path opacity="0.1" d="M384.882 226.582L386.844 224.888C387.145 224.62 387.758 224.888 388.204 225.4L393.031 231.364C393.477 231.91 393.644 232.635 393.388 232.969L388.55 239.468C388.468 239.6 388.419 239.749 388.405 239.903L382.207 232.245L384.882 226.582Z" fill="black"/>
<path d="M373.244 278.16C373.114 278.35 373.03 278.568 372.999 278.796L371.951 286.989C371.912 287.186 371.824 287.37 371.695 287.524L367.514 282.363L367.804 271.45L373.244 278.16Z" fill="#0008CB"/>
<path opacity="0.1" d="M373.244 278.16C373.114 278.35 373.03 278.568 372.999 278.796L371.951 286.989C371.912 287.186 371.824 287.37 371.695 287.524L367.514 282.363L367.804 271.45L373.244 278.16Z" fill="black"/>
<path d="M391.994 273.78C392.086 273.951 392.134 274.143 392.134 274.337C392.134 274.531 392.086 274.723 391.994 274.894L386.053 281.326C385.978 281.396 385.886 281.445 385.786 281.468C385.686 281.492 385.582 281.489 385.484 281.46L380.724 275.597L386.298 266.679L391.994 273.78Z" fill="#0008CB"/>
<path opacity="0.1" d="M391.994 273.78C392.086 273.951 392.134 274.143 392.134 274.337C392.134 274.531 392.086 274.723 391.994 274.894L386.053 281.326C385.978 281.396 385.886 281.445 385.786 281.468C385.686 281.492 385.582 281.489 385.484 281.46L380.724 275.597L386.298 266.679L391.994 273.78Z" fill="black"/>
<path d="M398.114 258.943L392.239 251.686L392.507 243.671L394.926 243.749L398.627 248.319C398.787 248.531 398.873 248.79 398.872 249.055L398.571 258.051C398.57 258.225 398.528 258.396 398.448 258.551C398.369 258.706 398.255 258.84 398.114 258.943Z" fill="#0008CB"/>
<path opacity="0.1" d="M398.114 258.943L392.239 251.686L392.507 243.671L394.926 243.749L398.627 248.319C398.787 248.531 398.873 248.79 398.872 249.055L398.571 258.051C398.57 258.225 398.528 258.396 398.448 258.551C398.369 258.706 398.255 258.84 398.114 258.943Z" fill="black"/>
<path d="M361.818 212.693L369.622 212.949C369.874 212.984 370.104 213.11 370.271 213.303C370.437 213.496 370.527 213.742 370.525 213.997L371.026 222.034C371.058 222.329 371.166 222.611 371.34 222.851C371.514 223.092 371.748 223.283 372.018 223.405C373.314 223.913 374.554 224.551 375.719 225.311C375.927 225.481 376.18 225.587 376.447 225.617C376.714 225.647 376.984 225.599 377.224 225.478L383.154 220.328C383.467 220.072 384.08 220.328 384.525 220.852L389.341 226.805C389.787 227.362 389.943 228.087 389.698 228.421L384.86 234.92C384.733 235.193 384.668 235.489 384.668 235.79C384.668 236.09 384.733 236.387 384.86 236.659C385.446 238.083 385.916 239.552 386.264 241.051C386.322 241.339 386.455 241.605 386.652 241.823C386.848 242.041 387.099 242.202 387.379 242.289L394.291 243.403C394.538 243.464 394.757 243.608 394.911 243.811C395.065 244.014 395.145 244.263 395.138 244.518L394.848 253.514C394.841 253.756 394.756 253.988 394.605 254.178C394.454 254.367 394.246 254.501 394.012 254.562L386.866 255.231C386.627 255.271 386.404 255.376 386.221 255.536C386.038 255.695 385.902 255.902 385.83 256.133C385.335 257.838 384.678 259.492 383.868 261.072C383.786 261.375 383.774 261.693 383.832 262.002C383.89 262.31 384.016 262.602 384.202 262.855L388.026 268.763C388.416 269.365 388.505 270.09 388.226 270.391L382.274 276.823C381.995 277.124 381.371 276.968 380.88 276.488L376.031 271.684C375.541 271.205 374.917 270.982 374.515 271.182C373.11 272.002 371.614 272.653 370.056 273.122C369.831 273.219 369.635 273.373 369.487 273.568C369.338 273.763 369.243 273.994 369.209 274.237L368.161 282.43C368.137 282.67 368.026 282.892 367.85 283.056C367.674 283.22 367.443 283.315 367.203 283.322L359.4 283.065C359.153 283.018 358.93 282.889 358.766 282.698C358.602 282.508 358.507 282.268 358.497 282.017L357.995 273.98C357.964 273.683 357.855 273.4 357.679 273.159C357.503 272.918 357.266 272.728 356.992 272.609C355.703 272.095 354.467 271.456 353.302 270.703C353.094 270.533 352.841 270.427 352.574 270.397C352.307 270.367 352.037 270.416 351.797 270.536L345.867 275.675C345.555 275.942 344.942 275.675 344.496 275.162L339.669 269.198C339.461 268.993 339.317 268.733 339.254 268.448C339.191 268.163 339.211 267.866 339.312 267.593L344.15 261.094C344.277 260.82 344.343 260.521 344.343 260.219C344.343 259.917 344.277 259.618 344.15 259.344C343.562 257.925 343.092 256.46 342.746 254.963C342.689 254.675 342.556 254.408 342.36 254.19C342.163 253.972 341.911 253.811 341.631 253.726L334.719 252.611C334.472 252.55 334.253 252.406 334.099 252.203C333.945 252 333.865 251.751 333.872 251.496L334.162 242.5C334.155 242.255 334.235 242.015 334.388 241.823C334.541 241.631 334.757 241.5 334.998 241.453L342.144 240.784C342.381 240.743 342.603 240.637 342.784 240.477C342.965 240.318 343.098 240.111 343.169 239.881C343.673 238.177 344.333 236.524 345.142 234.942C345.224 234.639 345.236 234.321 345.178 234.013C345.12 233.704 344.994 233.412 344.808 233.159L340.984 227.251C340.594 226.649 340.505 225.924 340.784 225.623L346.736 219.191C347.015 218.89 347.639 219.035 348.13 219.526L352.979 224.33C353.469 224.81 354.149 225.033 354.495 224.821C355.884 224.01 357.361 223.359 358.898 222.881C359.123 222.784 359.319 222.63 359.468 222.435C359.616 222.24 359.712 222.009 359.745 221.766L360.793 213.573C360.818 213.323 360.939 213.092 361.13 212.928C361.321 212.764 361.567 212.68 361.818 212.693ZM351.44 247.572C351.162 255.966 356.836 262.967 364.104 263.179C371.372 263.39 377.48 256.802 377.77 248.408C378.06 240.015 372.375 233.003 365.107 232.802C357.839 232.602 351.674 239.178 351.44 247.572Z" fill="#0008CB"/>
<path d="M370.235 213.283C370.405 213.487 370.503 213.742 370.513 214.008L371.015 222.034C371.046 222.329 371.153 222.612 371.328 222.852C371.502 223.093 371.736 223.284 372.007 223.405C372.893 223.752 373.754 224.162 374.582 224.631L374.203 218.556C374.184 218.297 374.091 218.05 373.935 217.843L370.235 213.283Z" fill="#0008CB"/>
<path d="M370.235 213.283C370.405 213.487 370.503 213.742 370.513 214.008L371.015 222.034C371.046 222.329 371.153 222.612 371.328 222.852C371.502 223.093 371.736 223.284 372.007 223.405C372.893 223.752 373.754 224.162 374.582 224.631L374.203 218.556C374.184 218.297 374.091 218.05 373.935 217.843L370.235 213.283Z" fill="#0008CB"/>
<path opacity="0.1" d="M370.235 213.283C370.405 213.487 370.503 213.742 370.513 214.008L371.015 222.034C371.046 222.329 371.153 222.612 371.328 222.852C371.502 223.093 371.736 223.284 372.007 223.405C372.893 223.752 373.754 224.162 374.582 224.631L374.203 218.556C374.184 218.297 374.091 218.05 373.935 217.843L370.235 213.283Z" fill="black"/>
<path d="M140.422 413.79C129.989 403.3 115.452 397.548 100.771 395.675C86.0905 393.802 71.1866 395.497 56.6394 398.217C51.01 399.332 44.6895 400.346 39.9185 397.102C35.1475 393.858 33.8766 386.679 36.0281 381.195C38.1795 375.71 42.984 371.653 48.1006 368.743C66.8615 358.053 92.032 359.58 109.734 371.954C125.34 382.867 134.748 398.016 140.378 413.79" fill="#0008CB"/>
<path opacity="0.3" d="M140.422 413.79C129.989 403.3 115.452 397.548 100.771 395.675C86.0905 393.802 71.1866 395.497 56.6394 398.217C51.01 399.332 44.6895 400.346 39.9185 397.102C35.1475 393.858 33.8766 386.679 36.0281 381.195C38.1795 375.71 42.984 371.653 48.1006 368.743C66.8615 358.053 92.032 359.58 109.734 371.954C125.34 382.867 134.748 398.016 140.378 413.79" fill="black"/>
<path d="M60.7083 347.608C63.5695 347.875 66.3858 348.5 69.091 349.47C70.3172 349.916 71.4431 350.584 72.6247 351.086C73.9001 351.676 75.133 352.354 76.3145 353.115C76.0496 352.256 75.675 351.436 75.1997 350.674C73.9469 348.296 72.3296 346.13 70.4064 344.253C64.3067 338.169 57.0008 333.43 48.959 330.341C43.6505 328.283 38.0702 327.01 32.3942 326.562C24.8809 325.994 16.6765 327.142 11.2144 332.37C8.68393 334.811 6.87805 338.345 7.56918 341.789C7.8937 343.115 8.49567 344.357 9.33537 345.433C10.1751 346.509 11.2334 347.395 12.4406 348.032C14.8645 349.283 17.5213 350.02 20.2437 350.194C26.932 350.863 33.7541 349.882 40.4536 348.89C47.1532 347.898 53.9753 346.95 60.7083 347.608Z" fill="#0008CB"/>
<path opacity="0.15" d="M60.7083 347.608C63.5695 347.875 66.3858 348.5 69.091 349.47C70.3172 349.916 71.4431 350.584 72.6247 351.086C73.9001 351.676 75.133 352.354 76.3145 353.115C76.0496 352.256 75.675 351.436 75.1997 350.674C73.9469 348.296 72.3296 346.13 70.4064 344.253C64.3067 338.169 57.0008 333.43 48.959 330.341C43.6505 328.283 38.0702 327.01 32.3942 326.562C24.8809 325.994 16.6765 327.142 11.2144 332.37C8.68393 334.811 6.87805 338.345 7.56918 341.789C7.8937 343.115 8.49567 344.357 9.33537 345.433C10.1751 346.509 11.2334 347.395 12.4406 348.032C14.8645 349.283 17.5213 350.02 20.2437 350.194C26.932 350.863 33.7541 349.882 40.4536 348.89C47.1532 347.898 53.9753 346.95 60.7083 347.608Z" fill="black"/>
<path d="M58.6012 300.578C68.0653 316.641 80.7509 328.446 95.2646 339.682C88.8438 326.874 86.4025 312.851 85.4216 298.694C84.4406 284.537 87.0714 270.369 88.71 256.334C89.6353 248.375 89.4458 240.003 86.0235 232.747C82.6013 225.49 75.3556 219.637 67.3407 219.749C60.3179 219.849 53.8971 224.486 50.2408 230.484C46.5845 236.481 45.3137 243.649 45.035 250.671C44.3216 268.284 49.6388 285.373 58.6012 300.578Z" fill="#0008CB"/>
<path d="M57.9546 216.204C54.8559 217.272 52.041 219.032 49.7233 221.349C47.4056 223.667 45.646 226.482 44.5779 229.581C44.21 230.695 43.6972 232.044 42.5379 232.167C41.2114 232.312 40.4199 230.718 40.3085 229.402C39.3164 219.035 50.4636 216.093 57.9546 216.204Z" fill="#0008CB"/>
<path opacity="0.4" d="M57.9546 216.204C54.8559 217.272 52.041 219.032 49.7233 221.349C47.4056 223.667 45.646 226.482 44.5779 229.581C44.21 230.695 43.6972 232.044 42.5379 232.167C41.2114 232.312 40.4199 230.718 40.3085 229.402C39.3164 219.035 50.4636 216.093 57.9546 216.204Z" fill="white"/>
<path d="M329.079 389.377C318.433 397.526 308.1 408.729 304.666 422.072C300.43 400.625 306.729 376.68 318.311 358.532C329.458 341.02 350.549 324.578 372.531 332.961C378.105 335.101 382.931 340.05 383.611 346.014C384.202 351.287 381.571 356.515 377.826 360.26C374.08 364.006 369.287 366.514 364.572 368.922C352.377 375.12 339.936 381.061 329.079 389.377Z" fill="#0008CB"/>
<path opacity="0.15" d="M329.079 389.377C318.433 397.526 308.1 408.729 304.666 422.072C300.43 400.625 306.729 376.68 318.311 358.532C329.458 341.02 350.549 324.578 372.531 332.961C378.105 335.101 382.931 340.05 383.611 346.014C384.202 351.287 381.571 356.515 377.826 360.26C374.08 364.006 369.287 366.514 364.572 368.922C352.377 375.12 339.936 381.061 329.079 389.377Z" fill="black"/>
<path d="M306.539 291.281C306.985 298.315 310.374 306.698 312.247 312.137C315.056 320.308 317.709 329.104 315.502 337.453C321.376 329.828 326.95 321.122 329.536 311.814C332.245 301.993 331.91 290.813 324.397 283.054C319.504 278.004 309.359 277.659 307.052 285.529C306.551 287.402 306.378 289.348 306.539 291.281Z" fill="#0008CB"/>
<path opacity="0.3" d="M306.539 291.281C306.985 298.315 310.374 306.698 312.247 312.137C315.056 320.308 317.709 329.104 315.502 337.453C321.376 329.828 326.95 321.122 329.536 311.814C332.245 301.993 331.91 290.813 324.397 283.054C319.504 278.004 309.359 277.659 307.052 285.529C306.551 287.402 306.378 289.348 306.539 291.281Z" fill="black"/>
<path d="M461.798 370.56C426.896 396.422 380.423 382.443 342.21 400.937C352.154 381.217 378.183 376.624 396.498 361.743C413.386 348.009 420.553 334.922 434.309 324.132C445.657 315.214 463.515 311.993 473.804 322.092C480.559 328.78 482.031 339.549 479.088 348.556C476.145 357.563 469.412 364.92 461.798 370.56Z" fill="#0008CB"/>
<path d="M425.302 273.635C421.936 277.808 419.551 282.684 418.324 287.903C416.585 295.472 416.708 303.32 416.83 311.078C419.316 303.9 424.633 297.936 430.876 293.633C439.794 287.469 450.35 284.347 460.973 282.486C463.686 282.152 466.352 281.512 468.921 280.58C470.207 280.11 471.387 279.391 472.394 278.463C473.4 277.535 474.213 276.417 474.785 275.173C475.586 272.893 475.486 270.393 474.506 268.184C472.277 262.733 467.049 260.381 461.52 259.266C447.864 256.702 433.763 263.023 425.302 273.635Z" fill="#0008CB"/>
<path opacity="0.5" d="M425.302 273.635C421.936 277.808 419.551 282.684 418.324 287.903C416.585 295.472 416.708 303.32 416.83 311.078C419.316 303.9 424.633 297.936 430.876 293.633C439.794 287.469 450.35 284.347 460.973 282.486C463.686 282.152 466.352 281.512 468.921 280.58C470.207 280.11 471.387 279.391 472.394 278.463C473.4 277.535 474.213 276.417 474.785 275.173C475.586 272.893 475.486 270.393 474.506 268.184C472.277 262.733 467.049 260.381 461.52 259.266C447.864 256.702 433.763 263.023 425.302 273.635Z" fill="white"/>
<path d="M368.708 317.789C365.457 317.227 362.113 317.614 359.076 318.904C355.64 320.446 352.815 323.09 351.05 326.417C351.674 325.236 356.624 324.745 357.861 324.589C362.137 323.99 366.479 324.051 370.736 324.767C372.903 325.185 375.013 325.855 377.023 326.763C377.804 327.108 382.196 328.992 382.251 329.85C382.006 325.793 379.175 322.215 375.641 320.197C373.494 318.984 371.145 318.168 368.708 317.789Z" fill="#0008CB"/>
</svg>
