<svg width="330" height="101" viewBox="0 0 330 101" fill="none" xmlns="http://www.w3.org/2000/svg">
<path fill-rule="evenodd" clip-rule="evenodd" d="M84.3999 91.5597C80.4461 91.8541 57.6087 93.4253 55.7409 92.604C59.0604 91.3352 65.8957 90.3556 69.9923 89.1964C74.5406 87.9106 80.2908 86.7779 85.0564 86.1308L84.3999 91.5597ZM208.691 24.4145C210.41 28.5187 211.21 29.7429 210.883 34.7243C210.601 39.036 208.49 47.9443 206.427 51.3565C205.157 50.7556 202.278 47.6586 200.505 46.3944C198.458 44.9347 196.135 43.5329 194.092 42.159C194.202 34.3649 201.544 26.3221 208.691 24.4145ZM211.316 -0.421509C210.558 0.456853 210.686 0.623153 210.356 1.86511C210.072 2.93055 209.99 3.16829 209.382 4.32407C206.302 10.1876 201.798 14.2465 196.403 18.0642C194.984 19.0684 193.757 19.8874 192.405 20.9755C187.645 24.8019 184.457 29.4371 183.053 35.3483L175.382 32.6327C177.942 28.0342 179.585 27.6313 181.082 24.8057C176.604 25.9468 176.329 32.3761 170.835 31.5866C171.057 30.2274 171.405 29.9576 172.047 29.0958C174.331 26.0288 180.789 13.1652 181.031 10.6676C179.294 12.526 176.387 18.2906 174.858 21.101C173.856 22.9439 173.059 24.6874 172.081 26.5201C171.439 27.7243 171.287 28.2685 170.741 29.495C170.018 31.1228 169.98 31.3424 168.065 31.1969C168.903 26.7216 172.275 24.4743 172.444 19.2725C170.041 21.9106 168.368 28.1857 166.481 30.396C165.794 30.6201 154.983 29.207 152.056 29.4179C149.51 29.6015 147.14 29.5898 144.662 30.1636C142.337 30.7014 139.677 31.4199 137.454 31.6417L120.452 14.3855C122.096 17.3268 129.089 25.4592 131.557 28.2137L134.543 31.7162C135.197 32.9835 135.162 32.1017 134.395 32.8296L132.438 33.4861C131.419 32.1274 130.215 30.5997 128.906 29.7799L130.907 33.4223C130.693 34.1736 130.581 34.2984 130.158 34.8744L127.124 35.6363C125.92 33.5553 120.221 25.4649 118.303 24.8314C119.848 27.6846 125.312 34.0788 126.184 36.0022L121.612 37.3708C118.605 33.4007 120.765 35.2818 116.262 29.693C115.395 28.6159 114.88 27.9321 114.102 27.1297C111.058 23.9923 107.502 21.6789 102.635 19.6232C98.9284 18.0585 96.0106 17.0327 93.1363 15.6713C88.8374 13.6349 86.5141 11.9364 83.4134 8.40408C82.193 7.01321 81.3774 5.21037 80.2141 4.13094C77.1757 7.59336 76.1216 39.0443 78.6985 48.6666C80.1967 54.2596 84.6252 65.8873 87.5762 70.4794C88.6277 72.1152 88.9368 72.1999 88.1204 74.5216C84.1969 85.6758 88.7603 83.9833 75.5055 86.076C64.3612 87.8358 53.7056 92.1958 46.3279 92.8138C38.9393 93.4325 31.1679 92.8387 23.5899 93.62C16.4576 94.3551 7.36214 93.3134 0 93.7568V96.088C10.1926 96.0321 19.5568 96.3287 29.658 95.7165C45.1945 94.7738 60.0722 96.7899 73.6293 94.9333C78.8493 94.2186 94.8189 94.936 103.945 94.3203C106.225 94.1665 116.321 92.748 118.253 93.7908C116.844 95.3861 112.274 98.1002 110.403 99.8286C108.695 101.404 112.34 100.571 113.444 99.7707L116.138 97.8182C117.812 96.5993 119.06 95.7565 120.717 94.6355C122.892 93.1637 124.056 92.9079 127.222 92.8826C132.197 92.8425 137.748 92.0416 142.606 92.6067C148.416 93.2824 161.4 91.1421 172.777 92.3345C177.448 92.8247 183.196 92.0136 187.445 92.7325C189.715 93.1173 191.262 93.7072 193.367 94.5111C194.607 94.9851 194.96 95.162 196.263 95.4591C199.335 96.1598 199.138 95.1816 199.27 95.0762C197.972 94.4783 195.208 93.3474 194.205 92.2226C201.579 92.1236 207.547 91.206 214.624 89.8518C218.705 89.0709 232.829 89.3672 236.998 90.0959C239.739 90.5755 249.003 91.2714 257.068 91.8515C264.666 92.3988 271.697 91.3284 279.207 91.8878L301.863 92.4309C304.295 92.4589 304.953 91.9883 307.023 91.8882C314.652 91.5197 321.703 92.0439 329.503 92.2707V90.2089C327.946 90.187 326.362 90.1503 324.737 90.097C319.527 89.9266 314.727 90.2029 309.626 90.1246H252.441V89.1639C246.097 88.6843 238.957 87.9869 233.742 87.8781C231.857 87.858 230.021 87.8758 228.128 87.8184C227.209 87.7904 226.074 87.7745 225.178 87.6668L223.075 87.1698C222.996 87.1441 222.851 87.0938 222.742 87.0496L222.14 81.3391C225.564 81.0916 228.858 81.5508 232.164 80.9113C235.089 80.3451 238.908 80.5069 242.277 80.3183C238.398 78.2755 224.282 80.0843 222.27 78.5457C221.49 77.591 221.167 75.1524 220.629 73.6905C220.019 72.0313 219.262 70.3948 219.063 68.7303C223.157 67.8262 227.585 67.0839 231.72 66.3155L243.684 63.2492C236.862 62.1845 221.847 66.6122 217.785 66.4557C216.673 65.0645 215.817 63.2662 214.905 61.7192C213.143 58.7277 214.665 58.2235 216.386 54.2025C220.232 45.2216 219.908 26.3058 218.979 16.9923C218.101 8.1894 215.967 0.45572 211.316 -0.421509ZM126.125 49.9981C130.755 47.3869 135.797 46.6756 140.177 50.1119C145.398 54.2059 148.704 60.5101 145.011 67.1047L138.435 67.1459C140.181 64.6094 144.053 62.9355 141.548 55.7547C139.869 50.9404 128.66 44.7416 125.343 60.4277C124.733 63.3138 124.668 64.9662 126.001 67.3991C127.782 70.6495 127.889 69.3183 130.609 70.0678C129.876 71.0607 125.003 75.0107 120.21 75.841C118.685 76.1052 117.168 76.0542 115.795 75.4914C110.601 73.6406 111.347 65.2104 114.045 61.5238C117.224 57.1819 121.319 52.7103 126.125 49.9981ZM146.242 77.2784C151.512 77.012 158.811 74.1478 164.435 75.9469C164.395 82.7285 158.264 87.1411 156.371 86.2741C152.985 84.7222 147.271 81.081 146.242 77.2784ZM170.656 63.4658C166.443 63.7813 165.248 63.4056 162.296 62.6191C160.295 60.0763 164.174 52.078 170.431 48.0426C178.192 43.037 186.797 47.419 192.977 52.832C198.409 57.5916 203.452 64.3078 198.504 69.3372C197.853 69.9446 197.051 70.4889 196.15 70.95C191.215 73.4728 183.285 73.5147 180.658 67.9154L181.169 67.534C181.389 67.4021 181.502 67.325 181.724 67.2075C189.119 63.2817 189.498 57.7269 185.884 53.1257C185.763 52.9719 185.637 52.8188 185.507 52.6673C184.767 51.8018 183.884 50.9733 182.881 50.2011C181.458 49.4898 182.042 49.8005 180.393 49.2487C179.219 49.0366 178.144 48.9055 177.167 48.8719C172.404 48.7082 169.958 50.8614 169.578 57.2798C169.425 59.8491 170.864 61.3042 170.656 63.4658ZM93.583 62.31C90.9396 58.1472 87.3646 46.3388 88.5842 40.5206C89.6776 35.3049 90.0798 31.0707 93.0932 31.0219C94.9947 30.9917 102.519 32.8361 104.289 33.5066C107.885 34.8683 110.486 36.8246 111.878 40.1472C113.438 43.8715 111.498 43.5907 106.748 47.4504C105.949 48.1001 105.586 48.5903 104.716 49.2815C101.303 51.9922 102.621 50.8036 99.4968 54.43C95.9936 58.4976 95.5888 60.1439 94.4973 61.5042C93.8037 62.3682 94.2372 61.9222 93.583 62.31Z" fill="black"/>
<path fill-rule="evenodd" clip-rule="evenodd" d="M293.373 90.2237C295.24 85.9475 304.547 77.4802 302.281 62.8705C301.545 58.1287 300.083 53.1416 297.149 50.3239C294.619 47.8952 290.176 44.4521 285.615 43.7589C277.194 42.4796 271.746 45.886 267.948 52.1396C263.694 59.1431 270.723 68.6611 274.378 70.0644C279.29 71.9504 284.085 71.3585 288.317 67.9967C288.414 65.8729 287.873 66.023 287.676 64.4624C287.43 62.5167 289.03 60.7313 286.166 59.9939C282.642 59.0868 284.338 62.7495 277.321 65.0694C271.97 61.5355 274.194 52.9791 280.039 51.2847C296.378 46.5482 300.902 67.167 290.725 81.8592C287.235 86.8977 285.625 89.2637 282.789 90.2237H293.373Z" fill="black"/>
<path fill-rule="evenodd" clip-rule="evenodd" d="M173.25 52.5478C170.703 54.2807 173.336 59.6427 176.306 57.2008C177.05 56.4691 176.923 56.4309 177.198 54.9924C178.004 50.7866 173.335 52.4896 173.25 52.5478Z" fill="#FEFEFE" stroke="black" stroke-width="0.755906" stroke-miterlimit="22.9256"/>
<path fill-rule="evenodd" clip-rule="evenodd" d="M138.285 53.9954C138.199 53.9372 133.53 52.2341 134.336 56.4399C134.612 57.8781 134.485 57.9166 135.228 58.6483C138.198 61.0903 140.83 55.7283 138.285 53.9954Z" fill="#FEFEFE" stroke="black" stroke-width="0.755906" stroke-miterlimit="22.9256"/>
</svg>
