<svg width="113" height="145" viewBox="0 0 113 145" fill="none" xmlns="http://www.w3.org/2000/svg">
<g filter="url(#filter0_i_23_7)">
<path d="M82.7 144.85C75.1667 144.85 69.6333 142.95 66.1 139.15C62.5667 135.35 60.8 129.05 60.8 120.25C60.8 113.25 61.9667 105.717 64.3 97.65C66.7 89.5833 70.5 82.6833 75.7 76.95C80.9667 71.15 87.6333 68.25 95.7 68.25C100.7 68.25 104.733 69.35 107.8 71.55C110.867 73.75 112.4 77.1167 112.4 81.65C112.4 84.5167 111.833 86.7833 110.7 88.45C109.567 90.05 107.8 90.85 105.4 90.85C103 90.85 101.1 89.9833 99.7 88.25C100.9 87.65 101.967 86.45 102.9 84.65C103.833 82.85 104.3 80.9833 104.3 79.05C104.3 77.25 103.8 75.7833 102.8 74.65C101.867 73.5167 100.333 72.95 98.2 72.95C94.6667 72.95 91.3 75.3833 88.1 80.25C84.9 85.05 82.3 91.1167 80.3 98.45C78.3667 105.783 77.4 112.85 77.4 119.65C77.4 124.717 78.2667 128.583 80 131.25C81.7333 133.917 84.8667 135.25 89.4 135.25C93.3333 135.25 96.9667 134.383 100.3 132.65C103.633 130.917 106.5 128.45 108.9 125.25L111.2 126.25C109.533 130.45 107.067 133.95 103.8 136.75C100.533 139.55 97.0333 141.617 93.3 142.95C89.5667 144.217 86.0333 144.85 82.7 144.85Z" fill="white"/>
<path d="M31.65 115.95C25.35 115.95 19.8 114.85 15 112.65C10.2 110.45 6.5 107.4 3.9 103.5C1.3 99.5 0 94.9 0 89.7C0 85.3 0.9 81.3 2.7 77.7C4.6 74.1 7.1 71.25 10.2 69.15C13.4 67.05 16.9 66 20.7 66C24.2 66 27.15 66.9 29.55 68.7C31.95 70.4 33.45 72.8 34.05 75.9C28.85 75.9 24.7 77.3 21.6 80.1C18.5 82.8 16.95 86.5 16.95 91.2C16.95 95.5 18.25 98.95 20.85 101.55C23.45 104.15 26.9 105.45 31.2 105.45C36.5 105.45 40.85 103.7 44.25 100.2C47.75 96.6 49.5 92.1 49.5 86.7C49.5 82 48.2 77.55 45.6 73.35C43 69.15 39.1 64.05 33.9 58.05C28.5 51.85 24.4 46.55 21.6 42.15C18.9 37.65 17.55 32.75 17.55 27.45C17.55 22.25 19 17.6 21.9 13.5C24.8 9.3 28.8 6.00001 33.9 3.60001C39 1.2 44.75 0 51.15 0C59.25 0 65.7 1.9 70.5 5.70001C75.4 9.50001 77.85 14.6 77.85 21C77.85 25.2 76.8 28.6 74.7 31.2C72.6 33.8 69.85 35.1 66.45 35.1C62.65 35.1 59.6 33.55 57.3 30.45C59.2 29.05 60.7 27.2 61.8 24.9C62.9 22.6 63.45 20.2 63.45 17.7C63.45 14.5 62.5 11.95 60.6 10.05C58.7 8.15001 56.1 7.20001 52.8 7.20001C48.8 7.20001 45.5 8.65 42.9 11.55C40.4 14.35 39.15 17.95 39.15 22.35C39.15 26.35 40.3 30.1 42.6 33.6C44.9 37 48.5 41.4 53.4 46.8C57.4 51.1 60.6 54.8 63 57.9C65.5 61 67.6 64.6 69.3 68.7C71.1 72.7 72 77.05 72 81.75C72 88.15 70.2 93.95 66.6 99.15C63.1 104.35 58.25 108.45 52.05 111.45C45.95 114.45 39.15 115.95 31.65 115.95Z" fill="white"/>
</g>
<defs>
<filter id="filter0_i_23_7" x="0" y="0" width="112.4" height="148.85" filterUnits="userSpaceOnUse" color-interpolation-filters="sRGB">
<feFlood flood-opacity="0" result="BackgroundImageFix"/>
<feBlend mode="normal" in="SourceGraphic" in2="BackgroundImageFix" result="shape"/>
<feColorMatrix in="SourceAlpha" type="matrix" values="0 0 0 0 0 0 0 0 0 0 0 0 0 0 0 0 0 0 127 0" result="hardAlpha"/>
<feOffset dy="4"/>
<feGaussianBlur stdDeviation="2"/>
<feComposite in2="hardAlpha" operator="arithmetic" k2="-1" k3="1"/>
<feColorMatrix type="matrix" values="0 0 0 0 0 0 0 0 0 0 0 0 0 0 0 0 0 0 0.25 0"/>
<feBlend mode="normal" in2="shape" result="effect1_innerShadow_23_7"/>
</filter>
</defs>
</svg>
