<?xml version="1.0" encoding="UTF-8"?>
<!DOCTYPE svg PUBLIC "-//W3C//DTD SVG 1.1//EN" "http://www.w3.org/Graphics/SVG/1.1/DTD/svg11.dtd">
<!-- Creator: CorelDRAW X6 -->
<svg xmlns="http://www.w3.org/2000/svg" xml:space="preserve" width="51.4997mm" height="58.3973mm" version="1.1" style="shape-rendering:geometricPrecision; text-rendering:geometricPrecision; image-rendering:optimizeQuality; fill-rule:evenodd; clip-rule:evenodd"
viewBox="0 0 4385 4973"
 xmlns:xlink="http://www.w3.org/1999/xlink">
 <defs>
  <style type="text/css">
   <![CDATA[
    .fil6 {fill:#008DD2}
    .fil4 {fill:#57A7B3}
    .fil3 {fill:#6EB535}
    .fil10 {fill:#7690C9}
    .fil1 {fill:#834E98}
    .fil7 {fill:#96A7B1}
    .fil12 {fill:#CB5499}
    .fil9 {fill:#CC6F3C}
    .fil2 {fill:#E31E24}
    .fil11 {fill:#E51A4B}
    .fil8 {fill:#EA556F}
    .fil5 {fill:#EF7F1A}
    .fil0 {fill:#4F4F4E}
   ]]>
  </style>
 </defs>
 <g id="Layer_x0020_1">
  <metadata id="CorelCorpID_0Corel-Layer"/>
  <g id="_679828648">
   <path class="fil0" d="M2273 954c-27,-29 -19,-231 -24,-293 -6,-69 5,-66 31,-113 64,-115 89,-240 42,-370 -25,-69 -75,-150 -127,-179 -98,70 -195,260 -130,443 14,39 33,75 51,107 33,58 37,35 31,111 -5,65 4,245 -21,287 -34,-25 -11,-92 -23,-161 -24,-140 -167,-273 -277,-277 -76,177 -15,347 97,437 127,103 64,4 165,140 31,41 21,74 21,134 0,50 2,104 -2,153 -15,-16 -33,-50 -50,-72 -22,-27 -35,-42 -52,-62l-56 -65c-152,-185 -119,-95 -246,-339 -61,-117 28,-191 -57,-387 -24,-56 -64,-101 -102,-133 -28,-24 -109,-75 -148,-86 -64,143 -65,280 19,424 37,63 79,99 130,137 36,27 70,138 72,187 -117,-103 -172,-163 -356,-114 -5,122 119,220 221,244 71,17 184,-8 195,-4 83,28 285,286 332,361 103,162 76,167 79,380l-128 -178c-35,-47 -39,-32 -51,-101 -35,-192 -176,-332 -396,-354 0,262 92,383 291,451 35,12 34,15 53,44 13,19 22,33 35,54 82,130 145,235 154,405l-29 -28c-47,-59 -105,-110 -148,-163 -56,-70 -110,-121 -183,-173 -240,-170 -160,-219 -265,-447 -65,-142 -219,-232 -253,-288 -16,-26 -33,-92 -51,-127 -74,-146 -243,-263 -472,-227 29,211 165,367 363,405 102,20 71,4 125,66 17,19 31,27 47,48 17,22 26,31 45,50 37,37 127,185 136,242 -18,-10 -62,-24 -74,-37 -57,-54 -151,-302 -511,-243 -9,54 64,167 89,201 33,45 107,96 174,124 100,42 169,14 239,60 81,53 116,42 164,139 -154,1 -270,-13 -391,-71 -445,-215 -237,-140 -394,-292 -91,-89 -190,-135 -330,-128 -35,2 -68,7 -100,15l-80 36c32,115 173,249 286,287 77,26 170,31 259,20 45,-6 64,19 94,41 26,18 68,46 79,59 -93,-4 -160,-5 -234,27 -48,20 -123,81 -137,128 84,32 130,95 271,67 138,-27 175,-126 208,-140 29,-1 134,46 172,56 125,34 266,43 394,62 61,9 116,31 155,80 -64,-5 -153,-33 -224,-45 -171,-29 -305,24 -469,48 -74,11 -151,21 -228,31 -136,18 -100,21 -210,-25 -194,-81 -475,-38 -565,148 171,175 446,170 632,18 48,-39 27,-40 109,-38 45,1 89,5 134,7 -16,29 -45,58 -65,89 -40,61 -173,57 -271,167 -127,142 -136,196 -154,439 134,8 283,-60 358,-126 82,-72 131,-176 147,-329 6,-59 3,-53 36,-85 40,-39 148,-167 183,-180 97,-35 322,-46 423,-10 -55,30 -97,55 -143,88 -26,18 -120,30 -177,59 -89,45 -177,150 -193,271 206,22 314,-82 388,-197l26 25c-10,19 -27,31 -42,54 -123,182 -68,421 37,461 17,-20 36,-33 54,-52 238,-257 52,-502 40,-545 38,-31 142,-68 209,-58 80,11 133,59 164,98 94,117 107,235 91,424 -30,374 -57,539 -445,612 -152,29 -282,64 -415,112 -96,35 -307,115 -321,206 -13,82 47,139 129,128 54,-7 125,-64 169,-90 203,-117 396,-125 617,-179 70,-17 134,-39 205,-55 152,-32 328,-28 468,25 138,52 235,131 307,221 111,140 106,195 166,362 38,106 188,363 299,360 55,-1 176,-75 24,-227 -105,-106 -126,-183 -172,-356 -28,-105 -70,-181 -141,-253 -21,-22 -46,-38 -66,-62 85,6 353,89 423,124 95,46 272,216 348,71 110,-210 -548,-359 -683,-383 -204,-37 -272,-35 -382,-166 -88,-105 -107,-285 -113,-426 -7,-186 -16,-318 84,-442 136,-169 257,-100 379,-48 -11,44 -51,94 -66,152 -46,178 52,395 167,445 60,-47 107,-141 99,-253 -12,-161 -83,-187 -104,-248l18 -24 33 42c32,43 64,70 113,96 76,40 140,52 238,42 1,-48 -46,-133 -68,-161 -36,-47 -72,-78 -126,-108 -63,-35 -150,-36 -178,-57 -50,-37 -91,-52 -144,-85 90,-43 334,-23 424,8 44,15 89,83 124,118 51,51 87,63 99,142 26,167 47,243 148,335 84,76 210,119 360,127 -7,-279 -98,-468 -340,-554 -59,-21 -58,-9 -91,-56 -22,-31 -44,-55 -63,-87 49,0 93,-6 143,-6 71,-1 62,12 104,43 195,143 467,149 624,-23 -17,-44 -92,-104 -135,-130 -123,-73 -301,-71 -429,-17 -111,47 -73,41 -211,23 -79,-10 -160,-19 -235,-31 -84,-13 -142,-33 -226,-44 -280,-40 -281,27 -462,45 145,-135 324,-77 557,-145 50,-15 125,-54 165,-62l88 89c119,86 284,71 389,-14 -16,-47 -82,-103 -136,-125 -75,-31 -133,-31 -224,-29 18,-17 58,-43 83,-60 31,-20 53,-44 97,-40 175,18 311,-12 428,-135 40,-41 92,-106 109,-172 -79,-70 -283,-61 -380,-16 -170,79 -172,177 -229,228 -35,32 -245,134 -299,159 -109,50 -246,79 -389,68 12,-27 44,-70 68,-85 202,-128 173,-49 336,-114 140,-56 267,-200 274,-325 -218,-14 -354,16 -478,185 -60,81 -32,55 -123,97 28,-73 88,-189 143,-242 165,-160 70,-132 217,-165 104,-23 192,-79 241,-140 54,-67 108,-151 115,-264 -215,-32 -374,50 -468,235 -16,31 -39,107 -52,125 -11,14 -35,31 -47,42 -262,232 -183,243 -295,505 -62,145 -181,160 -273,261 -78,86 -164,162 -234,255l-22 25c16,-173 65,-268 154,-402 24,-36 44,-82 88,-97 207,-72 286,-186 290,-452 -177,13 -302,119 -361,250 -52,116 -5,97 -90,209 -40,53 -76,118 -119,168l-7 7c10,-202 -31,-209 83,-383 61,-93 135,-179 205,-252 17,-18 98,-96 124,-104 22,-7 126,19 195,3 106,-24 220,-109 223,-239 -226,-71 -268,48 -354,99 2,-38 18,-72 30,-106 41,-119 111,-97 178,-217 31,-55 53,-131 54,-206 1,-67 -9,-176 -44,-216 -175,65 -284,227 -291,413 -3,99 32,109 -13,199 -86,173 -76,142 -193,277 -19,22 -42,41 -58,62l-158 196c-1,-52 -1,-104 -1,-156 0,-68 -10,-83 25,-130 28,-37 27,-57 74,-78 98,-44 179,-139 211,-247 21,-68 15,-202 -29,-249 -39,3 -104,39 -132,57 -39,25 -68,56 -91,93 -30,46 -45,85 -53,139 -8,56 13,112 -15,156z"/>
   <path class="fil0" d="M2059 3827c119,-17 267,30 338,89 156,129 64,264 288,576 31,43 65,79 97,119 143,177 232,47 227,-23 -4,-52 -62,-102 -88,-128 -292,-288 -145,-603 -523,-774 -258,-117 -471,-39 -722,26 -231,60 -429,85 -639,226 -45,30 -92,63 -83,135 7,55 65,97 132,80 46,-12 97,-57 135,-82 43,-28 95,-53 145,-72 102,-38 579,-156 693,-172z"/>
   <path class="fil0" d="M2066 4183c128,-18 130,80 160,176 43,138 241,483 353,504 54,10 93,-19 109,-51 49,-100 -65,-162 -108,-215 -46,-56 -95,-132 -129,-208 -32,-73 -85,-244 -90,-253 -150,-283 -463,-101 -750,-45 -117,23 -418,136 -465,215 -52,87 44,189 155,129 72,-39 137,-83 225,-113l541 -140z"/>
   <path class="fil0" d="M1935 4580c14,22 22,51 33,75 28,58 177,283 217,305 61,33 127,-5 142,-51 24,-74 -28,-114 -55,-151 -29,-38 -59,-83 -85,-124 -82,-133 -75,-231 -151,-261 -58,-24 -124,5 -177,19 -102,27 -408,93 -457,170 -35,55 -18,223 209,108 60,-30 247,-85 325,-90z"/>
   <path class="fil1" d="M3574 3107c49,-143 -36,-360 -194,-440 -31,-16 -137,-52 -179,-35 -30,12 2,165 8,188 40,156 212,290 366,288z"/>
   <path class="fil2" d="M815 3101c45,24 212,-49 292,-136 75,-82 97,-188 96,-333 -306,-31 -427,300 -388,468z"/>
   <path class="fil0" d="M3107 3977c18,46 109,118 162,154 84,57 189,4 167,-102 -13,-59 -111,-113 -168,-151 -113,-75 -191,22 -160,99z"/>
   <path class="fil3" d="M2427 404c217,-6 304,-105 302,-323 -79,-1 -176,48 -216,90 -54,56 -72,135 -86,233z"/>
   <path class="fil4" d="M1965 404c-13,-103 -28,-169 -83,-229 -44,-47 -124,-90 -214,-94 -10,112 13,181 69,239 62,65 104,82 228,84z"/>
   <path class="fil5" d="M1320 731c-19,-102 -31,-151 -93,-213 -48,-47 -136,-87 -230,-77 -19,76 51,187 84,217 53,48 138,85 240,73z"/>
   <path class="fil6" d="M3078 732c62,23 198,-42 229,-71 48,-45 95,-129 91,-218 -155,-34 -286,113 -320,258l-2 27c0,1 0,3 1,4z"/>
   <path class="fil7" d="M3971 1773c21,40 150,90 220,70 75,-21 138,-77 162,-133 -50,-41 -142,-65 -220,-47 -71,16 -121,55 -162,109z"/>
   <path class="fil8" d="M33 1707c13,26 -1,12 31,51 117,141 236,90 353,22 -7,-17 -52,-62 -68,-73 -108,-76 -218,-54 -316,0z"/>
   <path class="fil9" d="M3667 1159c54,19 64,23 125,14 118,-17 213,-119 215,-212 -169,-37 -317,77 -340,198z"/>
   <path class="fil10" d="M720 1161c-10,-57 -78,-135 -115,-161 -60,-43 -138,-54 -225,-38 38,151 152,250 340,199z"/>
   <path class="fil11" d="M3985 2415c45,174 172,182 311,173 -20,-168 -162,-224 -301,-177l-10 4z"/>
   <path class="fil12" d="M96 2587c89,5 139,13 210,-29 45,-26 84,-81 98,-144 -75,-21 -147,-37 -213,10 -48,34 -88,80 -95,163z"/>
   <path class="fil0" d="M1960 4918c0,-35 -59,-111 -82,-140 -57,-71 -309,29 -87,131 62,29 108,43 169,9z"/>
  </g>
 </g>
</svg>
