<?xml version="1.0" encoding="UTF-8"?>
<!DOCTYPE svg PUBLIC "-//W3C//DTD SVG 1.1//EN" "http://www.w3.org/Graphics/SVG/1.1/DTD/svg11.dtd">
<!-- Creator: CorelDRAW X6 -->
<svg xmlns="http://www.w3.org/2000/svg" xml:space="preserve" width="51.2663mm" height="60.4347mm" version="1.1" style="shape-rendering:geometricPrecision; text-rendering:geometricPrecision; image-rendering:optimizeQuality; fill-rule:evenodd; clip-rule:evenodd"
viewBox="0 0 1519 1791"
 xmlns:xlink="http://www.w3.org/1999/xlink">
 <defs>
  <style type="text/css">
   <![CDATA[
    .fil2 {fill:#FEFEFE}
    .fil3 {fill:#414A4E}
    .fil1 {fill:url(#id1)}
    .fil0 {fill:url(#id2)}
   ]]>
  </style>
    <clipPath id="id0">
     <path d="M13 1791l1506 0 -13 -150 -1506 0 13 150z"/>
    </clipPath>
  <linearGradient id="id1" gradientUnits="userSpaceOnUse" x1="1167.08" y1="1373.8" x2="321.819" y2="810.286">
   <stop offset="0" style="stop-color:#19AFC1"/>
   <stop offset="0.290196" style="stop-color:#00A8C6"/>
   <stop offset="0.839216" style="stop-color:#FEFEFE"/>
   <stop offset="1" style="stop-color:#FEFEFE"/>
  </linearGradient>
  <radialGradient id="id2" gradientUnits="userSpaceOnUse" cx="754.556" cy="844.85" r="828.287" fx="754.556" fy="844.85">
   <stop offset="0" style="stop-color:#FEFEFE"/>
   <stop offset="0.270588" style="stop-color:#D8D8D8"/>
   <stop offset="1" style="stop-color:#B2B3B3"/>
  </radialGradient>
 </defs>
 <g id="Layer_x0020_1">
  <metadata id="CorelCorpID_0Corel-Layer"/>
  <g id="_333120944">
   <g style="clip-path:url(#id0)">
    <image transform="matrix(1 0 0 1 -2563.31 4964.51)" x="2563" y="-3324" width="1519" height="150" xlink:href="My Geno Root logo_Images\My Geno Root logo_ImgID1.png"/>
   </g>
  </g>
  <path class="fil0" d="M721 0l64 0c36,2 72,9 113,19 28,7 90,33 114,48 7,4 12,8 19,12 55,38 41,27 87,70 7,7 10,7 17,15l57 73c12,16 37,62 45,82 18,45 18,37 34,96 17,61 17,96 17,157 0,117 -93,308 -154,409l-321 544c-91,152 -55,171 -115,68 -85,-147 -166,-299 -251,-447 -58,-101 -86,-152 -137,-263l-44 -109c-5,-13 -7,-23 -12,-36 -31,-96 -36,-110 -36,-211 0,-39 10,-83 18,-114 24,-92 62,-164 123,-233l48 -50c17,-15 73,-55 92,-65 37,-18 70,-35 112,-46 39,-10 75,-16 109,-19z"/>
  <polygon class="fil1" points="569,978 681,849 695,837 722,799 926,998 934,1181 708,1385 683,1357 555,1194 "/>
  <path class="fil2" d="M738 95c150,0 272,155 272,346 0,93 -29,178 -76,240 -9,11 -70,87 -114,130 -17,17 -43,27 -45,28 -27,13 -74,-54 -92,-58 -124,-32 -217,-172 -217,-339 0,-191 122,-346 272,-346z"/>
  <g id="_333066304">
   <path class="fil3" d="M848 1214c-3,38 -71,32 -111,31 -59,-1 -96,7 -111,-29 26,-15 184,-7 221,-2zm-253 -57c48,-2 94,-6 142,-6 48,0 95,6 142,6 0,14 -4,22 -13,27 -19,12 -226,5 -263,3 -4,-8 -11,-17 -9,-29zm-12 -60c72,-1 245,-10 309,1 2,43 -12,28 -56,30 -78,4 -175,6 -253,-4l0 -28zm7 -58c102,-5 145,-5 243,-1 41,2 54,-10 55,31 -66,4 -243,12 -298,-3 -2,-4 -1,4 -2,-7 -1,-6 0,-1 0,-5 0,-3 2,-11 2,-15zm31 -58c44,-4 94,-4 138,-4 48,1 100,-7 105,32 -69,12 -186,8 -258,-1l15 -27zm29 -27c0,-11 19,-27 27,-29 9,-2 45,0 57,0 51,-1 57,-11 85,25l-11 5c-12,3 -62,3 -74,3 -27,-1 -57,-1 -84,-4zm-64 -775c17,-41 199,-101 298,-10 31,28 5,37 34,69 13,14 29,38 40,59 12,22 49,143 28,167 -17,-11 -6,-287 -249,-286 -229,1 -230,277 -246,288 -21,-23 13,-130 25,-155 39,-82 120,-145 215,-149 82,-3 95,28 145,39 -4,-47 -86,-66 -139,-65 -35,1 -83,12 -138,39 -7,4 -12,5 -13,4zm27 590c33,31 59,52 94,79 13,10 55,45 59,57 -63,-11 -15,-4 -65,-6 9,-27 24,-22 -5,-45 -10,-8 -11,-12 -24,-7 -45,19 -129,122 -148,164 -28,85 -12,146 28,210 17,27 95,120 127,135 5,3 6,3 10,0 11,-9 45,-37 58,-47 18,-14 -16,-11 -23,-11 -17,0 -43,-3 -53,-30 14,-1 109,-4 123,5 -11,12 -22,23 -32,35 -25,27 -52,51 -82,73 -54,40 -119,73 -183,69 -31,-2 -81,-11 -109,-4 -46,11 -73,-28 -91,-13l47 30c-23,62 -117,40 -159,54 26,33 137,-3 166,-25 20,-15 34,-38 69,-35 17,1 73,12 87,18 -9,17 -89,59 -115,70 -60,25 -106,15 -155,30 34,17 141,2 177,-8 35,-9 127,-53 144,-54 6,77 -39,89 -75,115 26,13 73,-41 82,-53 17,-21 17,-51 36,-73 11,-13 109,-83 130,-87 13,9 34,29 64,34 26,7 41,65 107,83 26,7 54,9 80,15 24,6 30,15 35,24 4,7 20,46 30,52 -1,-20 -14,-67 -24,-77 -37,-37 -125,-23 -111,-65 47,-23 158,44 192,60 38,18 174,51 219,32 -2,-1 -110,-20 -132,-27 -30,-10 -92,-37 -101,-59l30 -13 -130 -22c8,-42 38,-36 49,-61 -38,1 -52,55 -137,42 -38,-6 -109,-41 -118,-64 37,-52 281,-201 137,-403 -8,-12 -23,-27 -38,-42 -47,-46 -71,-64 -121,-102 -39,-30 -86,-69 -99,-80 -44,-38 -96,-82 -122,-149 -60,-152 9,-333 127,-378 169,-64 274,81 285,234 14,194 -102,264 -202,344l42 36c28,-1 126,-106 145,-130 157,-194 91,-480 -72,-578 -61,-37 -154,-44 -224,-16 -130,52 -199,221 -191,360 7,129 70,222 162,306z"/>
   <path class="fil3" d="M713 244c245,-41 279,416 55,457 -113,20 -202,-96 -207,-201 -6,-129 44,-238 151,-256zm-2 -24c-254,47 -222,534 57,503 250,-28 222,-555 -57,-503z"/>
   <path class="fil3" d="M739 504c-32,13 -27,-53 -24,-75 6,-40 47,-34 52,0 8,49 -2,158 -67,108 -35,-27 -31,-129 -2,-158 17,-17 50,-26 75,-8 25,17 22,38 32,67l18 -2c11,-77 -93,-141 -147,-64 -37,52 -35,188 44,196 96,9 86,-149 47,-181 -90,-72 -98,174 -27,137 15,-12 25,-95 6,-107 -37,10 -4,79 -5,86z"/>
   <path class="fil3" d="M670 653c14,-39 -56,-55 -68,-135 -19,-131 52,-275 179,-230 89,32 65,106 108,103 -1,-53 -58,-111 -103,-127 -133,-47 -226,99 -207,245 7,51 52,141 91,143z"/>
   <path class="fil3" d="M624 412c38,2 23,-80 102,-90 59,-7 96,35 108,81 34,130 -2,236 -144,219 0,25 3,24 31,26 129,5 167,-128 137,-244 -41,-160 -230,-120 -234,8z"/>
   <path class="fil3" d="M640 434c-31,1 -25,17 -24,49 1,60 21,109 85,122 111,23 143,-95 124,-142l-15 0c-6,38 2,62 -20,92 -15,21 -43,38 -80,30 -75,-16 -68,-73 -70,-151z"/>
   <path class="fil3" d="M686 659c1,37 87,37 144,-5 19,-14 86,-95 63,-127 -8,2 -25,47 -31,57 -47,83 -96,81 -176,76z"/>
   <path class="fil3" d="M752 768c17,-7 34,-19 42,-35 -17,2 -33,7 -51,8 -20,1 -38,-3 -58,-2 7,12 23,25 36,31 14,7 16,5 31,-1z"/>
   <path class="fil3" d="M881 481l21 1c1,-51 0,-50 -22,-49l1 48z"/>
  </g>
 </g>
</svg>
