<svg width="211" height="46" viewBox="0 0 211 46" fill="none" xmlns="http://www.w3.org/2000/svg">
<path fill-rule="evenodd" clip-rule="evenodd" d="M20.6478 0.522743H22.4752C23.5031 0.57699 24.531 0.766853 25.7017 1.03809C26.5012 1.22795 28.2715 1.93315 28.9568 2.34C29.1567 2.4485 29.2994 2.55699 29.4993 2.66548C31.0697 3.69617 30.67 3.39781 31.9835 4.56411C32.1833 4.75397 32.269 4.75397 32.4689 4.97096L34.0964 6.95096C34.439 7.38493 35.1529 8.6326 35.3813 9.17507C35.8953 10.3956 35.8953 10.1786 36.3521 11.7789C36.8375 13.4334 36.8375 14.3827 36.8375 16.0373C36.8375 19.2107 34.1821 24.3912 32.4403 27.1307L23.2747 41.8857C20.6763 46.0085 21.7042 46.5238 19.991 43.7301C17.564 39.743 15.2512 35.6203 12.8241 31.606C11.168 28.8666 10.3685 27.4833 8.91231 24.4726L7.65596 21.5162C7.5132 21.1636 7.45609 20.8923 7.31332 20.5397C6.42817 17.9359 6.2854 17.5562 6.2854 14.8167C6.2854 13.7589 6.57093 12.5655 6.79936 11.7247C7.48464 9.22932 8.56967 7.27644 10.3114 5.40493L11.682 4.04877C12.1674 3.64192 13.7664 2.55699 14.3089 2.28576C15.3654 1.79754 16.3076 1.33644 17.5069 1.03809C18.6205 0.766853 19.6484 0.604113 20.6192 0.522743H20.6478Z" fill="#DEDEDE"/>
<path fill-rule="evenodd" clip-rule="evenodd" d="M16.3077 27.0493L19.5057 23.5504L19.9054 23.2249L20.6764 22.1942L26.5013 27.5918L26.7297 32.5553L20.2766 38.0885L19.5628 37.329L15.908 32.9079L16.3077 27.0493Z" fill="url(#paint0_linear_156_450)"/>
<path fill-rule="evenodd" clip-rule="evenodd" d="M21.1332 3.09946C25.4162 3.09946 28.8998 7.30356 28.8998 12.4841C28.8998 15.0066 28.0717 17.3121 26.7297 18.9937C26.4727 19.2921 24.731 21.3534 23.4746 22.5197C22.9892 22.9808 22.2468 23.252 22.1897 23.2792C21.4188 23.6318 20.0768 21.8145 19.5628 21.706C16.0222 20.8381 13.3667 17.0408 13.3667 12.5112C13.3667 7.33069 16.8502 3.12658 21.1332 3.12658V3.09946Z" fill="#FEFEFE"/>
<path fill-rule="evenodd" clip-rule="evenodd" d="M24.2742 33.4504C24.1885 34.4811 22.2469 34.3184 21.1048 34.2912C19.4201 34.2641 18.3636 34.4811 17.9353 33.5047C18.6777 33.0978 23.1892 33.3148 24.2456 33.4504H24.2742ZM17.0502 31.9044C18.4207 31.8501 19.7342 31.7416 21.1048 31.7416C22.4753 31.7416 23.8173 31.9044 25.1593 31.9044C25.1593 32.2841 25.0451 32.5011 24.7881 32.6367C24.2456 32.9622 18.3351 32.7723 17.2786 32.7181C17.1644 32.5011 16.9645 32.257 17.0216 31.9315L17.0502 31.9044ZM16.7075 30.277C18.7634 30.2499 23.7031 30.0058 25.5305 30.3041C25.5876 31.4704 25.1879 31.0636 23.9315 31.1178C21.7044 31.2263 18.9347 31.2806 16.7075 31.0093V30.2499V30.277ZM16.9074 28.7038C19.8198 28.5682 21.0476 28.5682 23.8459 28.6767C25.0166 28.731 25.3878 28.4055 25.4163 29.5175C23.5318 29.626 18.4778 29.843 16.9074 29.4362C16.8503 29.3277 16.8788 29.5447 16.8503 29.2463C16.8217 29.0836 16.8503 29.2192 16.8503 29.1107C16.8503 29.0293 16.9074 28.8123 16.9074 28.7038ZM17.7926 27.1307C19.0489 27.0222 20.4766 27.0222 21.7329 27.0222C23.1035 27.0493 24.5883 26.8323 24.731 27.8901C22.7609 28.2156 19.4201 28.1071 17.3643 27.863L17.7926 27.1307ZM18.6206 26.3984C18.6206 26.1 19.1631 25.666 19.3915 25.6118C19.6485 25.5575 20.6765 25.6118 21.0191 25.6118C22.4753 25.5847 22.6466 25.3134 23.4461 26.2899L23.132 26.4255C22.7894 26.5069 21.3617 26.5069 21.0191 26.5069C20.2481 26.4797 19.3915 26.4797 18.6206 26.3984ZM16.7932 5.37781C17.2786 4.26576 22.4753 2.63836 25.3021 5.10658C26.1873 5.86603 25.4449 6.11014 26.2729 6.97809C26.6441 7.35781 27.101 8.00877 27.4151 8.57836C27.7577 9.17507 28.8142 12.457 28.2146 13.1079C27.7291 12.8096 28.0432 5.32357 21.1048 5.35069C14.566 5.37781 14.5375 12.8638 14.0806 13.1622C13.481 12.5384 14.4518 9.63617 14.7944 8.95809C15.908 6.73398 18.2209 5.02521 20.9334 4.91672C23.2748 4.83535 23.646 5.67617 25.0737 5.97453C24.9595 4.69973 22.6181 4.18439 21.1048 4.21151C20.1054 4.23864 18.7348 4.53699 17.1644 5.26932C16.9645 5.37781 16.8217 5.40494 16.7932 5.37781ZM17.5641 21.3806C18.5064 22.2214 19.2488 22.791 20.2481 23.5233C20.6193 23.7945 21.8186 24.7438 21.9328 25.0693C20.1339 24.771 21.5045 24.9608 20.0768 24.9066C20.3338 24.1743 20.7621 24.3099 19.9341 23.686C19.6485 23.469 19.62 23.3606 19.2488 23.4962C17.9639 24.0115 15.5654 26.8052 15.0229 27.9444C14.2234 30.2499 14.6802 31.9044 15.8224 33.6403C16.3078 34.3726 18.5349 36.8951 19.4487 37.3019C19.5914 37.3833 19.62 37.3833 19.7342 37.3019C20.0483 37.0578 21.0191 36.2984 21.3903 36.0271C21.9042 35.6474 20.9334 35.7288 20.7336 35.7288C20.2481 35.7288 19.5058 35.6474 19.2202 34.9151C19.62 34.8879 22.3325 34.8066 22.7323 35.0507C22.4182 35.3762 22.1041 35.6745 21.8186 36C21.1048 36.7323 20.3338 37.3833 19.4772 37.98C17.9353 39.0649 16.0793 39.96 14.2519 39.8515C13.3668 39.7973 11.9391 39.5532 11.1396 39.743C9.82615 40.0414 9.05521 38.9836 8.54125 39.3904L9.88326 40.2041C9.22653 41.8858 6.54251 41.289 5.34326 41.6688C6.08565 42.5638 9.25508 41.5874 10.0831 40.9907C10.6542 40.5838 11.0539 39.96 12.0533 40.0414C12.5387 40.0685 14.1377 40.3669 14.5375 40.5296C14.2805 40.9907 11.9962 42.1299 11.2538 42.4282C9.54062 43.1063 8.22716 42.8351 6.82804 43.2419C7.79886 43.703 10.8541 43.2962 11.882 43.0249C12.8814 42.7808 15.5083 41.5874 15.9937 41.5603C16.165 43.6488 14.8801 43.9742 13.8522 44.6795C14.5946 45.0321 15.9366 43.5674 16.1936 43.2419C16.679 42.6723 16.679 41.8586 17.2215 41.2619C17.5356 40.9093 20.3338 39.0107 20.9334 38.9022C21.3046 39.1463 21.9042 39.6888 22.7609 39.8244C23.5032 40.0142 23.9315 41.5874 25.8161 42.0756C26.5585 42.2655 27.358 42.3197 28.1003 42.4825C28.7856 42.6452 28.9569 42.8893 29.0997 43.1334C29.2139 43.3233 29.6708 44.3811 29.9563 44.5438C29.9278 44.0014 29.5566 42.7266 29.271 42.4553C28.2146 41.4518 25.7019 41.8315 26.1016 40.6923C27.4436 40.0685 30.613 41.8858 31.5839 42.3197C32.6689 42.8079 36.5522 43.703 37.8371 43.1877C37.78 43.1605 34.6962 42.6452 34.068 42.4553C33.2114 42.1841 31.4411 41.4518 31.1841 40.8551L32.0407 40.5025L28.3288 39.9058C28.5572 38.7666 29.4138 38.9293 29.7279 38.2512C28.6429 38.2784 28.2431 39.743 25.8161 39.3904C24.731 39.2277 22.7037 38.2784 22.4468 37.6545C23.5032 36.2441 30.4703 32.2027 26.3586 26.7238C26.1302 26.3984 25.7019 25.9915 25.2736 25.5847C23.9315 24.337 23.2463 23.8488 21.8186 22.8181C20.705 22.0044 19.363 20.9466 18.9918 20.6482C17.7354 19.6175 16.2507 18.4241 15.5083 16.6069C13.7951 12.4841 15.7653 7.5748 19.1346 6.35425C23.9601 4.61836 26.9582 8.55124 27.2723 12.7011C27.672 17.963 24.3598 19.8616 21.5045 22.0315L22.7037 23.0079C23.5032 22.9808 26.3015 20.1329 26.844 19.4819C31.3269 14.22 29.4424 6.46274 24.7881 3.80466C23.0464 2.8011 20.3909 2.61124 18.3922 3.37069C14.6802 4.7811 12.71 9.36494 12.9385 13.1351C13.1383 16.634 14.9372 19.1564 17.5641 21.4348V21.3806Z" fill="#414A4E"/>
<path fill-rule="evenodd" clip-rule="evenodd" d="M20.4193 7.14083C27.4149 6.02877 28.3857 18.4241 21.9898 19.5362C18.7632 20.0786 16.222 16.9323 16.0792 14.0844C15.9079 10.5855 17.3356 7.62904 20.3908 7.14083H20.4193ZM20.3622 6.48987C13.1097 7.76466 14.0234 20.9737 21.9898 20.1329C29.1281 19.3734 28.3286 5.07946 20.3622 6.48987Z" fill="#414A4E"/>
<path fill-rule="evenodd" clip-rule="evenodd" d="M21.1619 14.1929C20.2482 14.5455 20.391 12.7553 20.4766 12.1586C20.648 11.0737 21.8187 11.2364 21.9614 12.1586C22.1898 13.4877 21.9043 16.4441 20.0483 15.088C19.049 14.3556 19.1632 11.589 19.9912 10.8025C20.4766 10.3414 21.4189 10.0973 22.1327 10.5855C22.8466 11.0466 22.7609 11.6162 23.0464 12.4027L23.5604 12.3485C23.8745 10.26 20.9049 8.52412 19.3631 10.6126C18.3066 12.023 18.3637 15.7118 20.6194 15.9288C23.3605 16.1729 23.075 11.8874 21.9614 11.0195C19.3916 9.06658 19.1632 15.7389 21.1905 14.7353C21.6188 14.4099 21.9043 12.1586 21.3618 11.8332C20.3053 12.1044 21.2476 13.9759 21.219 14.1658L21.1619 14.1929Z" fill="#414A4E"/>
<path fill-rule="evenodd" clip-rule="evenodd" d="M19.1916 18.2342C19.5914 17.1764 17.5927 16.7425 17.25 14.5726C16.7075 11.0195 18.7348 7.1137 22.3611 8.33425C24.9023 9.2022 24.217 11.2093 25.4448 11.1279C25.4163 9.69042 23.7887 8.11727 22.5038 7.68329C18.7062 6.4085 16.0508 10.3685 16.5933 14.3285C16.7932 15.7118 18.0781 18.1529 19.1916 18.2071V18.2342Z" fill="#414A4E"/>
<path fill-rule="evenodd" clip-rule="evenodd" d="M17.8782 11.6975C18.9632 11.7518 18.5349 9.52768 20.7906 9.25644C22.4753 9.06658 23.5317 10.2058 23.8744 11.4534C24.8452 14.9795 23.8173 17.8545 19.7627 17.3934C19.7627 18.0715 19.8484 18.0444 20.6479 18.0986C24.3312 18.2342 25.4163 14.6269 24.5597 11.4806C23.389 7.14083 17.9924 8.22576 17.8782 11.6975Z" fill="#414A4E"/>
<path fill-rule="evenodd" clip-rule="evenodd" d="M18.335 12.2943C17.4498 12.3214 17.6211 12.7553 17.6497 13.6233C17.6782 15.2507 18.2493 16.5797 20.0767 16.9323C23.2461 17.5562 24.1599 14.3556 23.6173 13.0808H23.189C23.0177 14.1115 23.2461 14.7625 22.618 15.5762C22.1897 16.1458 21.3902 16.6069 20.3337 16.3899C18.1922 15.9559 18.3921 14.4099 18.335 12.2943Z" fill="#414A4E"/>
<path fill-rule="evenodd" clip-rule="evenodd" d="M19.6484 18.397C19.677 19.4005 22.1326 19.4005 23.7601 18.2614C24.3026 17.8816 26.2157 15.6847 25.559 14.8167C25.3306 14.871 24.8452 16.0915 24.6738 16.3627C23.3318 18.614 21.9327 18.5597 19.6484 18.4241V18.397Z" fill="#414A4E"/>
<path fill-rule="evenodd" clip-rule="evenodd" d="M21.533 21.3534C22.0184 21.1636 22.5038 20.8381 22.7322 20.4041C22.2468 20.4584 21.7899 20.594 21.276 20.6211C20.7049 20.6482 20.1909 20.5397 19.6199 20.5669C19.8197 20.8923 20.2766 21.2449 20.6478 21.4077C21.0475 21.5975 21.1047 21.5433 21.533 21.3806V21.3534Z" fill="#414A4E"/>
<path fill-rule="evenodd" clip-rule="evenodd" d="M25.2165 13.569L25.8162 13.5962C25.8447 12.2129 25.8162 12.24 25.188 12.2671L25.2165 13.569Z" fill="#414A4E"/>
<path d="M63.1799 29.5096V12.9115H66.8987L72.0468 24.8984L77.2299 12.9115H80.9021V29.5096H77.9968V21.3068L78.0898 16.605L77.6598 17.8512L73.3019 28.3766H70.6058L66.3409 17.7946L65.9109 16.5483L66.0155 21.3521V29.5096H63.1799Z" fill="black"/>
<path d="M84.4935 34.7553C83.9977 34.7553 83.4708 34.7251 82.913 34.6646L82.762 32.3647C83.1183 32.4025 83.5716 32.4213 84.1216 32.4213C84.8266 32.4213 85.3922 32.2854 85.8183 32.0135C86.2444 31.7416 86.5969 31.2582 86.8758 30.5633C86.9068 30.4877 87.0618 30.061 87.3407 29.283L82.2041 17.0582H85.4581L88.8166 26.088C89.0645 25.1892 89.6184 23.5199 90.4784 21.0802C91.3461 18.6406 91.8226 17.2999 91.9078 17.0582H95.1617C91.6211 26.1824 89.8353 30.7823 89.8044 30.8578C89.2543 32.2552 88.5609 33.2522 87.7242 33.8489C86.8875 34.4532 85.8106 34.7553 84.4935 34.7553Z" fill="black"/>
<path d="M160.571 29.5096V12.8661H166.881C167.741 12.8661 168.485 12.9039 169.112 12.9794C169.748 13.055 170.348 13.1947 170.914 13.3986C171.487 13.595 171.948 13.8632 172.297 14.2031C172.653 14.543 172.932 14.9886 173.133 15.54C173.342 16.0838 173.447 16.7296 173.447 17.4774C173.447 19.6829 172.421 21.1331 170.367 21.828C170.786 22.2887 171.305 23.1423 171.925 24.3885L174.458 29.5096H171.018L169.031 25.1703C168.28 23.6143 167.815 22.6928 167.636 22.4058C167.505 22.3983 167.067 22.3945 166.323 22.3945L163.685 22.3718V29.5096H160.571ZM167.16 20.1739C168.369 20.1739 169.236 19.9661 169.763 19.5507C170.29 19.1277 170.553 18.4517 170.553 17.5227C170.553 16.7069 170.286 16.1065 169.752 15.7212C169.217 15.336 168.4 15.1434 167.299 15.1434H163.685V20.1625C163.802 20.1625 164.379 20.1663 165.417 20.1739C166.455 20.1739 167.036 20.1739 167.16 20.1739Z" fill="black"/>
<path d="M181.652 27.4929C182.682 27.4929 183.457 27.1266 183.976 26.3939C184.495 25.6612 184.755 24.6114 184.755 23.2442C184.755 21.862 184.495 20.8083 183.976 20.0832C183.457 19.3581 182.675 18.9956 181.629 18.9956C180.598 18.9956 179.82 19.3619 179.293 20.0945C178.774 20.8197 178.514 21.8733 178.514 23.2556C178.514 24.6151 178.778 25.6612 179.305 26.3939C179.831 27.1266 180.614 27.4929 181.652 27.4929ZM181.571 29.7475C179.68 29.7475 178.193 29.1508 177.108 27.9574C176.024 26.764 175.481 25.1929 175.481 23.2442C175.481 21.2351 176.024 19.6527 177.108 18.497C178.193 17.3339 179.723 16.7523 181.699 16.7523C183.604 16.7523 185.096 17.3452 186.173 18.531C187.257 19.7093 187.8 21.2804 187.8 23.2442C187.8 25.2307 187.253 26.8131 186.161 27.9914C185.069 29.1621 183.539 29.7475 181.571 29.7475Z" fill="black"/>
<path d="M195.377 27.4929C196.407 27.4929 197.182 27.1266 197.701 26.3939C198.22 25.6612 198.48 24.6114 198.48 23.2442C198.48 21.862 198.22 20.8083 197.701 20.0832C197.182 19.3581 196.4 18.9956 195.354 18.9956C194.323 18.9956 193.545 19.3619 193.018 20.0945C192.499 20.8197 192.239 21.8733 192.239 23.2556C192.239 24.6151 192.503 25.6612 193.03 26.3939C193.556 27.1266 194.339 27.4929 195.377 27.4929ZM195.296 29.7475C193.405 29.7475 191.918 29.1508 190.833 27.9574C189.749 26.764 189.206 25.1929 189.206 23.2442C189.206 21.2351 189.749 19.6527 190.833 18.497C191.918 17.3339 193.448 16.7523 195.423 16.7523C197.329 16.7523 198.821 17.3452 199.898 18.531C200.982 19.7093 201.525 21.2804 201.525 23.2442C201.525 25.2307 200.978 26.8131 199.886 27.9914C198.794 29.1621 197.263 29.7475 195.296 29.7475Z" fill="black"/>
<path d="M208.637 29.6795C207.769 29.6795 207.045 29.5813 206.464 29.385C205.891 29.181 205.441 28.8638 205.116 28.4333C204.791 28.0027 204.558 27.4967 204.419 26.9151C204.287 26.3259 204.221 25.6008 204.221 24.7398V18.8596H202.129L202.246 17.2508L204.43 17.0582L205.406 13.6819L207.266 13.6706V17.0582H210.438V18.8596H207.266V24.7964C207.266 25.7406 207.405 26.4128 207.684 26.8131C207.963 27.2134 208.478 27.4136 209.23 27.4136C209.671 27.4136 210.144 27.3758 210.648 27.3003L210.729 29.4303C210.713 29.4303 210.617 29.4492 210.438 29.4869C210.268 29.5171 210.101 29.5436 209.939 29.5662C209.784 29.5965 209.582 29.6229 209.334 29.6456C209.087 29.6682 208.854 29.6795 208.637 29.6795Z" fill="black"/>
<path d="M107.966 29.0803C105.361 29.0803 103.324 28.2834 101.855 26.6896C100.393 25.0958 99.6619 22.9142 99.6619 20.1448C99.6619 18.3853 100.004 16.8388 100.688 15.5054C101.372 14.1641 102.379 13.1186 103.709 12.3691C105.039 11.6195 106.609 11.2447 108.421 11.2447C110.497 11.2447 112.278 11.6984 113.763 12.6058L112.737 14.9965C111.321 14.2232 109.902 13.8366 108.479 13.8366C106.753 13.8366 105.396 14.4047 104.409 15.5409C103.421 16.6771 102.928 18.2235 102.928 20.1803C102.928 22.1212 103.367 23.6559 104.246 24.7842C105.124 25.9124 106.411 26.4766 108.106 26.4766C109.195 26.4766 110.182 26.303 111.069 25.9558V21.9319H107.488L107.511 19.411H114.043V27.7785C112.985 28.2203 111.982 28.5477 111.034 28.7608C110.093 28.9738 109.07 29.0803 107.966 29.0803Z" fill="url(#paint1_linear_156_450)"/>
<path d="M122.593 29.0803C120.532 29.0803 118.926 28.4807 117.776 27.2814C116.633 26.0742 116.061 24.4094 116.061 22.2869C116.061 20.2197 116.601 18.5746 117.682 17.3517C118.763 16.1287 120.237 15.5133 122.103 15.5054C123.868 15.5054 125.236 16.0656 126.208 17.186C127.188 18.3064 127.678 19.7937 127.678 21.6478C127.678 21.782 127.674 21.9989 127.666 22.2988C127.666 22.5986 127.666 22.8195 127.666 22.9615H119.14C119.171 24.1766 119.498 25.1195 120.12 25.7901C120.75 26.4529 121.613 26.7843 122.709 26.7843C124.109 26.7843 125.454 26.4135 126.745 25.6718L127.176 27.8731C125.893 28.6779 124.365 29.0803 122.593 29.0803ZM119.198 21.0087H124.797C124.797 19.9515 124.56 19.1388 124.085 18.5707C123.611 18.0026 122.954 17.7186 122.114 17.7186C121.329 17.7186 120.664 17.9947 120.12 18.547C119.583 19.0993 119.276 19.9199 119.198 21.0087Z" fill="url(#paint2_linear_156_450)"/>
<path d="M129.696 28.8318V15.8249H132.157L132.495 17.47C133.801 16.1603 135.252 15.5054 136.846 15.5054C138.339 15.5054 139.454 15.9433 140.193 16.8191C140.939 17.687 141.313 18.9494 141.313 20.6063V28.8318H138.245V20.9851C138.237 19.9357 138.07 19.1506 137.744 18.6299C137.417 18.1091 136.83 17.8488 135.983 17.8488C135.322 17.8488 134.715 18.0223 134.163 18.3695C133.619 18.7088 133.222 19.1388 132.973 19.6595C132.826 20.275 132.752 21.2218 132.752 22.5V28.8318H129.696Z" fill="url(#paint3_linear_156_450)"/>
<path d="M149.431 26.7251C150.465 26.7251 151.243 26.3425 151.764 25.5771C152.284 24.8118 152.545 23.715 152.545 22.2869C152.545 20.843 152.284 19.7424 151.764 18.9849C151.243 18.2275 150.457 17.8488 149.408 17.8488C148.373 17.8488 147.592 18.2314 147.063 18.9968C146.542 19.7542 146.282 20.8549 146.282 22.2988C146.282 23.719 146.546 24.8118 147.075 25.5771C147.604 26.3425 148.389 26.7251 149.431 26.7251ZM149.349 29.0803C147.452 29.0803 145.959 28.457 144.87 27.2104C143.782 25.9637 143.238 24.3226 143.238 22.2869C143.238 20.1882 143.782 18.5352 144.87 17.328C145.959 16.1129 147.495 15.5054 149.478 15.5054C151.39 15.5054 152.887 16.1248 153.968 17.3635C155.056 18.5944 155.601 20.2355 155.601 22.2869C155.601 24.362 155.053 26.015 153.956 27.2459C152.86 28.4688 151.324 29.0803 149.349 29.0803Z" fill="url(#paint4_linear_156_450)"/>
<defs>
<linearGradient id="paint0_linear_156_450" x1="33.3849" y1="37.7847" x2="10.0277" y2="21.392" gradientUnits="userSpaceOnUse">
<stop stop-color="#19AFC1"/>
<stop offset="0.290196" stop-color="#00A8C6"/>
<stop offset="0.839216" stop-color="#FEFEFE"/>
<stop offset="1" stop-color="#FEFEFE"/>
</linearGradient>
<linearGradient id="paint1_linear_156_450" x1="102.141" y1="33.7552" x2="154.206" y2="33.7552" gradientUnits="userSpaceOnUse">
<stop stop-color="#01A8C6"/>
<stop offset="1" stop-color="#267BCF"/>
</linearGradient>
<linearGradient id="paint2_linear_156_450" x1="102.141" y1="33.7552" x2="154.206" y2="33.7552" gradientUnits="userSpaceOnUse">
<stop stop-color="#01A8C6"/>
<stop offset="1" stop-color="#267BCF"/>
</linearGradient>
<linearGradient id="paint3_linear_156_450" x1="102.141" y1="33.7552" x2="154.206" y2="33.7552" gradientUnits="userSpaceOnUse">
<stop stop-color="#01A8C6"/>
<stop offset="1" stop-color="#267BCF"/>
</linearGradient>
<linearGradient id="paint4_linear_156_450" x1="102.141" y1="33.7552" x2="154.206" y2="33.7552" gradientUnits="userSpaceOnUse">
<stop stop-color="#01A8C6"/>
<stop offset="1" stop-color="#267BCF"/>
</linearGradient>
</defs>
</svg>
