<?xml version="1.0" encoding="UTF-8"?>
<!DOCTYPE svg PUBLIC "-//W3C//DTD SVG 1.1//EN" "http://www.w3.org/Graphics/SVG/1.1/DTD/svg11.dtd">
<!-- Creator: CorelDRAW X6 -->
<svg xmlns="http://www.w3.org/2000/svg" xml:space="preserve" width="49.179mm" height="47.7898mm" version="1.1" style="shape-rendering:geometricPrecision; text-rendering:geometricPrecision; image-rendering:optimizeQuality; fill-rule:evenodd; clip-rule:evenodd"
viewBox="0 0 4158 4041"
 xmlns:xlink="http://www.w3.org/1999/xlink">
 <defs>
  <style type="text/css">
   <![CDATA[
    .fil2 {fill:#FEFEFE}
    .fil1 {fill:#DD3322}
    .fil0 {fill:#4F4F4E}
   ]]>
  </style>
 </defs>
 <g id="Layer_x0020_1">
  <metadata id="CorelCorpID_0Corel-Layer"/>
  <g id="_679833472">
   <g>
    <path class="fil0" d="M3254 4032c25,-99 -93,-440 -55,-550 12,-33 42,-63 65,-94l76 -83c16,-20 20,-22 41,-41 17,-15 24,-24 37,-39 46,-51 158,-164 192,-209 17,-22 21,-20 37,-38l145 -173c103,-132 191,-226 231,-405 52,-236 78,-580 114,-839 11,-82 40,-207 1,-277 -41,-75 -140,-93 -216,-27l-23 21c-19,18 -34,43 -46,68 -34,67 -163,553 -176,627 86,30 112,171 62,270 -27,55 -43,60 -63,88l-474 539c-55,3 -76,-21 -46,-61 1,-1 2,-2 3,-4l472 -538c67,-78 95,-197 -20,-248 -104,-46 -226,64 -302,130 -18,16 -25,20 -41,34 -18,16 -28,20 -43,34l-166 138c-108,88 -278,194 -352,258l-88 71c-70,58 -151,190 -179,279 -97,304 -32,506 -3,810 4,45 16,241 49,259 38,10 721,8 769,-1z"/>
    <path class="fil0" d="M584 2337c15,20 22,17 37,38l106 124c15,19 20,17 34,35l106 123c16,22 21,16 37,38l88 103c13,13 10,3 19,19 10,18 4,32 -3,48 -38,12 -50,8 -71,-18 -30,-38 -31,-29 -49,-52l-192 -215c-11,-12 -11,-18 -22,-30 -11,-12 -14,-10 -26,-24l-43 -52c-9,-10 -14,-17 -23,-28 -12,-14 -14,-12 -25,-25l-114 -140c-81,-114 -51,-273 43,-307 -23,-101 -54,-200 -79,-298 -30,-114 -72,-319 -151,-403 -74,-78 -200,-76 -242,22 -21,49 -14,99 -7,149 30,219 55,436 81,656 30,248 37,376 169,563l124 155c17,19 17,29 39,50l133 147c19,17 24,30 40,49 15,18 10,9 27,23 19,16 39,50 89,95 28,25 -4,8 43,45l110 119c32,44 39,29 82,96 72,111 -28,396 -37,554 -2,38 15,40 49,41 77,2 702,3 725,-9 20,-17 17,-29 21,-59l58 -475c23,-186 27,-355 -37,-531 -60,-163 -110,-207 -221,-314l-389 -285c-14,-10 -26,-24 -41,-35l-252 -205c-74,-64 -151,-132 -250,-111 -85,18 -120,101 -83,190 23,56 57,80 97,133z"/>
   </g>
   <path class="fil1" d="M1094 752c-22,14 -26,23 -37,52 -44,121 -29,241 30,352 15,29 59,86 78,101 161,125 310,147 551,87 49,-12 97,-32 88,-90 -5,-34 -29,-107 -42,-134 -47,-100 -79,-148 -152,-201 -99,-73 -141,-61 -269,-77 -63,-8 -83,-26 -123,-51 -31,-20 -80,-68 -124,-40z"/>
   <path class="fil1" d="M1420 7c-62,24 23,108 -14,250 -26,99 17,182 59,246 92,138 359,239 420,202 46,-28 53,-199 46,-262 -21,-197 -143,-372 -338,-424 -62,-17 -136,-27 -173,-12z"/>
   <path class="fil1" d="M2642 573c0,4 0,8 0,12 0,-4 0,-8 0,-12zm-74 -209c-138,30 -308,136 -368,274 -57,132 -28,271 27,398 57,131 155,-17 177,-39 19,-19 56,-53 92,-68 91,-38 128,-62 182,-142 81,-119 55,-346 -4,-406 -27,-27 -65,-26 -106,-17z"/>
   <path class="fil1" d="M1516 1712c3,0 7,0 11,-1 -4,0 -7,0 -11,1zm621 -365l0 0 -4 2 4 -2zm-68 44c-2,1 -4,2 -5,4 2,-1 4,-2 5,-4zm-28 20c-2,1 -3,3 -5,4 2,-1 3,-3 5,-4zm-7 6c-2,1 -3,3 -5,4 2,-1 3,-3 5,-4zm-24 21c-2,2 -3,3 -5,5 2,-2 3,-3 5,-5zm-192 259c-95,-47 -190,-84 -303,-78 -88,4 -437,160 -286,235 49,24 88,57 124,93 70,72 170,222 256,276 67,42 132,64 223,73 85,8 249,-22 305,-75l19 -20c10,-17 -1,-36 8,-15 114,-105 221,-228 214,-392 -8,-156 -115,-247 -142,-396 -13,-72 13,-233 -168,-116 -11,7 -36,22 -58,38 -127,85 -188,230 -191,379z"/>
   <path class="fil1" d="M677 1181c25,8 52,30 88,40 91,26 170,-18 296,100 96,90 71,356 -37,370 -68,9 -292,-75 -363,-162 -130,-160 -69,-377 16,-348z"/>
   <path class="fil1" d="M3470 1363l0 0c-2,1 -4,2 -5,3 2,-1 4,-2 5,-3l0 6 0 -6m-210 26c3,0 6,0 9,-1 -3,0 -6,0 -9,1zm289 -115c-33,-58 -104,38 -250,21 -101,-12 -178,42 -236,93 -124,110 -186,390 -141,445 34,41 205,24 266,9 192,-48 348,-195 372,-394 8,-64 7,-139 -12,-173z"/>
   <path class="fil1" d="M2504 1528l0 0 0 0zm330 -415c-25,8 -52,30 -88,40 -91,26 -170,-18 -296,100 -96,90 -71,356 37,370 68,9 292,-75 363,-162 130,-160 69,-377 -16,-348z"/>
   <path class="fil2" d="M2190 2323l100 -7 -18 -25c-1,-1 -2,-3 -3,-4 -51,-70 -163,-167 -228,-224l-136 -105c-41,-27 -136,-69 -179,-74 14,24 -1,3 16,21l279 250c21,19 38,34 58,53 26,25 51,39 88,78 15,16 10,20 39,22l-15 15z"/>
   <path class="fil2" d="M2267 2288l-57 82 -12 -28c-1,-1 -2,-3 -2,-5 -34,-80 -61,-225 -77,-310l-21 -171c-2,-49 10,-152 27,-192 14,24 3,0 10,25l73 367c6,28 10,51 16,77 8,35 8,64 22,115 6,21 12,19 -1,45l21 -5z"/>
   <path class="fil2" d="M2215 1226l-97 25 9 -29c0,-2 1,-3 1,-5 26,-83 100,-211 144,-285l95 -143c30,-39 106,-109 146,-128 -6,27 2,2 -9,25l-184 326c-14,25 -25,45 -38,69 -17,32 -36,53 -58,102 -9,20 -3,23 -30,34l19 9z"/>
   <path class="fil2" d="M1832 1375l95 -33 -24 -19c-1,-1 -3,-2 -4,-3 -68,-54 -200,-120 -278,-158l-159 -67c-47,-16 -149,-32 -192,-26 20,20 -1,3 21,16l333 170c25,13 46,23 70,37 32,18 59,25 105,53 19,12 15,17 43,12l-11 19z"/>
   <path class="fil2" d="M1866 852l96 26 -9 -29c0,-1 -1,-3 -1,-5 -25,-81 -98,-206 -140,-279l-93 -140c-30,-38 -105,-108 -144,-126 5,27 -2,2 8,24l179 320c13,24 25,44 37,68 16,32 35,52 57,100 9,20 3,22 29,33l-19 9z"/>
   <path class="fil2" d="M2458 1642l-63 2 10 -16c0,-1 1,-2 2,-3 27,-46 90,-113 127,-152l78 -73c24,-19 80,-51 107,-57 -7,16 1,2 -9,14l-157 171c-12,13 -22,24 -33,36 -15,17 -29,27 -50,53 -8,11 -5,13 -23,16l11 8z"/>
   <path class="fil2" d="M2888 1835l-84 3 13 -22c1,-1 1,-3 2,-4 36,-61 120,-150 169,-202l103 -97c32,-26 107,-68 142,-76 -9,21 2,2 -12,18l-208 228c-16,17 -29,31 -43,48 -20,23 -39,36 -66,71 -11,14 -6,18 -30,22l14 11z"/>
   <path class="fil2" d="M1149 1646c-7,-2 -14,-3 -21,-5l-136 -41c-38,-15 -112,-58 -137,-85 23,-2 1,-2 22,1l272 60 0 70z"/>
  </g>
 </g>
</svg>
