<?xml version="1.0" encoding="UTF-8"?>
<!DOCTYPE svg PUBLIC "-//W3C//DTD SVG 1.1//EN" "http://www.w3.org/Graphics/SVG/1.1/DTD/svg11.dtd">
<!-- Creator: CorelDRAW X6 -->
<svg xmlns="http://www.w3.org/2000/svg" xml:space="preserve" width="44.1217mm" height="50.904mm" version="1.1" style="shape-rendering:geometricPrecision; text-rendering:geometricPrecision; image-rendering:optimizeQuality; fill-rule:evenodd; clip-rule:evenodd"
viewBox="0 0 703 811"
 xmlns:xlink="http://www.w3.org/1999/xlink">
 <defs>
  <style type="text/css">
   <![CDATA[
    .fil2 {fill:#924884}
    .fil1 {fill:#E31E24}
    .fil0 {fill:#4F4F4E}
   ]]>
  </style>
 </defs>
 <g id="Layer_x0020_1">
  <metadata id="CorelCorpID_0Corel-Layer"/>
  <path class="fil0" d="M217 661c-3,-100 84,-166 182,-134 22,7 27,12 43,24 20,16 43,49 45,88 1,11 4,22 -6,25 -23,6 -15,-33 -33,-65 -15,-27 -41,-48 -81,-53 -55,-7 -108,24 -121,78 -2,10 -2,17 -7,26 -4,7 -11,12 -23,11zm127 -85c49,-4 81,24 88,68 3,17 2,30 12,40 9,9 26,12 41,7 13,-4 26,-9 39,-14 11,-4 27,-9 35,-17 12,-12 10,-21 10,-42 0,-33 3,-69 -7,-99 -18,-52 -65,-79 -114,-95 -12,-4 -28,-12 -41,-7 -14,5 -26,10 -42,11 -57,4 -56,-19 -88,-10 -48,13 -104,39 -127,84 -16,30 -15,53 -15,90 0,46 -8,65 27,79 13,5 26,10 38,14 17,6 24,10 43,2 35,-15 29,-46 38,-67 10,-22 32,-40 63,-42z"/>
  <path class="fil1" d="M327 44c64,-7 134,14 178,39 102,57 160,159 156,280 -2,73 -35,115 -32,131 2,14 22,23 34,11 11,-11 27,-59 31,-78 23,-92 4,-189 -43,-264 -52,-82 -140,-151 -274,-163 -65,-6 -133,11 -181,35 -51,25 -91,60 -120,98 -75,97 -96,221 -51,338 4,10 12,31 19,36 14,10 31,-2 32,-16 0,-7 -10,-28 -15,-40 -5,-13 -9,-28 -12,-43 -13,-66 -2,-133 21,-186 24,-53 58,-90 98,-120 48,-37 99,-52 160,-59z"/>
  <path class="fil2" d="M336 135c46,-5 90,9 122,26 89,48 134,156 101,254 -8,24 22,38 36,19 8,-11 14,-45 15,-61 2,-24 1,-47 -3,-70 -21,-116 -122,-207 -240,-212 -49,-2 -87,6 -125,24 -30,14 -45,26 -68,45 -19,17 -37,40 -50,63 -30,52 -40,124 -25,184 2,9 5,21 11,28 15,16 43,3 33,-24 -3,-9 -6,-21 -7,-30 -12,-83 25,-164 89,-208 32,-22 64,-34 111,-39z"/>
  <path class="fil0" d="M459 301c5,-32 -10,-63 -25,-81 -15,-18 -38,-33 -71,-37 -62,-8 -115,42 -119,96 -8,104 109,154 178,94 19,-17 31,-36 37,-71z"/>
  <path class="fil0" d="M341 629c8,-3 21,-1 27,3 17,12 -2,72 57,103 55,28 61,-10 44,-15 -9,-3 -16,-3 -25,-7 -63,-25 -12,-97 -78,-112 -19,-4 -39,2 -50,12 -15,14 -13,22 -18,45 -6,24 -24,42 -46,51 -5,2 -20,5 -23,8 -7,7 -3,17 3,21 16,11 54,-14 65,-24 37,-34 23,-75 44,-83z"/>
  <path class="fil0" d="M353 659c-2,4 -3,13 -5,17 -2,6 -4,10 -7,15 -5,10 -11,20 -17,28 -9,12 -35,30 -53,36 -6,2 -11,4 -12,11 -1,7 2,12 7,15 17,10 76,-31 83,-48 4,4 7,10 10,14 9,13 23,23 37,31 9,5 44,21 44,-4 0,-8 -3,-11 -9,-13 -28,-11 -40,-17 -54,-37 -20,-28 -21,-60 -24,-66z"/>
  <path class="fil0" d="M318 798c2,17 61,22 48,-8 -2,-4 -7,-10 -10,-13 -6,-5 -10,-2 -15,1 -7,5 -23,14 -23,20z"/>
 </g>
</svg>
