<svg version="1.2" xmlns="http://www.w3.org/2000/svg" viewBox="0 0 160 129" width="160" height="129"><style>.a{fill:#cac003}</style><path class="a" d="m137.3 38.4l8.6 48.9c-0.7 4-4 7.7-12.6 10.9l-42.1 10.5c-3.6 4.1-4.7 15-1.7 15.7 0 0 34.3-3.2 52.1-4.8 5.4 2 13-2 10.9-11l2.3-59.1z"/><path  d="m109.3 96.3l-12.1-54.2 4.5-0.9 13 52.6c0.8 3.2 29-1.8 28.3-5.2l-13.4-67.9c-0.8-3.5-9.2-17.1-12.1-16.7l-15.9 2.2c-3.9 0.5-5 4.5-10.4 5.4-4.8 0.8-11.2-9.4-15.5-8.6l-15.9 3.3c-4.4 0.9-4.6 9.7-9.4 10.9-4.9 1.2-8.1-2.4-11.6-1.5l-12.4 3.2c-5 1.3-5.1 11.6-9.9 13.5-4.4 1.6-8.2-1.2-11.5 0.7l17.1 23.7 4.5-0.9 15.9 52.3c0.8 2.8 28-2.3 27.3-5.2-4.4-17.7-13.1-52.9-13.1-52.9l4.5-1 14 53.8c0.8 3 34.9-3.3 34.1-6.6z"/></svg>